<svg xmlns="http://www.w3.org/2000/svg" xmlns:xlink="http://www.w3.org/1999/xlink" width="430" height="931" viewBox="0 0 430 931">
  <defs>
    <clipPath id="clip-path">
      <path id="Rectangle_638" data-name="Rectangle 638" d="M0,0H430a0,0,0,0,1,0,0V292a25,25,0,0,1-25,25H25A25,25,0,0,1,0,292V0A0,0,0,0,1,0,0Z" transform="translate(10393 1636)" fill="none"/>
    </clipPath>
    <clipPath id="clip-path-2">
      <path id="Rectangle_640" data-name="Rectangle 640" d="M25,0H405a25,25,0,0,1,25,25V314a0,0,0,0,1,0,0H0a0,0,0,0,1,0,0V25A25,25,0,0,1,25,0Z" fill="none"/>
    </clipPath>
  </defs>
  <g id="Group_3497" data-name="Group 3497" transform="translate(-4518 2982)">
    <g id="Mask_Group_53" data-name="Mask Group 53" transform="translate(-5875 -4618)" clip-path="url(#clip-path)">
      <g id="Group_3495" data-name="Group 3495" transform="translate(-668 -326.806)">
        <g id="Path_3536" data-name="Path 3536" transform="matrix(0.978, 0.208, -0.208, 0.978, 11018.703, 1888.61)" fill="#fff">
          <path d="M 256.6445007324219 291.5 L 170.8595428466797 291.5 L 87.40602874755859 291.5 L 12.42327976226807 140.1314086914062 L 87.34004211425781 2.5 L 170.8595428466797 2.5 L 256.7116088867188 2.5 L 336.1462707519531 140.1339874267578 L 256.6445007324219 291.5 Z" stroke="none"/>
          <path d="M 88.82559204101562 5 L 15.24008178710938 140.1857147216797 L 88.95751953125 289 L 255.1336975097656 289 L 333.2926025390625 140.1907501220703 L 255.2680206298828 5 L 88.82559204101562 5 M 85.8544921875 0 L 258.1552734375 0 L 339 140.0771331787109 L 258.1552734375 294 L 85.8544921875 294 L 9.6064453125 140.0771331787109 L 85.8544921875 0 Z" stroke="none" fill="#fff"/>
        </g>
        <g id="Path_3537" data-name="Path 3537" transform="translate(11291.798 1802.531) rotate(8)" fill="none">
          <path d="M83.934,0h167.96L330.7,136.548,251.894,286.594H83.934L9.606,136.548Z" stroke="none"/>
          <path d="M 86.90478515625 5 L 15.24005126953125 136.656982421875 L 87.03671264648438 281.5937194824219 L 248.8723754882812 281.5937194824219 L 324.9946899414062 136.6620178222656 L 249.0067138671875 5 L 86.90478515625 5 M 83.93368530273438 0 L 251.8939666748047 0 L 330.7020874023438 136.5484008789062 L 251.8939666748047 286.5937194824219 L 83.93368530273438 286.5937194824219 L 9.606414794921875 136.5484008789062 L 83.93368530273438 0 Z" stroke="none" fill="#fff"/>
        </g>
        <g id="Path_3538" data-name="Path 3538" transform="translate(10897.574 2400.521) rotate(-49)" fill="none">
          <path d="M83.934,0h167.96L330.7,136.548,251.894,286.594H83.934L9.606,136.548Z" stroke="none"/>
          <path d="M 86.90478515625 5 L 15.24005126953125 136.656982421875 L 87.03671264648438 281.5937194824219 L 248.8723754882812 281.5937194824219 L 324.9946899414062 136.6620178222656 L 249.0067138671875 5 L 86.90478515625 5 M 83.93368530273438 0 L 251.8939666748047 0 L 330.7020874023438 136.5484008789062 L 251.8939666748047 286.5937194824219 L 83.93368530273438 286.5937194824219 L 9.606414794921875 136.5484008789062 L 83.93368530273438 0 Z" stroke="none" fill="#fff"/>
        </g>
        <g id="Path_3539" data-name="Path 3539" transform="translate(11312.622 2460.145) rotate(-110)" fill="#54acff" style="mix-blend-mode: overlay;isolation: isolate">
          <path d="M 248.4414672851562 281.7969360351562 L 165.53759765625 281.7969360351562 L 84.8895263671875 281.7969360351562 L 12.42325592041016 135.5083923339844 L 84.82357788085938 2.500009775161743 L 165.53759765625 2.500009775161743 L 248.5086364746094 2.500009775161743 L 325.275146484375 135.5108947753906 L 248.4414672851562 281.7969360351562 Z" stroke="none"/>
          <path d="M 86.30909729003906 5 L 15.24005126953125 135.5626831054688 L 86.44102478027344 279.2969360351562 L 246.9306945800781 279.2969360351562 L 322.4214172363281 135.5677185058594 L 247.0650329589844 5 L 86.30909729003906 5 M 83.3380126953125 0 L 249.9522705078125 0 L 328.1288146972656 135.4541015625 L 249.9522705078125 284.2969360351562 L 83.3380126953125 284.2969360351562 L 9.606414794921875 135.4541015625 L 83.3380126953125 0 Z" stroke="none" fill="#fff"/>
        </g>
      </g>
    </g>
    <g id="Mask_Group_54" data-name="Mask Group 54" transform="translate(4518 -2365)" clip-path="url(#clip-path-2)">
      <g id="Group_3496" data-name="Group 3496" transform="translate(-157.123 -298.634)">
        <g id="Path_3540" data-name="Path 3540" transform="matrix(0.978, -0.208, 0.208, 0.978, 63.097, 399.295)" fill="#fff">
          <path d="M 247.5756683349609 289.3135070800781 L 161.7578125 289.1482849121094 L 78.26185607910156 288.9874877929688 L 3.118157148361206 152.4712829589844 L 77.76289367675781 2.649720191955566 L 161.1823120117188 2.810369968414307 L 246.9427947998047 2.975482940673828 L 326.6953735351562 153.1087951660156 L 247.5756683349609 289.3135070800781 Z" stroke="none"/>
          <path d="M 246.1382904052734 286.8107299804688 L 323.8357238769531 153.0545043945312 L 245.4384613037109 5.472596168518066 L 79.30898284912109 5.152707099914551 L 5.940061092376709 152.4135437011719 L 79.74101257324219 286.4903259277344 L 246.1382904052734 286.8107299804688 M 249.0129852294922 291.8162841796875 L 76.78267669677734 291.4846496582031 L 0.296265035867691 152.5290985107422 L 76.21685791015625 0.1467336267232895 L 248.4471282958984 0.4783699810504913 L 329.5550231933594 153.1630554199219 L 249.0129852294922 291.8162841796875 Z" stroke="none" fill="#fff"/>
        </g>
        <g id="Path_3541" data-name="Path 3541" transform="translate(357.548 488.948) rotate(-8)" fill="none">
          <path d="M74.687,284.031l82.848.108,85.081.111,78.616-135.178L242.243.316,157.162.205,74.314.1.2,148.653Z" stroke="none"/>
          <path d="M 239.7428588867188 279.2462158203125 L 315.5126647949219 148.9611206054688 L 239.2348480224609 5.31209135055542 L 77.40473937988281 5.101001739501953 L 5.840157032012939 148.5391845703125 L 77.64528656005859 279.0347595214844 L 239.7428588867188 279.2462158203125 M 242.6169281005859 284.2499694824219 L 74.68743133544922 284.0309143066406 L 0.1957022398710251 148.65283203125 L 74.31361389160156 0.09696191549301147 L 242.2431182861328 0.3160073757171631 L 321.2325134277344 149.0715942382812 L 242.6169281005859 284.2499694824219 Z" stroke="none" fill="#fff"/>
        </g>
        <g id="Path_3542" data-name="Path 3542" transform="translate(216.295 0) rotate(49)" fill="none">
          <path d="M72.584,285.078,155,284.69l84.638-.4L318.662,147.93,240.981-1.135l-84.638.4L73.927-.348-.7,149.434Z" stroke="none"/>
          <path d="M 75.55774688720703 280.0639343261719 L 236.7493591308594 279.3045349121094 L 312.9569091796875 147.8016510009766 L 237.9563598632812 3.879024505615234 L 77.02885437011719 4.637157917022705 L 4.929687976837158 149.3408813476562 L 75.55774688720703 280.0639343261719 M 72.58367156982422 285.0780334472656 L -0.7030545473098755 149.4341125488281 L 73.92658233642578 -0.3482923805713654 L 240.9814910888672 -1.135292410850525 L 318.6617126464844 147.9295196533203 L 239.6385803222656 284.2909851074219 L 72.58367156982422 285.0780334472656 Z" stroke="none" fill="#fff"/>
        </g>
        <g id="Path_3543" data-name="Path 3543" transform="translate(672.612 225.258) rotate(110)" fill="#54acff" style="mix-blend-mode: overlay;isolation: isolate">
          <path d="M 237.7531127929688 282.208740234375 L 155.5004730224609 281.9564514160156 L 75.47052764892578 281.7109985351562 L 3.264984130859375 148.619140625 L 74.67283630371094 2.729076623916626 L 154.6204223632812 2.974276304244995 L 236.8219451904297 3.226402044296265 L 313.4641723632812 149.5950775146484 L 237.7531127929688 282.208740234375 Z" stroke="none"/>
          <path d="M 236.3041839599609 279.7043151855469 L 310.614990234375 149.5431976318359 L 235.3065338134766 5.721757888793945 L 76.23023986816406 5.233834743499756 L 6.077227115631104 148.5602264404297 L 76.96089935302734 279.2156066894531 L 236.3041839599609 279.7043151855469 M 239.2020111083984 284.7131958007812 L 73.98014831542969 284.2064514160156 L 0.4527381360530853 148.6780548095703 L 73.11541748046875 0.2242801934480667 L 238.3372802734375 0.7310529351234436 L 316.3132934570312 149.6468658447266 L 239.2020111083984 284.7131958007812 Z" stroke="none" fill="#fff"/>
        </g>
      </g>
    </g>
  </g>
</svg>
