<svg xmlns="http://www.w3.org/2000/svg" width="416.657" height="367.296" viewBox="0 0 416.657 367.296">
  <g id="Group_3666" data-name="Group 3666" transform="translate(-14 -200.196)">
    <g id="Group_2725" data-name="Group 2725" transform="translate(44.232 294.078)">
      <path id="Path_2311" data-name="Path 2311" d="M78.615,361.094H381.809c9.655-14.753,55.716-88.1,27.708-103.722-31.177-17.388-25.059-21.863-24.347-101.924.774-87.024-50.728-75.115-135.864-43.939s-81.115-6.728-146.479,12.223C37.747,142.6,97.151,216,47.388,270.561,5.717,316.248,59.89,351,78.615,361.094Z" transform="translate(-32.008 -88.313)" fill="#eef6fc"/>
      <path id="Path_2312" data-name="Path 2312" d="M170.836,107.946s29.25,21.679,81.3.456S150.312,89.181,170.836,107.946Z" transform="translate(-48.142 -88.886)" fill="#eef6fc" opacity="0.81"/>
    </g>
    <rect id="Rectangle_134" data-name="Rectangle 134" width="62.567" height="56.234" transform="translate(159.509 509.919)" fill="#d1ebff"/>
    <rect id="Rectangle_135" data-name="Rectangle 135" width="13.385" height="53.186" transform="translate(217.386 514.61) rotate(90)" fill="#abdaff"/>
    <rect id="Rectangle_136" data-name="Rectangle 136" width="13.385" height="53.186" transform="translate(217.386 531.471) rotate(90)" fill="#abdaff"/>
    <rect id="Rectangle_137" data-name="Rectangle 137" width="13.385" height="53.186" transform="translate(217.386 549.015) rotate(90)" fill="#abdaff"/>
    <circle id="Ellipse_47" data-name="Ellipse 47" cx="2.658" cy="2.658" r="2.658" transform="translate(188.135 519.029)" fill="#ebedff"/>
    <path id="Path_2313" data-name="Path 2313" d="M192.959,365.791a2.658,2.658,0,1,1-2.658-2.658A2.658,2.658,0,0,1,192.959,365.791Z" transform="translate(0.492 172.679)" fill="#ebedff"/>
    <path id="Path_2314" data-name="Path 2314" d="M192.959,386.824a2.658,2.658,0,1,1-2.658-2.658A2.658,2.658,0,0,1,192.959,386.824Z" transform="translate(0.492 170.201)" fill="#ebedff"/>
    <rect id="Rectangle_138" data-name="Rectangle 138" width="115.511" height="78.739" rx="6.858" transform="translate(113.265 346.219)" fill="#fff"/>
    <path id="Rectangle_139" data-name="Rectangle 139" d="M1.737,0h66.23A1.737,1.737,0,0,1,69.7,1.737v103a1.737,1.737,0,0,1-1.737,1.737H1.738A1.738,1.738,0,0,1,0,104.738v-103A1.737,1.737,0,0,1,1.737,0Z" transform="translate(224.258 350.737) rotate(90)" fill="#d1ebff"/>
    <path id="Path_2315" data-name="Path 2315" d="M222.836,153.339H192.769c1.623,7.818,7.752,33.465,20.53,46.244H224.37V154.871A1.535,1.535,0,0,0,222.836,153.339Z" transform="translate(-0.112 197.397)" fill="#abdaff"/>
    <path id="Path_2316" data-name="Path 2316" d="M216.041,205.759v6.795h10.892l.179-6.795Z" transform="translate(-2.854 191.221)" fill="#92cefc"/>
    <path id="Path_2317" data-name="Path 2317" d="M226.378,228.595V213.564l-.18-.1H215.307s-5.2,13.439-5.5,16.587l.181.079h14.852A1.535,1.535,0,0,0,226.378,228.595Z" transform="translate(-2.12 190.314)" fill="#abdaff"/>
    <path id="Path_2318" data-name="Path 2318" d="M109.691,153.339h30.067c-1.623,7.818-7.752,33.465-20.53,46.244H108.157V154.871A1.535,1.535,0,0,1,109.691,153.339Z" transform="translate(9.857 197.397)" fill="#abdaff"/>
    <path id="Path_2319" data-name="Path 2319" d="M119.228,205.759v6.795H108.337l-.179-6.795Z" transform="translate(9.857 191.221)" fill="#92cefc"/>
    <path id="Path_2320" data-name="Path 2320" d="M108.157,228.595V213.564l.18-.1h10.891s5.2,13.439,5.5,16.587l-.181.079H109.691A1.535,1.535,0,0,1,108.157,228.595Z" transform="translate(9.857 190.314)" fill="#abdaff"/>
    <rect id="Rectangle_149" data-name="Rectangle 149" width="181.771" height="6.636" transform="translate(225.215 468.473)" fill="#abdaff"/>
    <rect id="Rectangle_150" data-name="Rectangle 150" width="156.019" height="91.372" transform="translate(236.275 475.109)" fill="#d1ebff"/>
    <rect id="Rectangle_151" data-name="Rectangle 151" width="156.019" height="9.745" transform="translate(236.275 475.109)" fill="#92cefc"/>
    <circle id="Ellipse_48" data-name="Ellipse 48" cx="20.477" cy="20.477" r="20.477" transform="translate(335.525 347.726) rotate(-45)" fill="#abdaff"/>
    <g id="Group_2734" data-name="Group 2734" transform="translate(349.402 332.645)">
      <circle id="Ellipse_49" data-name="Ellipse 49" cx="15.081" cy="15.081" r="15.081" fill="#d1ebff"/>
      <g id="Group_2733" data-name="Group 2733" transform="translate(9.666 5.153)">
        <path id="Path_2322" data-name="Path 2322" d="M382.078,155.193a.673.673,0,0,1-.439-1.182l4.675-4.039V139.345a.673.673,0,1,1,1.345,0v10.935a.673.673,0,0,1-.233.509l-4.909,4.24A.671.671,0,0,1,382.078,155.193Z" transform="translate(-381.405 -138.672)" fill="#92cefc"/>
      </g>
    </g>
    <rect id="Rectangle_153" data-name="Rectangle 153" width="58.151" height="13.944" transform="translate(326.88 454.627)" fill="#92cefc"/>
    <rect id="Rectangle_154" data-name="Rectangle 154" width="59.956" height="9.744" transform="translate(321.289 444.883)" fill="#abdaff"/>
    <rect id="Rectangle_155" data-name="Rectangle 155" width="57.473" height="12.204" transform="translate(327.129 432.665)" fill="#d1ebff"/>
    <rect id="Rectangle_156" data-name="Rectangle 156" width="57.473" height="4.276" transform="translate(327.129 440.593)" fill="#92cefc"/>
    <path id="Path_2328" data-name="Path 2328" d="M85.317,336.542l1.011.213a19.894,19.894,0,0,0,.519-13.271c-2.978-8.807-4.408-19.9-10.107-28.226-7.785-11.377-9.654-36.116-9.654-36.116s-9.477,19.625-3.018,38.124,14.1,23.346,17.965,26.958C86.159,328.082,86.077,333.085,85.317,336.542Z" transform="translate(15.317 184.932)" fill="#d1ebff"/>
    <path id="Path_2329" data-name="Path 2329" d="M85.956,336.587l.8.168a19.893,19.893,0,0,0,.519-13.271c-2.978-8.807-4.408-19.9-10.107-28.226-7.785-11.377-9.654-36.116-9.654-36.116s-5.239,26.449.829,35.764,6.345,7.047,10.706,15.9,5.739,11.362,7.064,16.506A21.371,21.371,0,0,1,85.956,336.587Z" transform="translate(14.894 184.932)" fill="#abdaff"/>
    <path id="Path_2330" data-name="Path 2330" d="M93.857,343.025s1.937-2.889.8-13.677-4.239-21.1-2.5-32.868,14.569-41.6,14.636-43.571,3.4,34.333-3.225,48.8-7.461,19.451-7.273,26.981-.242,13.607-.97,15.374Z" transform="translate(11.803 185.675)" fill="#d1ebff"/>
    <path id="Path_2331" data-name="Path 2331" d="M95.315,321.261c.686,4.809.982,16.895-.251,19.815-.115.272-.273.122-.467-.374a39.445,39.445,0,0,0,.06-11.345c-1.135-10.787-4.238-21.1-2.5-32.868s14.569-41.6,14.636-43.571c0,0-2.194,24.684-8.73,41.777A50.349,50.349,0,0,0,95.315,321.261Z" transform="translate(11.803 185.665)" fill="#abdaff"/>
    <path id="Path_2332" data-name="Path 2332" d="M101.805,343.649s-5.62-15.482,3.769-28.832,24.42-30.482,24.7-37.29c0,0,3.989,32.345-8.26,41.449s-20.857,10.531-18.679,24.621Z" transform="translate(10.802 182.766)" fill="#d1ebff"/>
    <path id="Path_2333" data-name="Path 2333" d="M115.136,312.45c-13.656,11.034-14.731,23.8-12.586,29.732a1.43,1.43,0,0,0,.895.9c-1.883-13.6,6.653-15.111,18.749-24.1,12.249-9.1,8.26-41.449,8.26-41.449S128.792,301.415,115.136,312.45Z" transform="translate(10.619 182.766)" fill="#abdaff"/>
    <path id="Path_2334" data-name="Path 2334" d="M76.743,349.629l-3.089-11.172c-11.5-40.8-43.7-42.157-43.7-42.157,3.365.67,20.835,13.99,23.541,25.843,1.271,5.566,6.958,9.519,11.98,12.136a14.929,14.929,0,0,1,7.42,9.147c.959,3.361,1.464,6.342,1.464,6.342Z" transform="translate(19.071 180.554)" fill="#d1ebff"/>
    <path id="Path_2335" data-name="Path 2335" d="M59.238,322.707c3.763,7.22,8.611,10.155,12.958,11.145C59.663,297.574,29.957,296.3,29.957,296.3a12.722,12.722,0,0,1,3.439,1.786C39.587,301.544,52.59,309.954,59.238,322.707Z" transform="translate(19.071 180.554)" fill="#abdaff"/>
    <path id="Path_2336" data-name="Path 2336" d="M105.16,345.647H71.511a6.457,6.457,0,0,0-6.358,7.585L71.2,387.3a5.023,5.023,0,0,0,4.945,4.146h24.39a5.022,5.022,0,0,0,4.945-4.146l6.043-34.072A6.458,6.458,0,0,0,105.16,345.647Z" transform="translate(14.936 174.74)" fill="#d1ebff"/>
    <path id="Path_2337" data-name="Path 2337" d="M111.409,350.349a6.459,6.459,0,0,0-6.215-4.7H71.544a6.459,6.459,0,0,0-6.216,4.7Z" transform="translate(14.903 174.74)" fill="#abdaff"/>
    <path id="Path_2338" data-name="Path 2338" d="M108.753,345.647h-8.585a6.457,6.457,0,0,1,6.358,7.585L100.483,387.3a5.023,5.023,0,0,1-4.945,4.146h8.584a5.023,5.023,0,0,0,4.946-4.146l6.043-34.072A6.458,6.458,0,0,0,108.753,345.647Z" transform="translate(11.344 174.74)" fill="#abdaff"/>
    <path id="Path_2339" data-name="Path 2339" d="M359.075,217.353c2.9.5,16.68,2.854,19.375,4.729,2.315,1.61,13.53,34.415,11.165,36.123s-16.419,3.283-16.419,3.283l1.576,11.842-16.085,3.66a29.28,29.28,0,0,1-11.755.254L333.4,274.775l2.759-34.173-18.016,10.347a2.72,2.72,0,0,1-3.641-1.1l-19.192-33.186,5.425-2.562,16.507,19.8,15.894-12.61s3.58-2.5,16.748-3.613Z" transform="translate(-12.193 190.239)" fill="#fe9800"/>
    <path id="Path_2340" data-name="Path 2340" d="M299.573,213.693s-2.789-5.717-3.786-6S295.7,210,295.7,210s-3.475-2.663-6.219-2.285,5.065,5.321,5.839,7.981C295.319,215.694,299.743,213.712,299.573,213.693Z" transform="translate(-11.438 190.996)" fill="#ffa683"/>
    <rect id="Rectangle_157" data-name="Rectangle 157" width="34.193" height="22.588" rx="3.165" transform="translate(334.664 447.461) rotate(180)" fill="#031f40"/>
    <path id="Path_2341" data-name="Path 2341" d="M335.288,262.385H359.5a2.362,2.362,0,0,0,2.362-2.362v.258a2.363,2.363,0,0,0-2.362-2.363H335.288a2.363,2.363,0,0,0-2.362,2.363v-.258A2.363,2.363,0,0,0,335.288,262.385Z" transform="translate(-16.626 185.076)" fill="#031f40"/>
    <path id="Path_2342" data-name="Path 2342" d="M356.136,257.918v1.674a2.794,2.794,0,0,1-2.774,2.793H350.6a2.793,2.793,0,0,0,2.772-2.793v-1.674Z" transform="translate(-18.708 185.076)" fill="#e6e1ef"/>
    <path id="Path_2343" data-name="Path 2343" d="M328.413,251.227a3.9,3.9,0,1,1,3.9,3.9A3.9,3.9,0,0,1,328.413,251.227Z" transform="translate(-16.094 186.324)" fill="#d1ebff"/>
    <path id="Path_2344" data-name="Path 2344" d="M380.858,248.838l-3.264-14.066,6.277,16.394a2.418,2.418,0,0,1-1.8,3.283L365.65,258.17l12.845-5.019A3.593,3.593,0,0,0,380.858,248.838Z" transform="translate(-20.481 187.803)" fill="#7327cc" opacity="0.42" style="mix-blend-mode: multiply;isolation: isolate"/>
    <path id="Path_2345" data-name="Path 2345" d="M380.745,266.627,361.557,268.3l-.264-6.594,20.259-4.625Z" transform="translate(-19.968 185.175)" fill="#fe9800"/>
    <path id="Path_2346" data-name="Path 2346" d="M373.348,270.74c.449.2.985,5.722,1.384,10.74l7.625-1.735L380.78,267.9l-19.188,1.669S372.519,270.363,373.348,270.74Z" transform="translate(-20.003 183.899)" fill="#7327cc" opacity="0.42" style="mix-blend-mode: multiply;isolation: isolate"/>
    <path id="Path_2347" data-name="Path 2347" d="M360.5,267.39s-3.372,1.1-7.58-3.127a.72.72,0,0,1,.5-1.228l6.811-.054Z" transform="translate(-18.957 184.479)" fill="#ffa683"/>
    <g id="Group_2745" data-name="Group 2745" transform="translate(311.821 463.937)">
      <path id="Path_2348" data-name="Path 2348" d="M377.049,375.241l-9.5-.143c-1.813-6.555-10.875-75.63-10.875-75.63l-11.821,25.217,5.8,50.386-8.871.055s-13.933-43.551-13.933-52.614c0-6.908,6.963-29.25,10.275-39.5l.266-.068,12.38,2.256a29.194,29.194,0,0,0,11.753-.252L377,281.658l.027.014C378.467,300.586,377.049,375.241,377.049,375.241Z" transform="translate(-327.849 -281.658)" fill="#031f40"/>
      <path id="Path_2349" data-name="Path 2349" d="M382.78,375.242s.685-34.094.644-61.727v-.069q0-.905,0-1.8c0-.251,0-.5,0-.747,0-.366,0-.734,0-1.1-.045-11.987-.228-22.494-.657-28.125l-6.27,1.427h0l2.958,92,3.216.132Z" transform="translate(-333.58 -281.66)" fill="#02287e" opacity="0.35" style="mix-blend-mode: multiply;isolation: isolate"/>
      <path id="Path_2350" data-name="Path 2350" d="M349.765,377.535l2.43-.085-5.8-50.386,11.821-25.217-17.3,24.624Z" transform="translate(-329.389 -284.037)" fill="#021635"/>
    </g>
    <path id="Path_2351" data-name="Path 2351" d="M342.823,387.56c-2.126,4.258-12.067,6.332-12.067,6.332a2.73,2.73,0,0,0,.392,2.862c1.12,1.606,11.57.72,12.882.44a4.553,4.553,0,0,0,2.221-1.333,7.294,7.294,0,0,0,1.359,1.2c.489.24,3.159-.271,3.159-.271.642-1.7.073-8.2-.1-9.233Z" transform="translate(-16.343 169.801)" fill="#070707"/>
    <path id="Path_2352" data-name="Path 2352" d="M371.88,387.56c-2.125,4.258-12.066,6.332-12.066,6.332a2.73,2.73,0,0,0,.392,2.862c1.119,1.606,11.57.72,12.882.44a4.559,4.559,0,0,0,2.221-1.333,7.279,7.279,0,0,0,1.359,1.2c.489.24,3.16-.271,3.16-.271.642-1.7.073-8.2-.1-9.233Z" transform="translate(-19.766 169.801)" fill="#070707"/>
    <path id="Path_2353" data-name="Path 2353" d="M365.233,208.669v7.958l-4.688,3.352-3.162-3.045.075-3.264a6.005,6.005,0,0,0,1.22.123,6.632,6.632,0,0,0,6.357-5.137A.994.994,0,0,0,365.233,208.669Z" transform="translate(-19.507 190.88)" fill="#ffa683"/>
    <path id="Path_2354" data-name="Path 2354" d="M366.421,202.354a1.5,1.5,0,0,0-2-.19l-.041.046c-2.749-.652-6.582-3.57-6.582-3.57a45.514,45.514,0,0,1-6.4,2.97v4.127a6.729,6.729,0,0,0,6.57,6.878,6.633,6.633,0,0,0,6.358-5.141C366.589,207.786,367.335,203.331,366.421,202.354Z" transform="translate(-18.802 192.06)" fill="#ffa683"/>
    <path id="Path_2355" data-name="Path 2355" d="M363.932,209.268l-.013-.007v-3.1c2.1.041,2.78-4.183,1.894-5.137a1.508,1.508,0,0,0-2-.191.335.335,0,0,1-.041.048,61.219,61.219,0,0,1-6.562-2.157,11.018,11.018,0,0,1-6.418,1.557,5.916,5.916,0,0,1-4.552-6.323c.15-4.893,13.307-10.595,20.584-2.617C369.669,194.455,371.345,207.974,363.932,209.268Z" transform="translate(-18.193 193.388)" fill="#070707"/>
    <path id="Path_2356" data-name="Path 2356" d="M358.678,213.793a6.265,6.265,0,0,1-1.221-.133l-.073,3.275,2.037,1.965v-3.838c5.253,0,5.614-6.4,5.614-6.4A6.632,6.632,0,0,1,358.678,213.793Z" transform="translate(-19.507 190.88)" fill="#f48260"/>
    <path id="Path_2357" data-name="Path 2357" d="M364.455,202.586a.334.334,0,0,1-.041.048,8.54,8.54,0,0,1-1.186-.389c.129,1.665.184,5.82-2.054,8.061-.537-.692-1.8-2.16-2.97-2.388a13.516,13.516,0,0,0-3.627.046,1.665,1.665,0,0,0-.943.443l-1.143,1.081a6.6,6.6,0,0,1-.778-1.335,6.5,6.5,0,0,0,12.653-.252,1.434,1.434,0,0,0,.545-.034v-.007Zm-5.308,7.875c-2.727,1.271-4.616.25-5.123-.387a.383.383,0,0,1,.024-.5l.462-.5c.525-.575,2.22-.363,2.927-.363a2.608,2.608,0,0,1,1.726,1.075C359.332,209.965,359.358,210.363,359.147,210.462Z" transform="translate(-18.839 191.635)" fill="#070707"/>
    <path id="Path_2358" data-name="Path 2358" d="M268.952,374.381c-1.173-34.82-5.77-98.591-5.77-98.591H228.46s-4.6,63.771-5.771,98.591h9.879s11.22-74.9,13.395-81.754c2.176,6.855,13.111,81.754,13.111,81.754Z" transform="translate(-3.637 182.97)" fill="#02287e"/>
    <path id="Path_2359" data-name="Path 2359" d="M273.371,374.381h-3.094l-10.09-98.591H267.6S272.2,339.564,273.371,374.381Z" transform="translate(-8.056 182.97)" fill="#5725a5"/>
    <path id="Path_2360" data-name="Path 2360" d="M273.371,374.381h-3.094l-10.09-98.591H267.6S272.2,339.564,273.371,374.381Z" transform="translate(-8.056 182.97)" fill="#062459"/>
    <path id="Path_2361" data-name="Path 2361" d="M222.3,387.56c-2.125,4.258-12.067,6.332-12.067,6.332a2.729,2.729,0,0,0,.393,2.862c1.119,1.606,11.569.72,12.881.44a4.559,4.559,0,0,0,2.222-1.333,7.28,7.28,0,0,0,1.359,1.2c.489.24,3.159-.271,3.159-.271.643-1.7.074-8.2-.1-9.233Z" transform="translate(-2.142 169.801)" fill="#070707"/>
    <path id="Path_2362" data-name="Path 2362" d="M272.608,387.56c2.125,4.258,12.066,6.332,12.066,6.332a2.73,2.73,0,0,1-.392,2.862c-1.119,1.606-11.57.72-12.882.44a4.559,4.559,0,0,1-2.221-1.333,7.3,7.3,0,0,1-1.359,1.2c-.489.24-3.159-.271-3.159-.271-.642-1.7-.073-8.2.1-9.233Z" transform="translate(-8.547 169.801)" fill="#070707"/>
    <path id="Path_2363" data-name="Path 2363" d="M254.657,213.168l-2.355-.685H244l-2.355.685-5.868,54.968h24.754Z" transform="translate(-5.179 190.429)" fill="#fff"/>
    <path id="Path_2364" data-name="Path 2364" d="M238.82,213.26s-14.573,4.059-16.92,7.433c-2.2,3.156-10.6,20.408-10.041,30.68a1.913,1.913,0,0,0,2.158,1.8l11.11-2.452-4.01,22.153s11.443,2.3,17.9,1.907Z" transform="translate(-2.358 190.338)" fill="#7be493"/>
    <path id="Path_2365" data-name="Path 2365" d="M257.165,213.26s14.574,4.059,16.921,7.433c2.2,3.156,10.827,19.719,10.265,29.991a1.912,1.912,0,0,1-2.157,1.8l-11.336-1.763,4.01,22.153s-11.354,2.592-17.809,2.2Z" transform="translate(-7.687 190.338)" fill="#7be493"/>
    <path id="Path_2366" data-name="Path 2366" d="M253.424,218.636l-4.077-2.272-3.783,2.272,2.413,3.336s-2.307,34.082-2.4,37.721c-.013.547,1.427,2.329,2.74,3.837.363.417.716.813,1.026,1.156.31-.343.663-.738,1.026-1.156,1.314-1.508,2.753-3.29,2.74-3.837-.09-3.639-2.137-37.59-2.137-37.59Z" transform="translate(-6.333 189.972)" fill="#02287e"/>
    <path id="Path_2367" data-name="Path 2367" d="M226.007,253.888l34.331-5.771-1.858-7.971-39.172,3.815Z" transform="translate(-3.239 187.17)" fill="#7be493"/>
    <path id="Path_2368" data-name="Path 2368" d="M265.048,247.27s5.021-1.63,6.716-1.369.913-5.575-8.053-5.754Z" transform="translate(-8.471 187.17)" fill="#ffa683"/>
    <path id="Path_2369" data-name="Path 2369" d="M238.516,241.978a9.744,9.744,0,0,0-7.385-2.592c-2.484.216-4.352,3.717-4.352,3.717Z" transform="translate(-4.119 187.263)" fill="#ffa683"/>
    <path id="Path_2370" data-name="Path 2370" d="M225.184,263.788l15.271-10.673-13.755,2.3Z" transform="translate(-3.931 185.642)" fill="#441982" opacity="0.35" style="mix-blend-mode: multiply;isolation: isolate"/>
    <path id="Path_2371" data-name="Path 2371" d="M226.412,242.457l-2.752-.071,5.576-8.515Z" transform="translate(-3.752 187.909)" fill="#441982" opacity="0.35" style="mix-blend-mode: multiply;isolation: isolate"/>
    <path id="Path_2372" data-name="Path 2372" d="M272.906,245.314s2.849.057,3.151-.4-3.579-9.98-3.579-9.98S275.337,244.5,272.906,245.314Z" transform="translate(-9.504 187.783)" fill="#441982" opacity="0.35" style="mix-blend-mode: multiply;isolation: isolate"/>
    <path id="Path_2373" data-name="Path 2373" d="M274.874,277.556,272.6,265.008h0l-1.739-9.605-13.753-2.4v.775l10.1,7.318,2.989,17.392C272.931,278,274.874,277.556,274.874,277.556Z" transform="translate(-7.693 185.654)" fill="#441982" opacity="0.35" style="mix-blend-mode: multiply;isolation: isolate"/>
    <path id="Path_2374" data-name="Path 2374" d="M246.745,294.862h0a10.586,10.586,0,0,0-3.643,6.308l-13.146,75.459h3.468S242.675,313.626,246.745,294.862Z" transform="translate(-4.494 180.723)" fill="#062459"/>
    <path id="Path_2375" data-name="Path 2375" d="M252.991,211.2l-3.472,2.113-3.7-2.113v-6.93h7.171Z" transform="translate(-6.363 191.397)" fill="#ffa683"/>
    <path id="Path_2376" data-name="Path 2376" d="M239.454,196.187s-1.437-5.366.042-8.071,3.992-5.708,6.443-4.017c0,0,1.474-1.935,6.671-.667s7.76,1.3,9.62.333.437,8.577-3.409,9.127c0,0-.31,2.493-1.071,3.38s-10.057,1.352-10.057,1.352Z" transform="translate(-5.539 193.903)" fill="#070707"/>
    <path id="Path_2377" data-name="Path 2377" d="M247.283,190.04c-.268-.3-.8,1-2.041,2.083a14.825,14.825,0,0,1-3.44,2.108v5.174s1.073,7.029,7.4,7.029c5.22,0,7.09-7,7.09-7v-6.056S250.072,193.152,247.283,190.04Z" transform="translate(-5.889 193.079)" fill="#ffa683"/>
    <path id="Path_2378" data-name="Path 2378" d="M252.99,207.385v1.424a5.553,5.553,0,0,1-3.313,1.095,6.732,6.732,0,0,1-3.857-1.119v-1.423a6.732,6.732,0,0,0,3.857,1.119A5.556,5.556,0,0,0,252.99,207.385Z" transform="translate(-6.363 191.033)" fill="#f48260"/>
    <path id="Path_2379" data-name="Path 2379" d="M244.529,198.32a2.527,2.527,0,0,0-5.054,0,3.282,3.282,0,0,0,2.927,2.946C243.8,201.265,244.529,199.715,244.529,198.32Z" transform="translate(-5.615 192.395)" fill="#ffa683"/>
    <path id="Path_2380" data-name="Path 2380" d="M255.5,198.32a2.527,2.527,0,0,1,5.054,0,3.282,3.282,0,0,1-2.927,2.946C256.229,201.265,255.5,199.715,255.5,198.32Z" transform="translate(-7.503 192.395)" fill="#ffa683"/>
    <path id="Path_2381" data-name="Path 2381" d="M134.257,389.581v5.7a2.521,2.521,0,0,1-2.378,2.643H114.62a1.056,1.056,0,0,1-.508-1.9c2.28-1.638,9.827-3.988,12.219-5.62Z" transform="translate(9.206 169.563)" fill="#070707"/>
    <path id="Path_2382" data-name="Path 2382" d="M140.528,324.775c-1.138,15.248-4.176,55.1-4.96,57.335-.968,2.767-8.6,1.288-8.115.491a5.378,5.378,0,0,0,2.623-2.638c.314-.674.2-4.878.15-5.614-.483-6.758-2.95-41.514-3.645-51.987A65.339,65.339,0,0,0,140.528,324.775Z" transform="translate(7.687 177.483)" fill="#ffa683"/>
    <path id="Path_2383" data-name="Path 2383" d="M150.4,389.581v5.7a2.521,2.521,0,0,0,2.378,2.643h17.259a1.056,1.056,0,0,0,.508-1.9c-2.28-1.638-9.827-3.988-12.219-5.62Z" transform="translate(4.88 169.563)" fill="#070707"/>
    <path id="Path_2384" data-name="Path 2384" d="M158.094,382.681c.476.8-7.147,2.275-8.115-.491-.777-2.227-3.808-41.95-4.953-57.253a44.224,44.224,0,0,0,13.9-1.9c-.75,11.126-3.141,44.758-3.612,51.394-.048.737-.156,4.94.15,5.614A5.35,5.35,0,0,0,158.094,382.681Z" transform="translate(5.513 177.404)" fill="#ffa683"/>
    <path id="Path_2385" data-name="Path 2385" d="M122.863,270.4l.13.191-.79,1.669C122.427,271.585,122.652,270.964,122.863,270.4Z" transform="translate(8.202 183.605)" fill="#ba95f4"/>
    <path id="Path_2386" data-name="Path 2386" d="M129.445,224.048" transform="translate(7.349 189.066)" fill="#ba95f4"/>
    <path id="Path_2387" data-name="Path 2387" d="M162.24,313.436c-19.112,10.588-43.163,0-43.163,0a82.463,82.463,0,0,1,2.562-41.746l.013-.027c.225-.675.45-1.295.661-1.861a40.861,40.861,0,0,1,1.846-4.306h.014c1.036.682,13.838,8.7,31.287,0h.333a.252.252,0,0,0-.02-.034c-.013-.027-.027-.055-.048-.1-.006-.007-.006-.02-.013-.027h.116C164.775,288.022,162.24,313.436,162.24,313.436Z" transform="translate(8.752 184.202)" fill="#55c595"/>
    <path id="Path_2388" data-name="Path 2388" d="M166.632,313.436a36.992,36.992,0,0,1-10.67,3.843c4.661-12.523.408-40.588-1.151-49.67a39.984,39.984,0,0,0,5.042-2.113h.333a.252.252,0,0,0-.02-.034c-.013-.027-.027-.055-.048-.1-.006-.007-.006-.02-.013-.027h.116C169.167,288.022,166.632,313.436,166.632,313.436Z" transform="translate(4.36 184.202)" fill="#441982" opacity="0.35" style="mix-blend-mode: multiply;isolation: isolate"/>
    <path id="Path_2389" data-name="Path 2389" d="M140.527,324.775c-1.138,15.242-4.176,55.1-4.96,57.335a2.463,2.463,0,0,1-1.915,1.4c3.039-10.119,2.764-57.448,2.764-57.448-3.168.1-7.113-1.492-9.79-2.677-.075-1.138.009-.174-.052-1.019A65.323,65.323,0,0,0,140.527,324.775Z" transform="translate(7.687 177.483)" fill="#f48260"/>
    <path id="Path_2390" data-name="Path 2390" d="M155.463,380.043c-.306-.674-.2-4.878-.15-5.614.477-6.636,2.862-40.274,3.612-51.394-.562.176-1.125.33-1.688.479-.3.079-.6.153-.9.225q-.492.118-.984.222a46.411,46.411,0,0,1-10.326.975c.027.361.056.74.085,1.127a81.689,81.689,0,0,0,9.621-.507c-.454,8.667-2.668,52.637-1.142,55.591.437.858,1.778,1.587,3.509,2.2.7-.211,1.118-.463,1-.667A5.35,5.35,0,0,1,155.463,380.043Z" transform="translate(5.513 177.404)" fill="#f48260"/>
    <path id="Path_2391" data-name="Path 2391" d="M192.992,216.864s3-4.719,3.895-4.869-.149,2.022-.149,2.022,3.295-1.985,5.655-1.385-4.945,4.15-5.882,6.4C196.511,219.029,192.843,216.864,192.992,216.864Z" transform="translate(-0.138 190.487)" fill="#ffa683"/>
    <path id="Path_2392" data-name="Path 2392" d="M126.514,274.765c0-.384-3.627-3.394-3.876-3.546-.034-.048-.064-.1-.1-.146l-2.309,4.82s5.58,4.683,6.133,4.223c.377-.314-.955-2.411-1.922-5.248C125.4,274.746,126.514,275.036,126.514,274.765Z" transform="translate(8.435 183.526)" fill="#ffa683"/>
    <path id="Path_2393" data-name="Path 2393" d="M154.892,237.915a9.274,9.274,0,0,1,1.023,4.655,6.228,6.228,0,0,1-1.906,4.009,7.365,7.365,0,0,0-.63.713c-.046.056-.089.115-.131.173-3.35,4.57-.173,11.185.347,12.194l.052.1a.181.181,0,0,0,.017.033h-.332c-17.449,8.7-30.253.684-31.29,0h-.069a.306.306,0,0,0,.017-.033c.288-.538,3.892-7.526.4-12.292a7.489,7.489,0,0,0-.76-.886c-2.8-2.8-2.018-7.3-.852-9.73l-9.685,13.65,9.223,13.788-2.675,5.626s-18.445-17.477-18.168-18.767,14.756-26.93,19.553-30.343,14.387-3.873,14.387-3.873h7.009a23.02,23.02,0,0,1,13.028,3.78l12.179,12.146,15.9-15.675,4.223,2.561s-14.364,19.454-19.473,25.28a2.307,2.307,0,0,1-3.283.195Z" transform="translate(10.881 189.906)" fill="#d43e3f"/>
    <path id="Path_2394" data-name="Path 2394" d="M171.791,244.044c-3,2.315-15.712-13.828-13.677-10.286s-1.583,8.138-4.823,16.05c-2.8,6.836.136,11.419.987,12.54a40.744,40.744,0,0,0,5.256-2.182h.332a.183.183,0,0,1-.017-.033l-.052-.1c-.52-1.009-3.7-7.625-.347-12.194.042-.058.086-.116.131-.173a7.361,7.361,0,0,1,.63-.713,6.228,6.228,0,0,0,1.905-4.009,9.274,9.274,0,0,0-1.023-4.655l8.1,7.3a2.307,2.307,0,0,0,3.283-.195c5.11-5.826,19.473-25.28,19.473-25.28C191.907,219.869,175.155,241.451,171.791,244.044Z" transform="translate(4.679 189.53)" fill="#c41e26"/>
    <g id="Group_2746" data-name="Group 2746" transform="translate(119.436 419.859)">
      <path id="Path_2395" data-name="Path 2395" d="M121.989,238.589s1.785-5.577,2.953-6.9c0,0-14.469,18.5-15.146,20.61s11.732,13.723,11.732,13.723L112.3,252.239Z" transform="translate(-109.769 -231.693)" fill="#c41e26"/>
      <path id="Path_2396" data-name="Path 2396" d="M123.514,239.51a11.148,11.148,0,0,0-.8,2.4Z" transform="translate(-111.293 -232.614)" fill="#c41e26"/>
    </g>
    <g id="Group_2747" data-name="Group 2747" transform="translate(110.373 407.047)" opacity="0.25" style="mix-blend-mode: overlay;isolation: isolate">
      <path id="Path_2397" data-name="Path 2397" d="M147.424,217.17h-12.9a44.985,44.985,0,0,0-5.377.943H151.6A24.45,24.45,0,0,0,147.424,217.17Z" transform="translate(-102.989 -217.17)" fill="#fff"/>
      <path id="Path_2398" data-name="Path 2398" d="M192.364,217.214l-.917.9h2.409Z" transform="translate(-110.329 -217.175)" fill="#fff"/>
      <path id="Path_2399" data-name="Path 2399" d="M194.238,222.7H186.8l-.957.944h7.7Z" transform="translate(-109.668 -217.821)" fill="#fff"/>
      <path id="Path_2400" data-name="Path 2400" d="M157.083,222.7H120.038c-.266.285-.541.595-.833.944H158.03Z" transform="translate(-101.817 -217.821)" fill="#fff"/>
      <path id="Path_2401" data-name="Path 2401" d="M189.934,228.223h-8.743l-.958.944h8.992Z" transform="translate(-109.008 -218.472)" fill="#fff"/>
      <path id="Path_2402" data-name="Path 2402" d="M161.49,228.223H115.764q-.323.462-.653.944h47.325Z" transform="translate(-101.335 -218.472)" fill="#fff"/>
      <path id="Path_2403" data-name="Path 2403" d="M165.952,233.75H112.087q-.3.468-.6.943H166.9Z" transform="translate(-100.908 -219.123)" fill="#fff"/>
      <path id="Path_2404" data-name="Path 2404" d="M185.592,233.75H175.584l-.957.943h10.248Z" transform="translate(-108.347 -219.123)" fill="#fff"/>
      <path id="Path_2405" data-name="Path 2405" d="M121.789,239.482c-.109.227-.213.477-.312.738h51.81q.363-.467.731-.944H108.643c-.192.316-.382.63-.572.944h13.194Z" transform="translate(-100.505 -219.775)" fill="#fff"/>
      <path id="Path_2406" data-name="Path 2406" d="M118.09,244.8H105.352l-.549.944h12.618Z" transform="translate(-100.12 -220.426)" fill="#fff"/>
      <path id="Path_2407" data-name="Path 2407" d="M167.874,245.747h8.479c.246-.3.5-.617.761-.944H166.827Z" transform="translate(-107.428 -220.426)" fill="#fff"/>
      <path id="Path_2408" data-name="Path 2408" d="M122.471,245.747h36.152a7.016,7.016,0,0,0-.005-.944h-36.2A9.16,9.16,0,0,0,122.471,245.747Z" transform="translate(-102.196 -220.426)" fill="#fff"/>
      <path id="Path_2409" data-name="Path 2409" d="M114.263,250.33H102.2q-.274.491-.522.944h11.918Z" transform="translate(-99.752 -221.077)" fill="#fff"/>
      <path id="Path_2410" data-name="Path 2410" d="M124.565,250.515a7.472,7.472,0,0,1,.66.759h31.058l.034-.046a7.365,7.365,0,0,1,.63-.713c.061-.061.112-.124.17-.185H124.4C124.456,250.391,124.5,250.455,124.565,250.515Z" transform="translate(-102.429 -221.077)" fill="#fff"/>
      <path id="Path_2411" data-name="Path 2411" d="M111.61,255.857H99.5a3.612,3.612,0,0,0,.6.943h12.149Z" transform="translate(-99.495 -221.728)" fill="#fff"/>
      <path id="Path_2412" data-name="Path 2412" d="M127.152,256.8h27.842c.008-.313.03-.628.066-.943H127.088C127.124,256.172,127.144,256.487,127.152,256.8Z" transform="translate(-102.746 -221.728)" fill="#fff"/>
      <path id="Path_2413" data-name="Path 2413" d="M126.254,262.327H155.7c-.1-.3-.191-.613-.28-.944H126.536C126.447,261.714,126.352,262.029,126.254,262.327Z" transform="translate(-102.648 -222.379)" fill="#fff"/>
      <path id="Path_2414" data-name="Path 2414" d="M115.425,261.383H104.191c.3.307.6.623.915.944h10.95Z" transform="translate(-100.048 -222.379)" fill="#fff"/>
      <path id="Path_2415" data-name="Path 2415" d="M129.884,267.854h21.533q1.237-.416,2.514-.944h-26.32C128.248,267.21,129.012,267.535,129.884,267.854Z" transform="translate(-102.808 -223.03)" fill="#fff"/>
      <path id="Path_2416" data-name="Path 2416" d="M119.33,266.91h-9.67l.956.944h9.345Z" transform="translate(-100.693 -223.03)" fill="#fff"/>
      <path id="Path_2417" data-name="Path 2417" d="M121.416,272.437h-6.1c.342.33.666.643.979.944h4.672Z" transform="translate(-101.359 -223.682)" fill="#fff"/>
    </g>
    <g id="Group_2748" data-name="Group 2748" transform="translate(138.91 388.993)">
      <path id="Path_2418" data-name="Path 2418" d="M144.413,216.459l-3.229,1.965-3.439-1.965v-6.444h6.668Z" transform="translate(-132.539 -198.273)" fill="#ffa683"/>
      <path id="Path_2419" data-name="Path 2419" d="M145.2,212.912V216.8l-.8.485c.028-.166.057-.328.086-.487C144.8,215.027,145.067,213.639,145.2,212.912Z" transform="translate(-133.323 -198.615)" fill="#ffa683"/>
      <path id="Path_2420" data-name="Path 2420" d="M148.817,201.156v4.88s-.979,3.659-3.514,5.491C145.668,209.458,148.386,203.371,148.817,201.156Z" transform="translate(-133.43 -197.23)" fill="#ffa683"/>
      <path id="Path_2421" data-name="Path 2421" d="M144.413,212.91v1.324a5.162,5.162,0,0,1-3.08,1.018,6.267,6.267,0,0,1-3.588-1.041v-1.323a6.26,6.26,0,0,0,3.588,1.041A5.166,5.166,0,0,0,144.413,212.91Z" transform="translate(-132.539 -198.612)" fill="#f48260"/>
      <path id="Path_2422" data-name="Path 2422" d="M147.339,201.491c-.037,0-.071.01-.108.011V199.88s-9.312.584-11-3.156c-.154-.341-2.479,3.95-2.479,3.95v.862a2.348,2.348,0,0,0-1.909,2.305,3.115,3.115,0,0,0,2.151,2.644c.549,1.83,2.208,5.537,6.643,5.537,3.618,0,5.5-3.614,6.23-5.456.034,0,.064.014.1.014a3.052,3.052,0,0,0,2.722-2.739A2.35,2.35,0,0,0,147.339,201.491Z" transform="translate(-131.844 -196.705)" fill="#ffa683"/>
    </g>
    <path id="Path_2423" data-name="Path 2423" d="M146.408,205.218a.237.237,0,0,1,.116-.034,3.051,3.051,0,0,0,2.722-2.737,2.347,2.347,0,0,0-2.35-2.349c-.034,0-.068.006-.109.006v-1.618s-9.311.582-11-3.156c-.149-.345-2.478,3.949-2.478,3.949v.86a2.354,2.354,0,0,0-1.91,2.309,3.121,3.121,0,0,0,2.153,2.641,8.3,8.3,0,0,0,3.054,4.5v2.722c-11.2-6.742-9.908-21.418-4.308-24.188,2.512-1.233,3.731-.227,3.731-.227,8.779-7.723,15.9,1.358,18.048,4.823,2.939,4.748,14.807,35.832,2.487,40.015-22.55,7.655-15.453-20.893-13.294-23.117A12.939,12.939,0,0,0,146.408,205.218Z" transform="translate(7.507 193.683)" fill="#070707"/>
    <path id="Path_2302" data-name="Path 2302" d="M583.679,433.769s6.21-9.214,16.1-4.441c0,0,2.654-8.577,11.644-8.351,6.2.156,11.439,3.341,12.09,12.792Z" transform="translate(-215.992 -177.321)" fill="#eef6fc" opacity="0.3"/>
    <path id="Path_2857" data-name="Path 2857" d="M583.679,433.769s6.21-9.214,16.1-4.441c0,0,2.654-8.577,11.644-8.351,6.2.156,11.439,3.341,12.09,12.792Z" transform="translate(-569.679 -26.268)" fill="#eef6fc" opacity="0.3"/>
    <path id="Path_2856" data-name="Path 2856" d="M583.679,449.435s13.812-20.494,35.817-9.878c0,0,5.9-19.078,25.9-18.574,13.785.347,25.443,7.431,26.892,28.452Z" transform="translate(-520.343 -220.777)" fill="#eef6fc" opacity="0.3"/>
  </g>
</svg>
