<svg xmlns="http://www.w3.org/2000/svg" width="358" height="349.63" viewBox="0 0 358 349.63">
  <g id="Group_3667" data-name="Group 3667" transform="translate(-36 -87.847)">
    <g id="Group_2725" data-name="Group 2725" transform="translate(80.666 206.054)">
      <path id="Path_2311" data-name="Path 2311" d="M69.8,309.5H315.646c7.828-11.962,45.177-71.439,22.467-84.1-25.28-14.1-20.319-17.728-19.742-82.646.627-70.564-41.133-60.907-110.166-35.628s-65.773-5.456-118.774,9.911c-52.771,15.3-4.6,74.817-44.953,119.057C10.69,273.136,54.616,301.312,69.8,309.5Z" transform="translate(-32.008 -88.313)" fill="#eef6fc"/>
      <path id="Path_2312" data-name="Path 2312" d="M170.477,105.152s23.718,17.578,65.926.37S153.835,89.936,170.477,105.152Z" transform="translate(-70.99 -89.696)" fill="#eef6fc"/>
    </g>
    <g id="Background_Complete" data-name="Background Complete" transform="translate(104.716 229.681)">
      <g id="Group_2789" data-name="Group 2789" transform="translate(0 0)">
        <g id="Group_2783" data-name="Group 2783" transform="translate(137.965)">
          <g id="Group_2782" data-name="Group 2782">
            <g id="Group_2781" data-name="Group 2781">
              <rect id="Rectangle_188" data-name="Rectangle 188" width="105.735" height="123.899" fill="#e6e6e6"/>
              <rect id="Rectangle_189" data-name="Rectangle 189" width="105.735" height="123.899" transform="translate(2.354)" fill="#f5f5f5"/>
              <rect id="Rectangle_190" data-name="Rectangle 190" width="105.735" height="4.011" transform="translate(0 123.899)" fill="#e6e6e6"/>
              <rect id="Rectangle_191" data-name="Rectangle 191" width="105.735" height="4.011" transform="translate(6.58 123.899)" fill="#f5f5f5"/>
              <rect id="Rectangle_192" data-name="Rectangle 192" width="116.007" height="97.283" transform="translate(103.864 3.946) rotate(90)" fill="#fafafa"/>
              <path id="Path_2664" data-name="Path 2664" d="M143.414,216.442,160.1,100.435h26.629L170.043,216.442Z" transform="translate(-127.279 -96.489)" fill="#fff"/>
              <path id="Path_2665" data-name="Path 2665" d="M107.663,216.442l16.684-116.007h18.336L126,216.442Z" transform="translate(-58.687 -96.489)" fill="#fff"/>
              <rect id="Rectangle_193" data-name="Rectangle 193" width="116.007" height="1.78" transform="translate(103.864 3.946) rotate(90)" fill="#e6e6e6"/>
              <rect id="Rectangle_194" data-name="Rectangle 194" width="102.239" height="5.297" transform="translate(4.102 103.737)" fill="#f5f5f5"/>
            </g>
          </g>
        </g>
        <g id="Group_2786" data-name="Group 2786" transform="translate(0 6.908)">
          <g id="Group_2784" data-name="Group 2784" transform="translate(0 27.181)">
            <rect id="Rectangle_195" data-name="Rectangle 195" width="16.315" height="163.47" transform="translate(82.008)" fill="#e6e6e6"/>
            <path id="Path_2666" data-name="Path 2666" d="M290.97,378.376h3.1v-8.814h-6.348Z" transform="translate(-195.745 -214.906)" fill="#f0f0f0"/>
            <rect id="Rectangle_196" data-name="Rectangle 196" width="16.315" height="163.47" fill="#e6e6e6"/>
            <rect id="Rectangle_197" data-name="Rectangle 197" width="84.713" height="159.13" transform="translate(13.611)" fill="#f0f0f0"/>
            <path id="Path_2667" data-name="Path 2667" d="M293.927,292.743H327.1a3.231,3.231,0,0,0,3.227-3.228V150.782a3.231,3.231,0,0,0-3.227-3.228H293.927a3.231,3.231,0,0,0-3.228,3.228V289.515A3.231,3.231,0,0,0,293.927,292.743ZM327.1,148.273a2.512,2.512,0,0,1,2.508,2.509V289.515a2.512,2.512,0,0,1-2.508,2.509H293.927a2.513,2.513,0,0,1-2.51-2.509V150.782a2.513,2.513,0,0,1,2.51-2.509Z" transform="translate(-234.051 -145.342)" fill="#e0e0e0"/>
            <path id="Path_2668" data-name="Path 2668" d="M353.625,292.743H386.8a3.231,3.231,0,0,0,3.227-3.228V150.782a3.231,3.231,0,0,0-3.227-3.228H353.625a3.232,3.232,0,0,0-3.228,3.228V289.515A3.231,3.231,0,0,0,353.625,292.743ZM386.8,148.273a2.512,2.512,0,0,1,2.508,2.509V289.515a2.512,2.512,0,0,1-2.508,2.509H353.625a2.513,2.513,0,0,1-2.509-2.509V150.782a2.512,2.512,0,0,1,2.509-2.509Z" transform="translate(-334.742 -145.342)" fill="#e0e0e0"/>
            <path id="Path_2669" data-name="Path 2669" d="M355.572,252.755A2.755,2.755,0,1,0,358.326,250,2.754,2.754,0,0,0,355.572,252.755Z" transform="translate(-309.348 -177.443)" fill="#fafafa"/>
            <path id="Path_2670" data-name="Path 2670" d="M335.215,252.755A2.755,2.755,0,1,0,337.97,250,2.755,2.755,0,0,0,335.215,252.755Z" transform="translate(-275.014 -177.443)" fill="#fafafa"/>
            <path id="Path_2671" data-name="Path 2671" d="M404.944,378.376h-3.1v-8.814h6.348Z" transform="translate(-388.235 -214.906)" fill="#f0f0f0"/>
          </g>
          <g id="Group_2785" data-name="Group 2785" transform="translate(13.399)">
            <path id="Path_2672" data-name="Path 2672" d="M337.492,108.43h25.991l-10.834-3.681H326.658Z" transform="translate(-305.295 -104.749)" fill="#e6e6e6"/>
            <rect id="Rectangle_198" data-name="Rectangle 198" width="25.991" height="23.499" transform="translate(0 3.682)" fill="#ebebeb"/>
            <rect id="Rectangle_199" data-name="Rectangle 199" width="6.945" height="11.297" transform="translate(55.608 15.883)" fill="#ebebeb"/>
            <rect id="Rectangle_200" data-name="Rectangle 200" width="8.604" height="11.297" transform="translate(62.554 15.883)" fill="#f5f5f5"/>
            <path id="Path_2673" data-name="Path 2673" d="M383.76,109H357.769l10.834-2.441h25.991Z" transform="translate(-357.769 -105.315)" fill="#ebebeb"/>
            <rect id="Rectangle_201" data-name="Rectangle 201" width="32.197" height="23.499" transform="translate(25.991 3.682)" fill="#f5f5f5"/>
          </g>
        </g>
        <g id="Group_2788" data-name="Group 2788" transform="translate(151.45 142.124)">
          <path id="Path_2674" data-name="Path 2674" d="M200.18,357.924h-22.29l2.631-53.635H200.18Z" transform="translate(-177.891 -302.488)" fill="#f5f5f5"/>
          <g id="Group_2787" data-name="Group 2787" transform="translate(1.272)">
            <path id="Path_2675" data-name="Path 2675" d="M166.742,357.1H81.152l-5.916-55.435h85.591Z" transform="translate(-75.236 -301.667)" fill="#e6e6e6"/>
            <path id="Path_2676" data-name="Path 2676" d="M163.133,357.1H77.543l-5.916-55.435h85.591Z" transform="translate(-69.149 -301.667)" fill="#f0f0f0"/>
            <path id="Path_2677" data-name="Path 2677" d="M83.628,353.765,78.217,310.6h77.047l5.411,43.162Z" transform="translate(-71.216 -304.467)" fill="#fafafa"/>
          </g>
        </g>
      </g>
    </g>
    <g id="Group_2780" data-name="Group 2780" transform="translate(75.003 187.714)">
      <rect id="Rectangle_186" data-name="Rectangle 186" width="22.537" height="1.016" transform="translate(1.127 80.24) rotate(-92.867)" fill="#407bff"/>
      <rect id="Rectangle_187" data-name="Rectangle 187" width="8.125" height="1.016" transform="translate(1.775 93.022) rotate(-92.867)" fill="#407bff"/>
      <path id="Path_2637" data-name="Path 2637" d="M243.388,341.812h96.759a12.093,12.093,0,0,0,12.161-12.806L341.519,115.091a13.661,13.661,0,0,0-13.453-12.806H231.307a12.093,12.093,0,0,0-12.161,12.806l10.789,213.914A13.661,13.661,0,0,0,243.388,341.812Z" transform="translate(-217.853 -102.285)" fill="#2c88ff"/>
      <path id="Path_2638" data-name="Path 2638" d="M281.765,326.223h29.184a15.356,15.356,0,0,0,15.44-16.257l-5.18-102.7a17.254,17.254,0,0,0-17.023-16.205H275a15.359,15.359,0,0,0-15.441,16.259l5.18,102.7A17.253,17.253,0,0,0,281.765,326.223Zm22.42-134.1a16.172,16.172,0,0,1,15.956,15.192l5.18,102.7a14.289,14.289,0,0,1-14.373,15.138H281.765a16.172,16.172,0,0,1-15.956-15.191l-5.18-102.7A14.289,14.289,0,0,1,275,192.126Z" transform="translate(-230.188 -107.033)" fill="#fff" opacity="0.2"/>
      <path id="Path_2639" data-name="Path 2639" d="M256.626,218.194H281.29a12.092,12.092,0,0,0,12.16-12.806l-1.244-24.664a13.66,13.66,0,0,0-13.452-12.806H254.09a12.093,12.093,0,0,0-12.161,12.806l1.245,24.664A13.66,13.66,0,0,0,256.626,218.194Z" transform="translate(-180.559 -105.795)" opacity="0.1"/>
      <path id="Path_2641" data-name="Path 2641" d="M300.184,319.818h17.573a8.616,8.616,0,0,0,8.664-9.124l-.886-17.573A9.734,9.734,0,0,0,315.95,284H298.377a8.615,8.615,0,0,0-8.664,9.124l.886,17.573A9.733,9.733,0,0,0,300.184,319.818Z" transform="translate(-258.759 -112.003)" opacity="0.1"/>
      <path id="Path_2642" data-name="Path 2642" d="M294.779,314.125h17.573A8.616,8.616,0,0,0,321.016,305l-.887-17.573a9.732,9.732,0,0,0-9.584-9.124H292.972a8.616,8.616,0,0,0-8.664,9.124L285.194,305A9.732,9.732,0,0,0,294.779,314.125Z" transform="translate(-248.237 -111.699)" fill="#fff"/>
      <path id="Path_2643" data-name="Path 2643" d="M237.7,258.461H250.38a6.217,6.217,0,0,0,6.253-6.585l-.64-12.681a7.023,7.023,0,0,0-6.916-6.585H236.394a6.217,6.217,0,0,0-6.253,6.585l.64,12.681A7.024,7.024,0,0,0,237.7,258.461Z" transform="translate(-132.584 -109.255)" fill="#fff"/>
      <path id="Path_2644" data-name="Path 2644" d="M323.637,258.461h12.682a6.217,6.217,0,0,0,6.252-6.585l-.639-12.681a7.024,7.024,0,0,0-6.917-6.585H322.333a6.217,6.217,0,0,0-6.253,6.585l.639,12.681A7.024,7.024,0,0,0,323.637,258.461Z" transform="translate(-299.865 -109.255)" fill="#fff"/>
      <path id="Path_2645" data-name="Path 2645" d="M280.668,258.461h12.681a6.217,6.217,0,0,0,6.253-6.585l-.639-12.681a7.024,7.024,0,0,0-6.917-6.585H279.364a6.217,6.217,0,0,0-6.253,6.585l.64,12.681A7.023,7.023,0,0,0,280.668,258.461Z" transform="translate(-216.225 -109.255)" fill="#fff"/>
      <path id="Path_2646" data-name="Path 2646" d="M245.156,140.868h92.9a6.749,6.749,0,0,0,6.787-7.147l-.009-.171a7.625,7.625,0,0,0-7.509-7.148h-92.9a6.749,6.749,0,0,0-6.787,7.148l.008.171A7.623,7.623,0,0,0,245.156,140.868Z" transform="translate(-227.891 -103.575)" fill="#fff"/>
      <path id="Path_2656" data-name="Path 2656" d="M245.156,140.868h92.9a6.749,6.749,0,0,0,6.787-7.147l-.009-.171a7.625,7.625,0,0,0-7.509-7.148h-92.9a6.749,6.749,0,0,0-6.787,7.148l.008.171A7.623,7.623,0,0,0,245.156,140.868Z" transform="translate(-223.182 -80.796)" fill="#fff"/>
      <path id="Path_2657" data-name="Path 2657" d="M335.986,129.754l-.607,1.37-1.5.22,1.148,1.066-.182,1.506,1.316-.711,1.388.711-.334-1.506,1.04-1.066-1.523-.22Z" transform="translate(-308.901 -78.006)" fill="#407bff"/>
      <path id="Path_2658" data-name="Path 2658" d="M335.986,129.754l-.607,1.37-1.5.22,1.148,1.066-.182,1.506,1.316-.711,1.388.711-.334-1.506,1.04-1.066-1.523-.22Z" transform="translate(-303.913 -78.006)" fill="#407bff"/>
      <path id="Path_2659" data-name="Path 2659" d="M335.986,129.754l-.607,1.37-1.5.22,1.148,1.066-.182,1.506,1.316-.711,1.388.711-.334-1.506,1.04-1.066-1.523-.22Z" transform="translate(-298.926 -78.006)" fill="#407bff"/>
      <path id="Path_2660" data-name="Path 2660" d="M335.986,129.754l-.607,1.37-1.5.22,1.148,1.066-.182,1.506,1.316-.711,1.388.711-.334-1.506,1.04-1.066-1.523-.22Z" transform="translate(-293.939 -78.006)" fill="#407bff"/>
      <path id="Path_2661" data-name="Path 2661" d="M335.986,129.754l-.607,1.37-1.5.22,1.148,1.066-.182,1.506,1.316-.711,1.388.711-.334-1.506,1.04-1.066-1.523-.22Z" transform="translate(-288.951 -78.006)" fill="#407bff"/>
      <path id="Path_2662" data-name="Path 2662" d="M335.986,129.754l-.607,1.37-1.5.22,1.148,1.066-.182,1.506,1.316-.711,1.388.711-.334-1.506,1.04-1.066-1.523-.22Z" transform="translate(-283.964 -78.006)" fill="#407bff"/>
      <path id="Path_2648" data-name="Path 2648" d="M244.848,133.892a2.837,2.837,0,0,0,2.8,2.668,2.513,2.513,0,0,0,2.534-2.668,2.837,2.837,0,0,0-2.8-2.667A2.512,2.512,0,0,0,244.848,133.892Z" transform="translate(-141.002 -118.173)" fill="#407bff" style="mix-blend-mode: overlay;isolation: isolate"/>
      <path id="Path_2649" data-name="Path 2649" d="M252.084,133.892a2.837,2.837,0,0,0,2.8,2.668,2.512,2.512,0,0,0,2.533-2.668,2.836,2.836,0,0,0-2.8-2.667A2.511,2.511,0,0,0,252.084,133.892Z" transform="translate(-155.086 -118.173)" fill="#407bff" style="mix-blend-mode: overlay;isolation: isolate"/>
      <path id="Path_2650" data-name="Path 2650" d="M259.319,133.892a2.837,2.837,0,0,0,2.8,2.668,2.513,2.513,0,0,0,2.534-2.668,2.837,2.837,0,0,0-2.8-2.667A2.512,2.512,0,0,0,259.319,133.892Z" transform="translate(-169.17 -118.173)" fill="#407bff" style="mix-blend-mode: overlay;isolation: isolate"/>
      <path id="Path_2651" data-name="Path 2651" d="M292.025,114.217l-5.362,4.2-.424-8.4Z" transform="translate(-221.074 -102.698)" fill="#fff" opacity="0.2"/>
      <path id="Path_2652" data-name="Path 2652" d="M298.165,114.217l5.786,4.2-.424-8.4Z" transform="translate(-244.288 -102.698)" fill="#fff" opacity="0.2"/>
      <path id="Path_2653" data-name="Path 2653" d="M303.752,175.311h33.795a2.615,2.615,0,0,0,2.63-2.77A2.919,2.919,0,0,0,337.3,169.8H303.5a2.618,2.618,0,0,0-2.631,2.77A2.921,2.921,0,0,0,303.752,175.311Zm33.544-4.98a2.38,2.38,0,0,1,2.349,2.237,2.085,2.085,0,0,1-2.1,2.21H303.752a2.381,2.381,0,0,1-2.349-2.237,2.086,2.086,0,0,1,2.1-2.21Z" transform="translate(-283.073 -105.896)" fill="#fff" opacity="0.2"/>
      <path id="Path_2654" data-name="Path 2654" d="M303.348,183.3h33.794a2.618,2.618,0,0,0,2.631-2.77,2.921,2.921,0,0,0-2.882-2.743H303.1a2.617,2.617,0,0,0-2.631,2.77A2.921,2.921,0,0,0,303.348,183.3Zm33.544-4.981a2.381,2.381,0,0,1,2.349,2.237,2.083,2.083,0,0,1-2.1,2.21H303.348A2.382,2.382,0,0,1,301,180.532a2.086,2.086,0,0,1,2.1-2.21Z" transform="translate(-282.288 -106.323)" fill="#fff" opacity="0.2"/>
      <path id="Path_2655" data-name="Path 2655" d="M243.766,317.33a2.618,2.618,0,0,0,2.63-2.771l-1.7-33.794a2.921,2.921,0,0,0-2.882-2.743,2.618,2.618,0,0,0-2.63,2.77l1.7,33.794A2.921,2.921,0,0,0,243.766,317.33Zm-1.956-38.775a2.383,2.383,0,0,1,2.35,2.237l1.7,33.794h0a2.082,2.082,0,0,1-2.1,2.209,2.382,2.382,0,0,1-2.35-2.237l-1.7-33.794a2.085,2.085,0,0,1,2.1-2.209Zm4.321,36.018h0Z" transform="translate(-130.901 -111.684)" fill="#fff" opacity="0.2"/>
      <text id="Username" transform="translate(25.984 30.507)" fill="#407bff" font-size="3" font-family="Inter-Bold, Inter" font-weight="700"><tspan x="-7.514" y="0">Username</tspan></text>
    </g>
    <g id="Group_2778" data-name="Group 2778" transform="translate(209.475 228.2)">
      <path id="Path_2339" data-name="Path 2339" d="M366.773,217.745c3.248.556,18.694,3.2,21.714,5.3,2.594,1.8,15.163,38.569,12.513,40.483s-18.4,3.68-18.4,3.68l1.767,13.272-18.026,4.1a32.814,32.814,0,0,1-13.174.285L337.994,282.1l3.092-38.3-20.191,11.6a3.048,3.048,0,0,1-4.08-1.235l-21.509-37.192,6.08-2.871,18.5,22.194L337.7,222.162s4.012-2.8,18.77-4.049Z" transform="translate(-288.971 -187.672)" fill="#fe9800"/>
      <path id="Path_2340" data-name="Path 2340" d="M300.862,214.42s-3.125-6.408-4.243-6.725-.1,2.584-.1,2.584-3.894-2.985-6.97-2.561,5.677,5.964,6.544,8.944C296.094,216.663,301.052,214.441,300.862,214.42Z" transform="translate(-288.898 -187.599)" fill="#ffa683"/>
      <path id="Path_2344" data-name="Path 2344" d="M382.694,250.536l-3.658-15.764,7.034,18.372a2.71,2.71,0,0,1-2.023,3.68l-18.4,4.17,14.395-5.625A4.027,4.027,0,0,0,382.694,250.536Z" transform="translate(-289.768 -187.906)" fill="#7327cc" opacity="0.42" style="mix-blend-mode: multiply;isolation: isolate"/>
      <path id="Path_2345" data-name="Path 2345" d="M383.093,267.78l-21.5,1.871-.3-7.39,22.7-5.183Z" transform="translate(-289.719 -188.158)" fill="#fe9800"/>
      <path id="Path_2346" data-name="Path 2346" d="M374.767,271.083c.5.228,1.1,6.413,1.551,12.036l8.545-1.945L383.1,267.9l-21.5,1.871S373.838,270.659,374.767,271.083Z" transform="translate(-289.722 -188.281)" fill="#7327cc" opacity="0.42" style="mix-blend-mode: multiply;isolation: isolate"/>
      <path id="Path_2347" data-name="Path 2347" d="M361.439,267.922s-3.779,1.228-8.495-3.5a.807.807,0,0,1,.564-1.376l7.634-.06Z" transform="translate(-289.621 -188.225)" fill="#ffa683"/>
      <g id="Group_2745" data-name="Group 2745" transform="translate(38.509 93.221)">
        <path id="Path_2348" data-name="Path 2348" d="M382.988,386.538l-10.644-.16c-2.032-7.346-12.187-84.76-12.187-84.76l-13.248,28.261,6.5,56.468-9.942.061s-15.615-48.809-15.615-58.965c0-7.742,7.8-32.781,11.515-44.266l.3-.076,13.875,2.528a32.719,32.719,0,0,0,13.172-.283l16.226-3.689.031.016C384.577,302.871,382.988,386.538,382.988,386.538Z" transform="translate(-327.849 -281.658)" fill="#02287e"/>
        <path id="Path_2349" data-name="Path 2349" d="M383.539,386.537s.767-38.21.722-69.178v-.077q0-1.014,0-2.021c0-.281,0-.558,0-.837,0-.41,0-.823,0-1.23-.05-13.434-.256-25.209-.737-31.52l-7.026,1.6h0l3.315,103.1,3.6.148Z" transform="translate(-328.4 -281.658)" fill="#02287e" opacity="0.35" style="mix-blend-mode: multiply;isolation: isolate"/>
        <path id="Path_2350" data-name="Path 2350" d="M350.833,386.671l2.724-.1-6.5-56.468L360.3,301.848l-19.384,27.6Z" transform="translate(-327.997 -281.887)" fill="#02287e"/>
      </g>
      <path id="Path_2351" data-name="Path 2351" d="M344.308,387.56c-2.383,4.772-13.524,7.1-13.524,7.1a3.059,3.059,0,0,0,.439,3.207c1.255,1.8,12.966.807,14.437.493a5.1,5.1,0,0,0,2.489-1.494,8.177,8.177,0,0,0,1.524,1.348c.548.269,3.54-.3,3.54-.3.72-1.9.082-9.185-.11-10.347Z" transform="translate(-289.37 -189.637)" fill="#070707"/>
      <path id="Path_2352" data-name="Path 2352" d="M373.365,387.56c-2.382,4.772-13.523,7.1-13.523,7.1a3.059,3.059,0,0,0,.439,3.207c1.254,1.8,12.966.807,14.437.493a5.109,5.109,0,0,0,2.489-1.494,8.159,8.159,0,0,0,1.523,1.348c.548.269,3.541-.3,3.541-.3.72-1.9.082-9.185-.11-10.347Z" transform="translate(-289.699 -189.637)" fill="#070707"/>
      <path id="Path_2353" data-name="Path 2353" d="M366.18,208.671v8.919l-5.254,3.757-3.543-3.413.084-3.658a6.731,6.731,0,0,0,1.367.137,7.433,7.433,0,0,0,7.124-5.757A1.113,1.113,0,0,0,366.18,208.671Z" transform="translate(-289.674 -187.61)" fill="#ffa683"/>
      <path id="Path_2354" data-name="Path 2354" d="M368.234,202.8a1.681,1.681,0,0,0-2.241-.213l-.046.051c-3.081-.731-7.376-4-7.376-4a51.006,51.006,0,0,1-7.169,3.329v4.625a7.542,7.542,0,0,0,7.363,7.709,7.434,7.434,0,0,0,7.125-5.762C368.423,208.891,369.258,203.9,368.234,202.8Z" transform="translate(-289.606 -187.496)" fill="#ffa683"/>
      <path id="Path_2355" data-name="Path 2355" d="M366.069,211.912l-.015-.008V208.43c2.359.046,3.115-4.688,2.123-5.757a1.69,1.69,0,0,0-2.245-.214.371.371,0,0,1-.046.053,68.608,68.608,0,0,1-7.354-2.417,12.347,12.347,0,0,1-7.193,1.745,6.63,6.63,0,0,1-5.1-7.086c.168-5.483,14.913-11.874,23.069-2.932C372.5,195.311,374.376,210.461,366.069,211.912Z" transform="translate(-289.548 -187.369)" fill="#070707"/>
      <path id="Path_2356" data-name="Path 2356" d="M358.834,214.413a7.019,7.019,0,0,1-1.368-.149l-.082,3.67,2.283,2.2v-4.3c5.888,0,6.292-7.178,6.292-7.178A7.433,7.433,0,0,1,358.834,214.413Z" transform="translate(-289.674 -187.61)" fill="#f48260"/>
      <path id="Path_2357" data-name="Path 2357" d="M365.993,202.628a.372.372,0,0,1-.046.053,9.568,9.568,0,0,1-1.329-.436c.144,1.866.207,6.522-2.3,9.034-.6-.776-2.013-2.42-3.329-2.676a15.147,15.147,0,0,0-4.064.051,1.865,1.865,0,0,0-1.057.5l-1.281,1.211a7.4,7.4,0,0,1-.872-1.5,7.286,7.286,0,0,0,14.18-.283,1.607,1.607,0,0,0,.611-.039v-.008Zm-5.949,8.826c-3.056,1.425-5.174.28-5.741-.434a.429.429,0,0,1,.027-.558l.518-.564c.588-.645,2.487-.407,3.28-.407a2.923,2.923,0,0,1,1.934,1.205C360.252,210.9,360.281,211.343,360.044,211.453Z" transform="translate(-289.61 -187.537)" fill="#070707"/>
    </g>
    <path id="Path_2861" data-name="Path 2861" d="M583.679,453.126s15.6-23.152,40.461-11.159c0,0,6.668-21.552,29.258-20.983,15.572.392,28.742,8.395,30.379,32.142Z" transform="translate(-547.679 -333.126)" fill="#e4e4e4" opacity="0.3"/>
    <path id="Path_2863" data-name="Path 2863" d="M583.679,439.613s9.045-13.421,23.456-6.469c0,0,3.865-12.494,16.961-12.164,9.028.227,16.662,4.867,17.611,18.633Z" transform="translate(-282.707 -294.613)" fill="#e4e4e4" opacity="0.3"/>
  </g>
</svg>
