<svg xmlns="http://www.w3.org/2000/svg" width="365.481" height="322.182" viewBox="0 0 365.481 322.182">
  <g id="Group_3493" data-name="Group 3493" transform="translate(-14 -200.196)">
    <g id="Group_2725" data-name="Group 2725" transform="translate(40.519 282.547)">
      <path id="Path_2311" data-name="Path 2311" d="M72.891,327.589H338.845c8.469-12.941,48.872-77.282,24.305-90.982-27.348-15.252-21.981-19.178-21.357-89.405.679-76.335-44.5-65.889-119.177-38.542s-71.152-5.9-128.488,10.722C37.042,135.933,89.15,200.319,45.5,248.176,8.947,288.252,56.466,318.733,72.891,327.589Z" transform="translate(-32.008 -88.313)" fill="#eef6fc"/>
      <path id="Path_2312" data-name="Path 2312" d="M170.6,106.131s25.658,19.016,71.318.4S152.6,89.671,170.6,106.131Z" transform="translate(-62.979 -89.412)" fill="#eef6fc" opacity="0.81"/>
    </g>
    <rect id="Rectangle_134" data-name="Rectangle 134" width="54.883" height="49.327" transform="translate(141.637 471.877)" fill="#d1ebff"/>
    <rect id="Rectangle_135" data-name="Rectangle 135" width="11.741" height="46.653" transform="translate(192.405 475.992) rotate(90)" fill="#abdaff"/>
    <rect id="Rectangle_136" data-name="Rectangle 136" width="11.741" height="46.653" transform="translate(192.405 490.781) rotate(90)" fill="#abdaff"/>
    <rect id="Rectangle_137" data-name="Rectangle 137" width="11.741" height="46.653" transform="translate(192.405 506.171) rotate(90)" fill="#abdaff"/>
    <circle id="Ellipse_47" data-name="Ellipse 47" cx="2.332" cy="2.332" r="2.332" transform="translate(166.747 479.868)" fill="#ebedff"/>
    <path id="Path_2313" data-name="Path 2313" d="M192.306,365.465a2.332,2.332,0,1,1-2.332-2.332A2.332,2.332,0,0,1,192.306,365.465Z" transform="translate(-20.896 131.457)" fill="#ebedff"/>
    <path id="Path_2314" data-name="Path 2314" d="M192.306,386.5a2.332,2.332,0,1,1-2.332-2.332A2.332,2.332,0,0,1,192.306,386.5Z" transform="translate(-20.896 126.7)" fill="#ebedff"/>
    <rect id="Rectangle_138" data-name="Rectangle 138" width="101.323" height="69.068" rx="6.858" transform="translate(101.072 328.284)" fill="#fff"/>
    <path id="Rectangle_139" data-name="Rectangle 139" d="M1.737,0H59.406a1.737,1.737,0,0,1,1.737,1.737V91.661A1.737,1.737,0,0,1,59.406,93.4H1.738A1.738,1.738,0,0,1,0,91.66V1.737A1.737,1.737,0,0,1,1.737,0Z" transform="translate(198.433 332.246) rotate(90)" fill="#d1ebff"/>
    <path id="Path_2315" data-name="Path 2315" d="M219.143,153.339H192.769c1.424,6.858,6.8,29.354,18.008,40.564h9.712v-39.22A1.347,1.347,0,0,0,219.143,153.339Z" transform="translate(-22.056 178.907)" fill="#abdaff"/>
    <path id="Path_2316" data-name="Path 2316" d="M216.041,205.759v5.96h9.554l.157-5.96Z" transform="translate(-27.319 167.051)" fill="#92cefc"/>
    <path id="Path_2317" data-name="Path 2317" d="M224.343,226.736V213.552l-.158-.091h-9.554s-4.558,11.788-4.821,14.549l.159.07H223A1.347,1.347,0,0,0,224.343,226.736Z" transform="translate(-25.91 165.309)" fill="#abdaff"/>
    <path id="Path_2318" data-name="Path 2318" d="M109.5,153.339h26.374c-1.424,6.858-6.8,29.354-18.008,40.564h-9.711v-39.22A1.346,1.346,0,0,1,109.5,153.339Z" transform="translate(-2.918 178.907)" fill="#abdaff"/>
    <path id="Path_2319" data-name="Path 2319" d="M117.868,205.759v5.96h-9.554l-.157-5.96Z" transform="translate(-2.919 167.051)" fill="#92cefc"/>
    <path id="Path_2320" data-name="Path 2320" d="M108.157,226.736V213.552l.158-.091h9.554s4.558,11.788,4.821,14.549l-.159.07H109.5A1.346,1.346,0,0,1,108.157,226.736Z" transform="translate(-2.918 165.309)" fill="#abdaff"/>
    <rect id="Rectangle_149" data-name="Rectangle 149" width="159.445" height="5.821" transform="translate(199.272 435.521)" fill="#abdaff"/>
    <rect id="Rectangle_150" data-name="Rectangle 150" width="136.855" height="80.149" transform="translate(208.974 441.342)" fill="#d1ebff"/>
    <rect id="Rectangle_151" data-name="Rectangle 151" width="136.855" height="8.548" transform="translate(208.974 441.342)" fill="#92cefc"/>
    <circle id="Ellipse_48" data-name="Ellipse 48" cx="17.962" cy="17.962" r="17.962" transform="translate(296.033 329.605) rotate(-45)" fill="#abdaff"/>
    <g id="Group_2734" data-name="Group 2734" transform="translate(308.206 316.377)">
      <circle id="Ellipse_49" data-name="Ellipse 49" cx="13.229" cy="13.229" r="13.229" fill="#d1ebff"/>
      <g id="Group_2733" data-name="Group 2733" transform="translate(8.478 4.52)">
        <path id="Path_2322" data-name="Path 2322" d="M382,153.164a.59.59,0,0,1-.385-1.037l4.1-3.543v-9.322a.59.59,0,1,1,1.18,0v9.592a.59.59,0,0,1-.2.447l-4.306,3.719A.589.589,0,0,1,382,153.164Z" transform="translate(-381.405 -138.672)" fill="#92cefc"/>
      </g>
    </g>
    <rect id="Rectangle_153" data-name="Rectangle 153" width="51.008" height="12.232" transform="translate(288.45 423.376)" fill="#92cefc"/>
    <rect id="Rectangle_154" data-name="Rectangle 154" width="52.592" height="8.547" transform="translate(283.546 414.829)" fill="#abdaff"/>
    <rect id="Rectangle_155" data-name="Rectangle 155" width="50.414" height="10.705" transform="translate(288.669 404.112)" fill="#d1ebff"/>
    <rect id="Rectangle_156" data-name="Rectangle 156" width="50.414" height="3.751" transform="translate(288.669 411.066)" fill="#92cefc"/>
    <path id="Path_2328" data-name="Path 2328" d="M82.43,327.035l.887.187a17.45,17.45,0,0,0,.455-11.641c-2.612-7.725-3.867-17.455-8.866-24.759-6.829-9.979-8.468-31.68-8.468-31.68s-8.313,17.215-2.647,33.442,12.368,20.478,15.758,23.646C83.169,319.614,83.1,324,82.43,327.035Z" transform="translate(7.563 154.977)" fill="#d1ebff"/>
    <path id="Path_2329" data-name="Path 2329" d="M83.432,327.074l.7.147a17.45,17.45,0,0,0,.455-11.641c-2.612-7.725-3.867-17.455-8.866-24.759-6.829-9.979-8.468-31.68-8.468-31.68s-4.6,23.2.727,31.372,5.566,6.181,9.391,13.945,5.034,9.966,6.2,14.479A18.746,18.746,0,0,1,83.432,327.074Z" transform="translate(6.75 154.977)" fill="#abdaff"/>
    <path id="Path_2330" data-name="Path 2330" d="M93.585,331.947s1.7-2.534.7-12-3.718-18.512-2.193-28.831,12.78-36.493,12.839-38.219,2.98,30.116-2.829,42.8-6.545,17.062-6.379,23.667-.212,11.935-.851,13.485Z" transform="translate(0.817 156.404)" fill="#d1ebff"/>
    <path id="Path_2331" data-name="Path 2331" d="M94.864,312.867c.6,4.218.861,14.82-.221,17.382-.1.238-.24.107-.409-.328a34.6,34.6,0,0,0,.053-9.951c-1-9.462-3.717-18.512-2.192-28.831s12.78-36.492,12.839-38.219c0,0-1.924,21.652-7.658,36.646A44.165,44.165,0,0,0,94.864,312.867Z" transform="translate(0.817 156.385)" fill="#abdaff"/>
    <path id="Path_2332" data-name="Path 2332" d="M101.6,335.527s-4.93-13.581,3.306-25.291,21.42-26.738,21.663-32.71c0,0,3.5,28.372-7.245,36.358s-18.3,9.238-16.385,21.6Z" transform="translate(-1.104 150.819)" fill="#d1ebff"/>
    <path id="Path_2333" data-name="Path 2333" d="M113.485,308.16c-11.979,9.679-12.922,20.878-11.04,26.08a1.254,1.254,0,0,0,.785.785c-1.652-11.928,5.836-13.255,16.446-21.141,10.745-7.986,7.245-36.358,7.245-36.358S125.464,298.481,113.485,308.16Z" transform="translate(-1.456 150.819)" fill="#abdaff"/>
    <path id="Path_2334" data-name="Path 2334" d="M71,343.078l-2.71-9.8C58.2,297.491,29.957,296.3,29.957,296.3c2.951.588,18.276,12.271,20.649,22.668,1.115,4.882,6.1,8.35,10.509,10.646a13.1,13.1,0,0,1,6.509,8.024c.841,2.948,1.285,5.563,1.285,5.563Z" transform="translate(14.769 146.573)" fill="#d1ebff"/>
    <path id="Path_2335" data-name="Path 2335" d="M55.642,319.464c3.3,6.333,7.553,8.907,11.367,9.776C56.015,297.417,29.957,296.3,29.957,296.3a11.16,11.16,0,0,1,3.016,1.567C38.4,300.9,49.81,308.277,55.642,319.464Z" transform="translate(14.769 146.573)" fill="#abdaff"/>
    <path id="Path_2336" data-name="Path 2336" d="M100.234,345.647H70.718a5.664,5.664,0,0,0-5.577,6.653l5.3,29.887a4.406,4.406,0,0,0,4.338,3.637H96.174a4.405,4.405,0,0,0,4.337-3.637l5.3-29.887A5.665,5.665,0,0,0,100.234,345.647Z" transform="translate(6.831 135.412)" fill="#d1ebff"/>
    <path id="Path_2337" data-name="Path 2337" d="M105.749,349.771a5.666,5.666,0,0,0-5.452-4.124H70.78a5.666,5.666,0,0,0-5.452,4.124Z" transform="translate(6.768 135.412)" fill="#abdaff"/>
    <path id="Path_2338" data-name="Path 2338" d="M107.13,345.647H99.6a5.664,5.664,0,0,1,5.577,6.653l-5.3,29.887a4.406,4.406,0,0,1-4.338,3.637h7.53a4.406,4.406,0,0,0,4.338-3.637l5.3-29.887A5.665,5.665,0,0,0,107.13,345.647Z" transform="translate(-0.064 135.412)" fill="#abdaff"/>
    <path id="Path_2339" data-name="Path 2339" d="M351.243,216.953c2.542.435,14.631,2.5,17,4.148,2.031,1.412,11.868,30.188,9.794,31.686s-14.4,2.88-14.4,2.88l1.383,10.388L350.9,269.266a25.684,25.684,0,0,1-10.311.223l-11.874-2.166,2.42-29.976-15.8,9.076a2.386,2.386,0,0,1-3.194-.967l-16.835-29.11,4.759-2.247,14.48,17.371,13.942-11.061s3.14-2.189,14.691-3.169Z" transform="translate(-45.247 165.165)" fill="#fe9800"/>
    <path id="Path_2340" data-name="Path 2340" d="M298.262,212.953s-2.446-5.015-3.321-5.264-.077,2.023-.077,2.023-3.048-2.336-5.455-2,4.443,4.668,5.122,7C294.531,214.709,298.411,212.97,298.262,212.953Z" transform="translate(-43.798 166.619)" fill="#ffa683"/>
    <rect id="Rectangle_157" data-name="Rectangle 157" width="29.993" height="19.813" rx="3.165" transform="translate(295.278 417.09) rotate(180)" fill="#031f40"/>
    <path id="Path_2341" data-name="Path 2341" d="M335,261.837h21.234a2.072,2.072,0,0,0,2.072-2.072v.227a2.072,2.072,0,0,0-2.072-2.073H335a2.072,2.072,0,0,0-2.072,2.073v-.227A2.072,2.072,0,0,0,335,261.837Z" transform="translate(-53.756 155.254)" fill="#031f40"/>
    <path id="Path_2342" data-name="Path 2342" d="M355.456,257.918v1.469a2.451,2.451,0,0,1-2.433,2.45H350.6a2.45,2.45,0,0,0,2.431-2.45v-1.469Z" transform="translate(-57.753 155.254)" fill="#e6e1ef"/>
    <path id="Path_2343" data-name="Path 2343" d="M328.413,250.748a3.422,3.422,0,1,1,3.423,3.423A3.422,3.422,0,0,1,328.413,250.748Z" transform="translate(-52.735 157.65)" fill="#d1ebff"/>
    <path id="Path_2344" data-name="Path 2344" d="M378.99,247.111l-2.863-12.339,5.506,14.38a2.121,2.121,0,0,1-1.583,2.88l-14.4,3.264,11.267-4.4A3.152,3.152,0,0,0,378.99,247.111Z" transform="translate(-61.157 160.489)" fill="#7327cc" opacity="0.42" style="mix-blend-mode: multiply;isolation: isolate"/>
    <path id="Path_2345" data-name="Path 2345" d="M378.356,265.454l-16.831,1.464-.231-5.784,17.771-4.057Z" transform="translate(-60.172 155.444)" fill="#fe9800"/>
    <path id="Path_2346" data-name="Path 2346" d="M371.9,270.392c.394.179.864,5.019,1.214,9.421l6.688-1.522L378.423,267.9l-16.831,1.464S371.177,270.06,371.9,270.392Z" transform="translate(-60.24 152.996)" fill="#7327cc" opacity="0.42" style="mix-blend-mode: multiply;isolation: isolate"/>
    <path id="Path_2347" data-name="Path 2347" d="M359.542,266.849s-2.958.961-6.649-2.743a.632.632,0,0,1,.441-1.077l5.975-.047Z" transform="translate(-58.23 154.109)" fill="#ffa683"/>
    <g id="Group_2745" data-name="Group 2745" transform="translate(275.241 431.543)">
      <path id="Path_2348" data-name="Path 2348" d="M371.006,363.747l-8.331-.125c-1.59-5.75-9.539-66.341-9.539-66.341L342.767,319.4l5.086,44.2-7.782.048s-12.222-38.2-12.222-46.152c0-6.06,6.108-25.658,9.013-34.646l.233-.06,10.86,1.979a25.608,25.608,0,0,0,10.31-.221l12.7-2.887.024.012C372.249,298.261,371.006,363.747,371.006,363.747Z" transform="translate(-327.849 -281.658)" fill="#031f40"/>
      <path id="Path_2349" data-name="Path 2349" d="M382.007,363.75s.6-29.907.565-54.145v-.06q0-.794,0-1.582c0-.22,0-.436,0-.655,0-.321,0-.644,0-.963-.039-10.515-.2-19.731-.577-24.67l-5.5,1.252h0l2.595,80.7,2.821.116Z" transform="translate(-338.85 -281.662)" fill="#02287e" opacity="0.35" style="mix-blend-mode: multiply;isolation: isolate"/>
      <path id="Path_2350" data-name="Path 2350" d="M348.679,368.238l2.132-.074-5.088-44.2,10.369-22.119-15.172,21.6Z" transform="translate(-330.805 -286.224)" fill="#021635"/>
    </g>
    <path id="Path_2351" data-name="Path 2351" d="M341.313,387.56c-1.865,3.735-10.585,5.555-10.585,5.555a2.4,2.4,0,0,0,.344,2.51c.982,1.408,10.149.631,11.3.386a3.994,3.994,0,0,0,1.948-1.169,6.4,6.4,0,0,0,1.192,1.055,10.388,10.388,0,0,0,2.771-.238c.563-1.487.064-7.189-.086-8.1Z" transform="translate(-53.213 125.932)" fill="#070707"/>
    <path id="Path_2352" data-name="Path 2352" d="M370.37,387.56c-1.864,3.735-10.584,5.555-10.584,5.555a2.4,2.4,0,0,0,.344,2.51c.981,1.408,10.149.631,11.3.386a4,4,0,0,0,1.949-1.169,6.385,6.385,0,0,0,1.192,1.055,10.4,10.4,0,0,0,2.772-.238c.563-1.487.064-7.189-.086-8.1Z" transform="translate(-59.785 125.932)" fill="#070707"/>
    <path id="Path_2353" data-name="Path 2353" d="M364.268,208.668v6.981l-4.112,2.941-2.773-2.671.066-2.863a5.269,5.269,0,0,0,1.07.108,5.818,5.818,0,0,0,5.576-4.506A.871.871,0,0,0,364.268,208.668Z" transform="translate(-59.288 166.396)" fill="#ffa683"/>
    <path id="Path_2354" data-name="Path 2354" d="M364.576,201.9a1.316,1.316,0,0,0-1.754-.166l-.036.04c-2.411-.572-5.774-3.132-5.774-3.132a39.923,39.923,0,0,1-5.611,2.605v3.62a5.9,5.9,0,0,0,5.763,6.034,5.819,5.819,0,0,0,5.577-4.51C364.724,206.663,365.378,202.754,364.576,201.9Z" transform="translate(-57.935 168.661)" fill="#ffa683"/>
    <path id="Path_2355" data-name="Path 2355" d="M361.758,206.578l-.012-.006v-2.719c1.846.036,2.438-3.669,1.661-4.506a1.323,1.323,0,0,0-1.757-.167.294.294,0,0,1-.036.042,53.7,53.7,0,0,1-5.756-1.892,9.664,9.664,0,0,1-5.63,1.366,5.189,5.189,0,0,1-3.993-5.546c.132-4.292,11.672-9.294,18.056-2.3C366.79,193.585,368.261,205.443,361.758,206.578Z" transform="translate(-56.766 171.211)" fill="#070707"/>
    <path id="Path_2356" data-name="Path 2356" d="M358.519,213.162a5.5,5.5,0,0,1-1.071-.117l-.064,2.872,1.787,1.723v-3.367c4.608,0,4.925-5.618,4.925-5.618A5.818,5.818,0,0,1,358.519,213.162Z" transform="translate(-59.288 166.396)" fill="#f48260"/>
    <path id="Path_2357" data-name="Path 2357" d="M362.89,202.544a.294.294,0,0,1-.036.042,7.492,7.492,0,0,1-1.04-.341c.113,1.46.162,5.1-1.8,7.071a5.7,5.7,0,0,0-2.605-2.095,11.856,11.856,0,0,0-3.181.04,1.46,1.46,0,0,0-.827.388l-1,.948a5.791,5.791,0,0,1-.682-1.171,5.7,5.7,0,0,0,11.1-.221,1.258,1.258,0,0,0,.478-.03v-.006Zm-4.656,6.908c-2.392,1.115-4.049.219-4.494-.34a.336.336,0,0,1,.021-.436l.406-.442c.46-.5,1.947-.319,2.568-.319a2.288,2.288,0,0,1,1.514.943C358.4,209.017,358.419,209.366,358.234,209.452Z" transform="translate(-58.005 167.846)" fill="#070707"/>
    <path id="Path_2358" data-name="Path 2358" d="M263.27,362.272c-1.029-30.543-5.062-86.481-5.062-86.481H227.751s-4.032,55.938-5.062,86.481h8.665s9.841-65.7,11.75-71.713c1.909,6.013,11.5,71.713,11.5,71.713Z" transform="translate(-28.823 151.212)" fill="#02287e"/>
    <path id="Path_2359" data-name="Path 2359" d="M271.752,362.272h-2.714l-8.851-86.482h6.5S270.723,331.731,271.752,362.272Z" transform="translate(-37.304 151.212)" fill="#5725a5"/>
    <path id="Path_2360" data-name="Path 2360" d="M271.752,362.272h-2.714l-8.851-86.482h6.5S270.723,331.731,271.752,362.272Z" transform="translate(-37.304 151.212)" fill="#062459"/>
    <path id="Path_2361" data-name="Path 2361" d="M220.788,387.56c-1.864,3.735-10.585,5.555-10.585,5.555a2.394,2.394,0,0,0,.344,2.51c.981,1.408,10.148.631,11.3.386a4,4,0,0,0,1.949-1.169,6.385,6.385,0,0,0,1.192,1.055,10.388,10.388,0,0,0,2.771-.238c.564-1.487.065-7.189-.085-8.1Z" transform="translate(-25.953 125.932)" fill="#070707"/>
    <path id="Path_2362" data-name="Path 2362" d="M271.6,387.56c1.864,3.735,10.584,5.555,10.584,5.555a2.4,2.4,0,0,1-.344,2.51c-.982,1.408-10.149.631-11.3.386a4,4,0,0,1-1.948-1.169A6.4,6.4,0,0,1,267.4,395.9a10.388,10.388,0,0,1-2.771-.238c-.563-1.487-.064-7.189.086-8.1Z" transform="translate(-38.249 125.932)" fill="#070707"/>
    <path id="Path_2363" data-name="Path 2363" d="M252.338,213.084l-2.066-.6h-7.287l-2.066.6L235.772,261.3h21.713Z" transform="translate(-31.782 165.53)" fill="#fff"/>
    <path id="Path_2364" data-name="Path 2364" d="M235.5,213.26s-12.783,3.56-14.842,6.52c-1.926,2.768-9.3,17.9-8.808,26.912a1.678,1.678,0,0,0,1.893,1.577l9.746-2.15-3.517,19.432s10.037,2.017,15.7,1.673Z" transform="translate(-26.367 165.355)" fill="#7be493"/>
    <path id="Path_2365" data-name="Path 2365" d="M257.152,213.26s12.784,3.56,14.843,6.52c1.926,2.768,9.5,17.3,9,26.308a1.677,1.677,0,0,1-1.892,1.577l-9.944-1.546,3.518,19.432s-9.959,2.274-15.622,1.931Z" transform="translate(-36.597 165.355)" fill="#7be493"/>
    <path id="Path_2366" data-name="Path 2366" d="M252.459,218.357l-3.576-1.993-3.318,1.993,2.116,2.927s-2.024,29.9-2.1,33.088c-.012.48,1.252,2.043,2.4,3.365.318.366.628.713.9,1.014.272-.3.582-.648.9-1.014,1.152-1.322,2.415-2.886,2.4-3.365-.079-3.192-1.874-32.973-1.874-32.973Z" transform="translate(-33.997 164.653)" fill="#02287e"/>
    <path id="Path_2367" data-name="Path 2367" d="M225.185,252.2l30.114-5.062-1.63-6.992-34.361,3.346Z" transform="translate(-28.058 159.274)" fill="#7be493"/>
    <path id="Path_2368" data-name="Path 2368" d="M264.884,246.395s4.4-1.43,5.891-1.2.8-4.891-7.064-5.048Z" transform="translate(-38.101 159.274)" fill="#ffa683"/>
    <path id="Path_2369" data-name="Path 2369" d="M237.075,241.655a8.547,8.547,0,0,0-6.478-2.273c-2.179.19-3.817,3.26-3.817,3.26Z" transform="translate(-29.748 159.453)" fill="#ffa683"/>
    <path id="Path_2370" data-name="Path 2370" d="M225.184,262.478l13.395-9.362-12.066,2.018Z" transform="translate(-29.387 156.34)" fill="#441982" opacity="0.35" style="mix-blend-mode: multiply;isolation: isolate"/>
    <path id="Path_2371" data-name="Path 2371" d="M226.074,241.4l-2.414-.062,4.891-7.469Z" transform="translate(-29.042 160.693)" fill="#441982" opacity="0.35" style="mix-blend-mode: multiply;isolation: isolate"/>
    <path id="Path_2372" data-name="Path 2372" d="M272.853,244.04s2.5.05,2.764-.347-3.139-8.754-3.139-8.754S274.986,243.325,272.853,244.04Z" transform="translate(-40.084 160.451)" fill="#441982" opacity="0.35" style="mix-blend-mode: multiply;isolation: isolate"/>
    <path id="Path_2373" data-name="Path 2373" d="M272.693,274.541,270.7,263.534h0l-1.525-8.425-12.064-2.1v.679l8.858,6.419,2.622,15.256C270.988,274.93,272.693,274.541,272.693,274.541Z" transform="translate(-36.608 156.365)" fill="#441982" opacity="0.35" style="mix-blend-mode: multiply;isolation: isolate"/>
    <path id="Path_2374" data-name="Path 2374" d="M244.683,294.862h0a9.286,9.286,0,0,0-3.2,5.533l-11.532,66.191H233S241.113,311.321,244.683,294.862Z" transform="translate(-30.467 146.898)" fill="#062459"/>
    <path id="Path_2375" data-name="Path 2375" d="M252.11,210.35l-3.046,1.854-3.244-1.854v-6.079h6.29Z" transform="translate(-34.055 167.388)" fill="#ffa683"/>
    <path id="Path_2376" data-name="Path 2376" d="M239.377,194.567s-1.261-4.707.037-7.08,3.5-5.007,5.651-3.524c0,0,1.293-1.7,5.852-.585s6.807,1.144,8.439.292.383,7.524-2.99,8.006a7.7,7.7,0,0,1-.939,2.965c-.667.778-8.822,1.186-8.822,1.186Z" transform="translate(-32.473 172.198)" fill="#070707"/>
    <path id="Path_2377" data-name="Path 2377" d="M246.61,190.035c-.235-.263-.7.879-1.791,1.827a13,13,0,0,1-3.017,1.849v4.538s.941,6.166,6.494,6.166c4.579,0,6.219-6.141,6.219-6.141v-5.312S249.057,192.764,246.61,190.035Z" transform="translate(-33.146 170.616)" fill="#ffa683"/>
    <path id="Path_2378" data-name="Path 2378" d="M252.11,207.382v1.249a4.871,4.871,0,0,1-2.906.96,5.905,5.905,0,0,1-3.383-.982v-1.248a5.905,5.905,0,0,0,3.383.982A4.873,4.873,0,0,0,252.11,207.382Z" transform="translate(-34.055 166.689)" fill="#f48260"/>
    <path id="Path_2379" data-name="Path 2379" d="M243.908,198.009a2.217,2.217,0,0,0-4.433,0,2.879,2.879,0,0,0,2.568,2.584C243.267,200.593,243.908,199.233,243.908,198.009Z" transform="translate(-32.62 169.305)" fill="#ffa683"/>
    <path id="Path_2380" data-name="Path 2380" d="M255.5,198.009a2.217,2.217,0,0,1,4.433,0,2.879,2.879,0,0,1-2.568,2.584C256.139,200.593,255.5,199.233,255.5,198.009Z" transform="translate(-36.244 169.305)" fill="#ffa683"/>
    <path id="Path_2381" data-name="Path 2381" d="M131.731,389.581v5a2.211,2.211,0,0,1-2.086,2.318H114.505a.926.926,0,0,1-.446-1.668c2-1.437,8.62-3.5,10.718-4.93Z" transform="translate(-4.169 125.475)" fill="#070707"/>
    <path id="Path_2382" data-name="Path 2382" d="M138.815,324.479c-1,13.376-3.663,48.333-4.35,50.293-.849,2.427-7.542,1.13-7.118.431a4.718,4.718,0,0,0,2.3-2.314,24.966,24.966,0,0,0,.132-4.925c-.424-5.928-2.588-36.415-3.2-45.6A57.317,57.317,0,0,0,138.815,324.479Z" transform="translate(-7.085 140.678)" fill="#ffa683"/>
    <path id="Path_2383" data-name="Path 2383" d="M150.4,389.581v5a2.211,2.211,0,0,0,2.086,2.318h15.139a.926.926,0,0,0,.446-1.668c-2-1.437-8.62-3.5-10.718-4.93Z" transform="translate(-12.473 125.475)" fill="#070707"/>
    <path id="Path_2384" data-name="Path 2384" d="M156.488,375.355c.418.7-6.27,2-7.118-.431-.682-1.954-3.341-36.8-4.345-50.221a38.792,38.792,0,0,0,12.192-1.668c-.658,9.759-2.756,39.261-3.168,45.081a26.013,26.013,0,0,0,.132,4.925A4.693,4.693,0,0,0,156.488,375.355Z" transform="translate(-11.257 140.526)" fill="#ffa683"/>
    <path id="Path_2385" data-name="Path 2385" d="M122.782,270.4l.114.168-.693,1.464C122.4,271.439,122.6,270.9,122.782,270.4Z" transform="translate(-6.095 152.431)" fill="#ba95f4"/>
    <path id="Path_2386" data-name="Path 2386" d="M129.445,224.048" transform="translate(-7.733 162.915)" fill="#ba95f4"/>
    <path id="Path_2387" data-name="Path 2387" d="M156.75,307.528c-16.765,9.287-37.862,0-37.862,0a72.335,72.335,0,0,1,2.247-36.619l.012-.024c.2-.592.395-1.136.58-1.632a35.842,35.842,0,0,1,1.62-3.777h.012c.908.6,12.138,7.632,27.444,0h.293a.223.223,0,0,0-.018-.029c-.012-.024-.024-.048-.042-.09-.005-.006-.005-.018-.012-.024h.1C158.973,285.235,156.75,307.528,156.75,307.528Z" transform="translate(-5.04 153.577)" fill="#55c595"/>
    <path id="Path_2388" data-name="Path 2388" d="M165.18,307.528a32.448,32.448,0,0,1-9.359,3.371c4.088-10.985.358-35.6-1.01-43.569a35.073,35.073,0,0,0,4.422-1.853h.293a.223.223,0,0,0-.018-.029c-.012-.024-.024-.048-.042-.09-.005-.006-.005-.018-.012-.024h.1C167.4,285.235,165.18,307.528,165.18,307.528Z" transform="translate(-13.471 153.577)" fill="#441982" opacity="0.35" style="mix-blend-mode: multiply;isolation: isolate"/>
    <path id="Path_2389" data-name="Path 2389" d="M138.814,324.479c-1,13.37-3.663,48.333-4.35,50.293a2.161,2.161,0,0,1-1.68,1.226c2.666-8.876,2.424-50.392,2.424-50.392-2.779.09-6.239-1.309-8.588-2.349-.066-1,.008-.152-.046-.894A57.3,57.3,0,0,0,138.814,324.479Z" transform="translate(-7.084 140.678)" fill="#f48260"/>
    <path id="Path_2390" data-name="Path 2390" d="M154.181,373.041a26.013,26.013,0,0,1-.132-4.925c.419-5.821,2.51-35.327,3.168-45.081-.493.155-.987.289-1.481.42-.263.07-.527.134-.791.2q-.432.1-.863.195a40.711,40.711,0,0,1-9.058.855c.024.316.049.649.074.989a71.657,71.657,0,0,0,8.439-.445c-.4,7.6-2.34,46.172-1,48.763.383.753,1.56,1.392,3.078,1.93.616-.185.98-.406.873-.585A4.693,4.693,0,0,1,154.181,373.041Z" transform="translate(-11.257 140.526)" fill="#f48260"/>
    <path id="Path_2391" data-name="Path 2391" d="M192.992,216.265s2.629-4.139,3.416-4.271-.131,1.774-.131,1.774,2.89-1.741,4.96-1.215-4.338,3.64-5.16,5.611C196.078,218.164,192.861,216.265,192.992,216.265Z" transform="translate(-22.105 165.642)" fill="#ffa683"/>
    <path id="Path_2392" data-name="Path 2392" d="M125.742,274.311c0-.337-3.181-2.977-3.4-3.111-.029-.042-.056-.087-.087-.128L120.23,275.3s4.894,4.108,5.38,3.7c.33-.275-.838-2.115-1.686-4.6C124.768,274.295,125.742,274.55,125.742,274.311Z" transform="translate(-5.649 152.279)" fill="#ffa683"/>
    <path id="Path_2393" data-name="Path 2393" d="M148.084,235.336a8.135,8.135,0,0,1,.9,4.083,5.464,5.464,0,0,1-1.671,3.516,6.458,6.458,0,0,0-.553.625c-.04.049-.078.1-.115.152-2.938,4.008-.152,9.811.3,10.7l.046.086a.159.159,0,0,0,.015.029h-.291c-15.306,7.635-26.538.6-27.447,0h-.06a.269.269,0,0,0,.015-.029c.252-.472,3.414-6.6.349-10.782a6.57,6.57,0,0,0-.667-.777c-2.456-2.458-1.77-6.4-.748-8.535l-8.5,11.973,8.09,12.094-2.346,4.935s-16.18-15.33-15.937-16.462,12.944-23.623,17.151-26.616,12.62-3.4,12.62-3.4h6.148a20.193,20.193,0,0,1,11.428,3.316L157.5,230.9l13.947-13.749,3.7,2.246s-12.6,17.064-17.081,22.175a2.024,2.024,0,0,1-2.879.171Z" transform="translate(-0.953 164.527)" fill="#d43e3f"/>
    <path id="Path_2394" data-name="Path 2394" d="M169.374,241.1c-2.636,2.031-13.783-12.13-12-9.023s-1.388,7.139-4.23,14.079c-2.455,6,.119,10.016.866,11a35.739,35.739,0,0,0,4.61-1.914h.291a.16.16,0,0,1-.015-.029l-.046-.086c-.456-.885-3.242-6.688-.3-10.7.037-.051.075-.1.115-.152a6.46,6.46,0,0,1,.553-.625,5.463,5.463,0,0,0,1.671-3.516,8.135,8.135,0,0,0-.9-4.083l7.107,6.4a2.024,2.024,0,0,0,2.879-.171c4.482-5.11,17.081-22.175,17.081-22.175C187.019,219.9,172.324,238.831,169.374,241.1Z" transform="translate(-12.859 163.804)" fill="#c41e26"/>
    <g id="Group_2746" data-name="Group 2746" transform="translate(106.486 392.879)">
      <path id="Path_2395" data-name="Path 2395" d="M120.488,237.742s1.565-4.892,2.59-6.049c0,0-12.691,16.228-13.286,18.079s10.291,12.038,10.291,12.038l-8.09-12.094Z" transform="translate(-109.769 -231.693)" fill="#c41e26"/>
      <path id="Path_2396" data-name="Path 2396" d="M123.415,239.51a9.779,9.779,0,0,0-.706,2.1Z" transform="translate(-112.695 -233.461)" fill="#c41e26"/>
    </g>
    <g id="Group_2747" data-name="Group 2747" transform="translate(98.536 381.64)" opacity="0.25" style="mix-blend-mode: overlay;isolation: isolate">
      <path id="Path_2397" data-name="Path 2397" d="M145.179,217.17H133.863a39.456,39.456,0,0,0-4.716.827h19.7A21.446,21.446,0,0,0,145.179,217.17Z" transform="translate(-106.202 -217.17)" fill="#fff"/>
      <path id="Path_2398" data-name="Path 2398" d="M192.251,217.214l-.8.793h2.113Z" transform="translate(-120.292 -217.18)" fill="#fff"/>
      <path id="Path_2399" data-name="Path 2399" d="M193.207,222.7H186.68l-.84.828h6.751Z" transform="translate(-119.024 -218.42)" fill="#fff"/>
      <path id="Path_2400" data-name="Path 2400" d="M152.431,222.7h-32.5c-.233.25-.474.522-.73.828h34.056Z" transform="translate(-103.953 -218.42)" fill="#fff"/>
      <path id="Path_2401" data-name="Path 2401" d="M188.743,228.223h-7.669l-.84.828h7.888Z" transform="translate(-117.756 -219.67)" fill="#fff"/>
      <path id="Path_2402" data-name="Path 2402" d="M155.793,228.223h-40.11q-.283.405-.573.828h41.513Z" transform="translate(-103.027 -219.67)" fill="#fff"/>
      <path id="Path_2403" data-name="Path 2403" d="M159.262,233.75h-47.25q-.263.411-.528.827h48.608Z" transform="translate(-102.207 -220.92)" fill="#fff"/>
      <path id="Path_2404" data-name="Path 2404" d="M184.246,233.75h-8.779l-.84.827h8.99Z" transform="translate(-116.488 -220.92)" fill="#fff"/>
      <path id="Path_2405" data-name="Path 2405" d="M120.1,239.457c-.1.2-.186.419-.274.647h45.447l.642-.828H108.572c-.169.277-.335.553-.5.828h11.573Z" transform="translate(-101.435 -222.17)" fill="#fff"/>
      <path id="Path_2406" data-name="Path 2406" d="M116.458,244.8H105.284l-.481.828h11.068Z" transform="translate(-100.696 -223.42)" fill="#fff"/>
      <path id="Path_2407" data-name="Path 2407" d="M167.746,245.631h7.437c.216-.266.438-.541.668-.828h-9.024Z" transform="translate(-114.724 -223.42)" fill="#fff"/>
      <path id="Path_2408" data-name="Path 2408" d="M122.465,245.631h31.711a6.154,6.154,0,0,0,0-.828H122.42A8.034,8.034,0,0,0,122.465,245.631Z" transform="translate(-104.68 -223.42)" fill="#fff"/>
      <path id="Path_2409" data-name="Path 2409" d="M112.717,250.33H102.133q-.24.431-.458.828h10.454Z" transform="translate(-99.988 -224.67)" fill="#fff"/>
      <path id="Path_2410" data-name="Path 2410" d="M124.545,250.492a6.558,6.558,0,0,1,.579.665h27.243l.03-.04a6.46,6.46,0,0,1,.553-.625c.053-.053.1-.108.149-.162H124.4C124.45,250.383,124.492,250.44,124.545,250.492Z" transform="translate(-105.128 -224.67)" fill="#fff"/>
      <path id="Path_2411" data-name="Path 2411" d="M110.122,255.857H99.5a3.168,3.168,0,0,0,.524.827h10.657Z" transform="translate(-99.495 -225.92)" fill="#fff"/>
      <path id="Path_2412" data-name="Path 2412" d="M127.144,256.684h24.423c.007-.275.026-.551.058-.827H127.088C127.12,256.133,127.138,256.41,127.144,256.684Z" transform="translate(-105.736 -225.92)" fill="#fff"/>
      <path id="Path_2413" data-name="Path 2413" d="M126.254,262.211H152.08c-.085-.261-.167-.538-.245-.828H126.5C126.423,261.673,126.34,261.949,126.254,262.211Z" transform="translate(-105.547 -227.17)" fill="#fff"/>
      <path id="Path_2414" data-name="Path 2414" d="M114.045,261.383h-9.854c.259.269.528.546.8.828h9.6Z" transform="translate(-100.557 -227.17)" fill="#fff"/>
      <path id="Path_2415" data-name="Path 2415" d="M129.605,267.738h18.888q1.085-.365,2.205-.828H127.612C128.17,267.173,128.84,267.458,129.605,267.738Z" transform="translate(-105.854 -228.42)" fill="#fff"/>
      <path id="Path_2416" data-name="Path 2416" d="M118.143,266.91H109.66l.839.828h8.2Z" transform="translate(-101.794 -228.42)" fill="#fff"/>
      <path id="Path_2417" data-name="Path 2417" d="M120.667,272.437h-5.351l.859.828h4.1Z" transform="translate(-103.073 -229.67)" fill="#fff"/>
    </g>
    <g id="Group_2748" data-name="Group 2748" transform="translate(123.568 365.804)">
      <path id="Path_2418" data-name="Path 2418" d="M143.594,215.667l-2.832,1.724-3.017-1.724v-5.653h5.849Z" transform="translate(-133.179 -199.715)" fill="#ffa683"/>
      <path id="Path_2419" data-name="Path 2419" d="M145.1,212.912v3.411l-.7.426c.025-.145.05-.288.075-.427C144.749,214.767,144.985,213.55,145.1,212.912Z" transform="translate(-134.683 -200.371)" fill="#ffa683"/>
      <path id="Path_2420" data-name="Path 2420" d="M148.385,201.156v4.281a9.849,9.849,0,0,1-3.082,4.816C145.623,208.438,148.008,203.1,148.385,201.156Z" transform="translate(-134.888 -197.712)" fill="#ffa683"/>
      <path id="Path_2421" data-name="Path 2421" d="M143.594,212.907v1.162a4.528,4.528,0,0,1-2.7.893,5.5,5.5,0,0,1-3.147-.913v-1.161a5.491,5.491,0,0,0,3.147.913A4.531,4.531,0,0,0,143.594,212.907Z" transform="translate(-133.179 -200.365)" fill="#f48260"/>
      <path id="Path_2422" data-name="Path 2422" d="M145.435,200.9c-.033,0-.063.008-.094.009V199.49s-8.169.512-9.648-2.768c-.135-.3-2.174,3.464-2.174,3.464v.756a2.06,2.06,0,0,0-1.675,2.022,2.732,2.732,0,0,0,1.887,2.319c.481,1.6,1.937,4.857,5.827,4.857,3.173,0,4.828-3.17,5.465-4.786.03,0,.057.012.087.012a2.677,2.677,0,0,0,2.387-2.4A2.062,2.062,0,0,0,145.435,200.9Z" transform="translate(-131.844 -196.705)" fill="#ffa683"/>
    </g>
    <path id="Path_2423" data-name="Path 2423" d="M144.16,202.718a.208.208,0,0,1,.1-.029,2.676,2.676,0,0,0,2.388-2.4,2.059,2.059,0,0,0-2.061-2.061c-.029,0-.06.005-.1.005v-1.419s-8.168.511-9.647-2.769c-.131-.3-2.174,3.464-2.174,3.464v.754A2.065,2.065,0,0,0,131,200.288a2.738,2.738,0,0,0,1.889,2.317,7.281,7.281,0,0,0,2.679,3.945v2.388c-9.827-5.914-8.691-18.788-3.779-21.217,2.2-1.082,3.273-.2,3.273-.2,7.7-6.775,13.95,1.191,15.831,4.23,2.578,4.165,12.989,31.431,2.181,35.1-19.78,6.714-13.555-18.326-11.662-20.277A11.35,11.35,0,0,0,144.16,202.718Z" transform="translate(-7.43 171.776)" fill="#070707"/>
    <path id="Path_2302" data-name="Path 2302" d="M583.679,432.2s5.447-8.082,14.124-3.9c0,0,2.328-7.524,10.214-7.325,5.436.137,10.034,2.931,10.6,11.22Z" transform="translate(-259.434 -182.658)" fill="#eef6fc" opacity="0.3"/>
    <path id="Path_2857" data-name="Path 2857" d="M583.679,432.2s5.447-8.082,14.124-3.9c0,0,2.328-7.524,10.214-7.325,5.436.137,10.034,2.931,10.6,11.22Z" transform="translate(-569.679 -50.158)" fill="#eef6fc" opacity="0.3"/>
    <path id="Path_2856" data-name="Path 2856" d="M583.679,445.939s12.115-17.977,31.417-8.665c0,0,5.177-16.735,22.718-16.293,12.092.3,22.318,6.519,23.589,24.958Z" transform="translate(-526.403 -220.777)" fill="#eef6fc" opacity="0.3"/>
  </g>
</svg>
