<svg xmlns="http://www.w3.org/2000/svg" width="365.221" height="292.322" viewBox="0 0 365.221 292.322">
  <g id="Group_3494" data-name="Group 3494" transform="translate(-29.448 -236.077)">
    <g id="Group_3083" data-name="Group 3083" transform="translate(0 130)">
      <path id="Path_2536" data-name="Path 2536" d="M-1292.274-4180.848c3.061-5.929-24.344-53.172-24.783-65.1-1.32-35.814,41.861-36.1,45.635-65.35,3.383-26.212-40.587-57.854-13.393-82.646,23.282-21.226,49.21-12.387,76.39-19.7,16.209-4.361,17.452-19.34,30.259-27.869,27.754-18.484,88.344.563,104.168,27.389,15.178,25.729-17.905,48.392-9.425,73.036,6.819,19.818,28.524,29.589,29.763,52.376.985,18.136-17.365,30.494-14.881,48.531,3.361,24.419,47.2,30.618,12.9,59.1" transform="translate(1402.216 4579.247)" fill="#eef6fc"/>
      <path id="Path_2577" data-name="Path 2577" d="M-1360.075-2876.126a35.558,35.558,0,0,0-7.607,49.711l.061.083a35.557,35.557,0,0,0,49.71,7.607l93.927-69a35.564,35.564,0,0,0,7.613-49.715l-.062-.083a35.564,35.564,0,0,0-49.716-7.6l-93.927,69Zm10.53,8.491,88.351-64.9a22.279,22.279,0,0,1,31.142,4.766l.308.419a22.281,22.281,0,0,1-4.766,31.143l-88.35,64.9a22.274,22.274,0,0,1-31.137-4.769l-.308-.42a22.274,22.274,0,0,1,4.76-31.138Z" transform="translate(1454.805 3210.22)" fill="#abdaff"/>
      <path id="Path_2578" data-name="Path 2578" d="M336.862-2564.761a22.332,22.332,0,0,1-2.722,16.382,35.7,35.7,0,0,0,15.793,1.412,35.7,35.7,0,0,0,3.37-15.489,22.326,22.326,0,0,1-16.441-2.3Z" transform="translate(-108.009 2856.023)" fill="#76a5d3"/>
      <path id="Path_2579" data-name="Path 2579" d="M59.319-3918.433A35.384,35.384,0,0,0,48.227-3905a35.705,35.705,0,0,1,15.8,1.417,22.165,22.165,0,0,1,5.825-6.361l88.351-64.9c9.914-7.282,26.305-6.152,33.588,3.762h0c7.283,9.915,3.011,25.283-6.9,32.565l-88.35,64.9a22.154,22.154,0,0,1-7.818,3.66,22.325,22.325,0,0,1-16.441-2.305,22.178,22.178,0,0,1-6.878-6.124l-.308-.419a22.2,22.2,0,0,1-3.787-8.4,22.33,22.33,0,0,0-16.452-2.3,35.348,35.348,0,0,0,6.862,20.774l.061.083a35.35,35.35,0,0,0,17.78,12.762,35.7,35.7,0,0,0,15.793,1.412,35.392,35.392,0,0,0,16.137-6.566l93.927-69a35.565,35.565,0,0,0,7.613-49.715l-.061-.083a35.564,35.564,0,0,0-49.716-7.6l-93.927,69Z" transform="translate(156.578 4163.522)" fill="#56b4ff"/>
      <path id="Path_2580" data-name="Path 2580" d="M332.573-2624.021l-2.124.866,1.607,6.423,2.108-.883-1.592-6.406Z" transform="translate(-104.634 2910.223)" fill="#fff"/>
      <path id="Path_2581" data-name="Path 2581" d="M-277.045-2685.942s-8.659-2.532-13.811-3.375-6.795,0-6.795,0l8.351-33.154,7.752,16.876,4.5,19.653Z" transform="translate(469.831 3000.267)" fill="#fc721a"/>
      <path id="Path_2582" data-name="Path 2582" d="M-776.924-2562.441s-9.414,3.653-14.664,8.525a21.721,21.721,0,0,0-6.333,10.963s8.046,7.411,13.295,2.538,7.7-22.026,7.7-22.026Z" transform="translate(927.381 2853.902)" fill="#fc721a"/>
      <path id="Path_2583" data-name="Path 2583" d="M-582.891-2536.231l-3.639,52.23-3.652,41s-2.236,2.982-4.752,3.4-5.558-1.712-5.558-1.712l.8-42.818-.8-30.455-14.582-19.106,32.189-2.545Z" transform="translate(760.155 2829.93)" fill="#041f40"/>
      <path id="Path_2584" data-name="Path 2584" d="M-764.453-2517.839l-8.613,19.64-22.431,72.718-8.263-.7.558-5.069,13.718-87.075,25.03.482Z" transform="translate(932.723 2813.549)" fill="#041f40"/>
      <path id="Path_2585" data-name="Path 2585" d="M-434.46-1444.411l6.49,6.371s4.546-1.665,5.245.963-.321,2.285-.321,2.285l-21.773.18.044-8.109s3.693,1.916,5.707,1.4,4.609-3.093,4.609-3.093Z" transform="translate(604.434 1831.343)"/>
      <path id="Path_2586" data-name="Path 2586" d="M-440.691-2378.381l-3.619,8.172v73.273s.67.349,1.469.657,1.727.575,1.727.575l.423-82.677Z" transform="translate(603.967 2685.559)" fill="#001023"/>
      <path id="Path_2587" data-name="Path 2587" d="M-789.483-2518.331l-13.375,84.907-.9,7.238s.821-.17,1.525-.294,1.292-.2,1.292-.2l6-41.974s1.478-14.537,4.914-31.587c2.9-14.4,11.346-16.637,11.346-16.637l-10.8-1.454Z" transform="translate(932.723 2813.558)" fill="#001023"/>
      <path id="Path_2588" data-name="Path 2588" d="M-829.756-1436.533l-.211-3.676-.266-5.245a8.17,8.17,0,0,0-3.937-1.336,32.483,32.483,0,0,0-4.326.64l-1.011,4.481-1.6,3.7-.635,1.9,11.984-.459Z" transform="translate(967.459 1833.522)"/>
      <path id="Path_2589" data-name="Path 2589" d="M-830.387-1384.022c0-3.364-2.782-6.9-6.157-6.9s-6.066,3.535-6.066,6.9" transform="translate(968.255 1782.421)"/>
      <path id="Path_2590" data-name="Path 2590" d="M-624.9-3187.461l-4.573,2.533-12.76,2.489s1.424,12.823,2.431,21.907,1.6,14.424,1.6,14.424l-2.336,18.637s13.733,2.249,21.809,2.209c8.615-.042,11.147-4.569,11.147-4.569a50.783,50.783,0,0,1,1.8-13.756c1.382-5.427,5.177-12.9,5.861-17.482,1.717-11.505-.79-14.782-.79-14.782l-9.765-4.5-.982-2.318-13.439-4.791Z" transform="translate(784.986 3425.55)" fill="#ddd"/>
      <path id="Path_2591" data-name="Path 2591" d="M588.94-2446.285l17.453,88.414,6.078-.068-.531-89.271-23,.926Z" transform="translate(-341.051 2748.511)" fill="#02287e"/>
      <path id="Path_2592" data-name="Path 2592" d="M660.722-1438.741l-6.216,6.1s-4.355-1.6-5.024.923.307,2.188.307,2.188l20.854.172.378-5.688-.971-2.507s-2.985,2.265-4.914,1.772-4.415-2.962-4.415-2.962Z" transform="translate(-396.21 1826.157)" fill="#1e1e1e"/>
      <path id="Path_2593" data-name="Path 2593" d="M588.94-2446.285l23.531,88.345,8.543.068-9.074-89.339-23,.926Z" transform="translate(-341.051 2748.511)" fill="#02287e"/>
      <path id="Path_2594" data-name="Path 2594" d="M698.509-3384.44l-.306.958-1.18,3.7,9.187-4.5-.752-1.611a10.256,10.256,0,0,0,6.432-6.951c1.283-5.317-.432-9.3-5.8-10.964a13.543,13.543,0,0,0-9.829.809l2.249,18.563Z" transform="translate(-439.207 3623.953)" fill="#f4cda4"/>
      <path id="Path_2595" data-name="Path 2595" d="M583.285-3177.508l-.689,2.754-6.43,6.55-2.356,46.982s.359,7.318,5.667,9.743,25.875.05,25.875.05l-5.265-20.1,4.557-36.7-7.964-11.034-2.049-4.731-11.346,6.483Z" transform="translate(-327.213 3422.376)" fill="#d43e3f"/>
      <path id="Path_2596" data-name="Path 2596" d="M715.767-3233.358l-.567,1.981a16.571,16.571,0,0,0,4.076-2.579,15.217,15.217,0,0,0,2.511-3.746l-1.255-1.5-4.764,5.843Z" transform="translate(-456.529 3472.872)" fill="#e3bc93"/>
      <path id="Path_2597" data-name="Path 2597" d="M602.37-3174.754l.689-2.754,11.346-6.483.409.944s-4.919,1.994-9.988,8.813-9.4,20.533-9.4,20.533l5.268-19.351,1.672-1.7Z" transform="translate(-346.987 3422.376)" fill="#fff"/>
      <path id="Path_2598" data-name="Path 2598" d="M662.217-3389.113c.317-1.808-2.045-.936-2.488-2.073-.931-2.381-1.057-5.765-3.907-6.265-4.211-.739-9.122,3.757-8.146,10.312.837,5.619,2.856,9.512,7.089,8.909,2.323-.33,4.276-6.793,5.088-8.069s2.145-1.568,2.365-2.815Z" transform="translate(-394.658 3617.681)" fill="#f4cda4"/>
      <path id="Path_2599" data-name="Path 2599" d="M696.116-3183.991l-11.346,6.483,2.318.967-.852,4.123,9.48-8.537,1.3-.954-.9-2.083Z" transform="translate(-428.698 3422.376)" fill="#ddd"/>
      <path id="Path_2600" data-name="Path 2600" d="M628.266-3430.128l1.1,4.275s1.544-1.849,1.544-2.6c0-.726,2.863-.545,2.1,1.324-.291.713-1.408.883-2.055,1.841a5.738,5.738,0,0,0-1.038,2.96l2.338,4.54s11.56-5.442,6.154-17.143a4.462,4.462,0,0,0-.4-.833c-3.311-4.387-6.53-3.455-12.844-3.455-7.39,0-8.906-.41-8.906-.41s-1.507,7.072,3.33,8.25a50.184,50.184,0,0,0,8.675,1.253Z" transform="translate(-365.836 3656.187)"/>
      <path id="Path_2601" data-name="Path 2601" d="M611.43-3172.941l.895,2.068-2.173,2.537-2.261.22,1.643.992s-5.617,2.694-8.406,7.838c-4.168,7.69-9.4,16.208-9.4,16.208a136.85,136.85,0,0,1,8.61-19.234c5-8.868,11.09-10.63,11.09-10.63Z" transform="translate(-343.603 3412.27)" fill="#02287e"/>
      <path id="Path_2602" data-name="Path 2602" d="M596.663-3054.528l1.328-1.353-5.521,18.717,2.514-14.374,1.21-1.464-.651-.386,1.12-1.14Z" transform="translate(-344.279 3305.206)" fill="#02287e"/>
      <path id="Path_2603" data-name="Path 2603" d="M604.658-2970.061l2.3,21.781-1.541,12.412,5.265,20.1s-4.044.465-8.234.725-8.526.316-8.526.316,11.177-3.637,9.78-8.041c-2.23-7.025-3.33-30.336-3.33-30.336l-7.942,13.558-12.79,4.06.852-16.992,1.191-.625,4.665-10.728,18.309-6.23Z" transform="translate(-332.545 3226.714)" fill="#c11720"/>
      <path id="Path_2604" data-name="Path 2604" d="M-156.01-3051.5l10.534,25.488,15.312,9.626-2.522,9.782-19.4-9.693-3.925-35.2Z" transform="translate(340.286 3301.2)" fill="#fe9800"/>
      <path id="Path_2605" data-name="Path 2605" d="M127.545-2640.3l2.874,1.149-1.841,6.615-2.818-.763,1.785-7Z" transform="translate(82.577 2925.113)" fill="#ddd"/>
      <path id="Path_2606" data-name="Path 2606" d="M160.6-2637.386l1.447.453,3.352-1.438,3.006,2.295.787,3.4s-1.1.687-1.851.125a5.174,5.174,0,0,1-1.152-2.373l-2.134,1.216-3.447,4.043-1.849-1.107,1.841-6.615Z" transform="translate(52.395 2923.348)" fill="#ffe1c2"/>
      <path id="Path_2607" data-name="Path 2607" d="M399.486-3046.1c.669-8.547-6.64-12.032-12.1-6.975s-10.391,24.216-10.391,24.216l-21.672,10.277,1.859,7.482,27.529-7.789s14.109-18.665,14.778-27.211Z" transform="translate(-127.381 3304.785)" fill="#d43e3f"/>
      <path id="Path_2608" data-name="Path 2608" d="M193.222-2623.237l-1.47.283-2.71-1.111-2.246-.046-6.386,7.49a1.087,1.087,0,0,0,.371.663,1.514,1.514,0,0,0,.835.142,2.018,2.018,0,0,0,.475,1.138,1.726,1.726,0,0,0,1.136.28s.082.74.552.957a2.28,2.28,0,0,0,1.329-.09,1.173,1.173,0,0,0,.579.683,2.434,2.434,0,0,0,1.137.049l3.967-3.123,3.91-1.413-1.477-5.9Z" transform="translate(32.594 2910.306)" fill="#f4cda4"/>
      <path id="Path_2609" data-name="Path 2609" d="M298.869-2535.793l-.776-.505a.659.659,0,0,0-.911.193.66.66,0,0,0,.193.911l.777.5a.658.658,0,0,0,.91-.193.658.658,0,0,0-.193-.91Z" transform="translate(-74.11 2830.089)" fill="#ffe1c2"/>
      <path id="Path_2610" data-name="Path 2610" d="M280.887-2527.787l-.777-.5a.658.658,0,0,0-.91.193.657.657,0,0,0,.193.91l.777.5a.658.658,0,0,0,.91-.193.658.658,0,0,0-.193-.91Z" transform="translate(-57.663 2822.766)" fill="#ffe1c2"/>
      <path id="Path_2611" data-name="Path 2611" d="M265.876-2519.177l-.776-.5a.658.658,0,0,0-.91.193.658.658,0,0,0,.193.91l.776.5a.658.658,0,0,0,.91-.193.658.658,0,0,0-.193-.91Z" transform="translate(-43.935 2814.891)" fill="#ffe1c2"/>
      <path id="Path_2612" data-name="Path 2612" d="M252.257-2509.117l-.776-.5a.659.659,0,0,0-.911.193.658.658,0,0,0,.193.91l.777.506a.659.659,0,0,0,.91-.193.659.659,0,0,0-.193-.911Z" transform="translate(-31.478 2805.69)" fill="#ffe1c2"/>
      <path id="Path_2613" data-name="Path 2613" d="M-140.15-2993.571s2.081,25.97,2.8,28.416c.248,2.025,19.681,9.543,19.681,9.543l-.513,1.99-20.473-10.106-1.5-29.843Z" transform="translate(325.78 3248.217)" fill="#fc721a"/>
      <path id="Path_2614" data-name="Path 2614" d="M757.433-2327.381s-2.614.342-5.247.455-5.287,0-5.287,0,7.026,3.649,7.345,6.722c2.408,23.19,9.129,71.912,9.129,71.912l2.111.017-8.052-79.107Z" transform="translate(-485.522 2638.915)" fill="#001023"/>
      <path id="Path_2615" data-name="Path 2615" d="M629.69-2270.981l17.55,74.241,2.5-.019-20.051-74.222Z" transform="translate(-378.321 2587.33)" fill="#001023"/>
      <path id="Path_2616" data-name="Path 2616" d="M677.389-3108.071l.071,2.882-.76-.128.689-2.754Z" transform="translate(-421.317 3352.939)" fill="#ddd"/>
      <path id="Path_2617" data-name="Path 2617" d="M729.982-1438.741l-6.216,6.1s-4.355-1.6-5.024.923.307,2.188.307,2.188l20.854.172.378-5.688-.971-2.507s-2.986,2.265-4.914,1.772-4.415-2.962-4.415-2.962Z" transform="translate(-459.556 1826.157)" fill="#303030"/>
      <path id="Path_2618" data-name="Path 2618" d="M-438.066-3397.656l1.276,1.526-1.208,4.279-8.49-6.325,1.453-2.576a11.013,11.013,0,0,1-5.188-8.749c-.149-5.873,2.55-9.668,8.565-10.206a14.543,14.543,0,0,1,10.138,3.065l-6.546,18.986Z" transform="translate(609.38 3638.014)" fill="#ffe1c2"/>
      <path id="Path_2619" data-name="Path 2619" d="M-351.929-3236.79l-.886,2.425a52.174,52.174,0,0,1-4.181-4.976c-1.179-1.8-.681-5.1-.681-5.1l.547-.693,5.2,8.342Z" transform="translate(524.828 3478.295)" fill="#ecc7a3"/>
      <path id="Path_2620" data-name="Path 2620" d="M-380.465-3395.647c.074-1.97,2.358-.522,3.08-1.615,1.514-2.292,2.41-5.817,5.516-5.7,4.587.173,8.732,6,6.229,12.665-2.146,5.714-5.145,9.344-9.453,7.759-2.365-.87-2.96-8.1-3.524-9.621s-1.9-2.13-1.848-3.489Z" transform="translate(545.576 3622.651)" fill="#ffe1c2"/>
      <path id="Path_2621" data-name="Path 2621" d="M-446.677-3446.86l-2.116,4.242-1.034-3.081s-2.884-1.217-2.5.917c.144.814,1.28,1.245,1.742,2.4a6.162,6.162,0,0,1,.423,3.343l-3.48,4.241s-10.912-8.321-2.6-19.391a4.882,4.882,0,0,1,.605-.786c4.465-3.859,7.636-2.156,14.267-.733,7.76,1.667,9.267.987,9.267.987s.166,8.356-5.179,8.5a53.843,53.843,0,0,1-9.393-.639Z" transform="translate(617.739 3672.385)"/>
      <path id="Path_2622" data-name="Path 2622" d="M-342.95-3292.941a15.39,15.39,0,0,0,.507,5.3,11.978,11.978,0,0,0,2.312,3.761l3.975.665-1.156,4.768-4.348-3.656a10.848,10.848,0,0,1-2.086-4.69,21.721,21.721,0,0,1,.207-6.359" transform="translate(512.142 3522.214)"/>
      <path id="Path_2623" data-name="Path 2623" d="M-767.292-3187.461l-4.573,2.533-12.76,2.489-4.647,39.249-6.767,17.135-1.881,11.453s.564-4.5,6.764-9.671,16.986-11.475,16.986-11.475,7.052-7.2,8.771-20.125-1.894-31.589-1.894-31.589Z" transform="translate(927.381 3425.55)" fill="#fe9800"/>
      <path id="Path_2624" data-name="Path 2624" d="M-505.4-3184.927l-1.177,6.62,3.634,2.9-3.6,2.592a121.467,121.467,0,0,1,4.325,12.513,64.846,64.846,0,0,1,1.928,10.792,76.961,76.961,0,0,0,1.771-17.31,138.29,138.29,0,0,0-2.306-20.643l-4.573,2.533Z" transform="translate(660.92 3425.55)" fill="#fc721a"/>
      <path id="Path_2625" data-name="Path 2625" d="M-281.87-3131.361a297.383,297.383,0,0,0,7,34.916c1.877,6.964,5.266,13.092,7.345,19.146a162.2,162.2,0,0,1,4.909,17.382l-8.51-64.625-9.766-4.5-.982-2.318Z" transform="translate(455.398 3374.24)" fill="#fe9800"/>
      <path id="Path_2626" data-name="Path 2626" d="M-825.5-3128.641s-16.233,24.431-17.09,31.912c-.61,5.329,11.887,28.28,11.887,28.28l8.4-6.362-7.436-18.036,6.669-13.888-2.431-21.907Z" transform="translate(968.258 3371.753)" fill="#fe9800"/>
      <path id="Path_2627" data-name="Path 2627" d="M-683.482-2498.251l1.306,2.511-7.482,5.382-1.172-2.328,7.348-5.565Z" transform="translate(829.436 2795.193)" fill="#adadad"/>
      <path id="Path_2628" data-name="Path 2628" d="M-660.016-2468.841l1.415.807-3.78,10.369-2.845-5.131-1.374-1.308,6.585-4.737Z" transform="translate(807.275 2768.295)" fill="#ffe1c2"/>
      <path id="Path_2629" data-name="Path 2629" d="M-432.246-3193.381l-3.724,2.043,6.641,10.328,4.112-4.806a21.6,21.6,0,0,1-4.314-3.325,10.2,10.2,0,0,1-2.715-4.24Z" transform="translate(596.339 3430.964)" fill="#fc721a"/>
      <path id="Path_2630" data-name="Path 2630" d="M-383.87-3048.031a182.6,182.6,0,0,1-1.17,19.5,146.572,146.572,0,0,1-3.51,17.954l1.669,6.249,4.153-4.269a75.975,75.975,0,0,0,3.288-18.523,102.729,102.729,0,0,0-1.744-20.546l-2.686-.366Z" transform="translate(552.969 3298.026)"/>
      <path id="Path_2631" data-name="Path 2631" d="M-307.644-3131.361l-2.406,2.27,2.027,4.3.767-3.824-.388-2.744Z" transform="translate(481.172 3374.24)" fill="#fc721a"/>
      <path id="Path_2632" data-name="Path 2632" d="M-344.256-3104.781l-3.194,3.609,2.423,2.561,2.8-1.872-2.027-4.3Z" transform="translate(515.378 3349.93)"/>
      <path id="Path_2633" data-name="Path 2633" d="M-281.31-3127.441l.934,1.984,1.643.757,2.2,6.866-1.014,1.368,1.283.571.713,18.419s-1.964-8.176-3.4-15.667-2.358-14.3-2.358-14.3Z" transform="translate(454.886 3370.655)" fill="#fc721a"/>
      <path id="Path_2634" data-name="Path 2634" d="M-685.191-2872.1l-6.669,13.888,6.321,15.331-4.386-15.026,4.734-14.193Z" transform="translate(830.378 3137.119)" fill="#fc721a"/>
      <path id="Path_2635" data-name="Path 2635" d="M-753.99-2521.921l3.19,6.225-1.395,1.2-1.8-7.427Z" transform="translate(887.203 2816.842)" fill="#fc721a"/>
      <path id="Path_2636" data-name="Path 2636" d="M-149.01-2998.341l3.914,29.725,1.149.483-5.064-30.208Z" transform="translate(333.884 3252.579)" fill="#55c595"/>
    </g>
    <path id="Path_2302" data-name="Path 2302" d="M583.679,432.233s5.464-8.108,14.17-3.908c0,0,2.335-7.548,10.246-7.349,5.454.137,10.066,2.94,10.639,11.257Z" transform="translate(-224.065 -165.56)" fill="#eef6fc" opacity="0.3"/>
    <path id="Path_2856" data-name="Path 2856" d="M583.679,445.939s12.115-17.977,31.417-8.665c0,0,5.177-16.735,22.718-16.293,12.092.3,22.318,6.519,23.589,24.958Z" transform="translate(-472.083 -184.896)" fill="#eef6fc" opacity="0.3"/>
    <path id="Path_2857" data-name="Path 2857" d="M583.679,432.2s5.447-8.082,14.124-3.9c0,0,2.328-7.524,10.214-7.325,5.436.137,10.034,2.931,10.6,11.22Z" transform="translate(-554.231 -80.03)" fill="#eef6fc" opacity="0.3"/>
  </g>
</svg>
