<svg xmlns="http://www.w3.org/2000/svg" xmlns:xlink="http://www.w3.org/1999/xlink" width="39.313" height="35.239" viewBox="0 0 39.313 35.239">
  <defs>
    <clipPath id="clip-path">
      <path id="Path_18" data-name="Path 18" d="M3.3,6.358a2.878,2.878,0,0,1,2.72-3.04h.02a.8.8,0,0,1,.15-.01,2.887,2.887,0,0,1,.16,5.77c-.056,0-.111.005-.166.005A2.887,2.887,0,0,1,3.3,6.358M5.908,0a.774.774,0,0,0-.656.368l-.369.59a1.955,1.955,0,0,1-1.95.93l-.68-.09a.883.883,0,0,0-.28.02.766.766,0,0,0-.57.94l.15.65a1.958,1.958,0,0,1-.72,2.05L.3,5.868a.807.807,0,0,0-.189.22.758.758,0,0,0-.113.4H0a.763.763,0,0,0,.373.661l.569.35a1.96,1.96,0,0,1,.941,1.96l-.09.67a.883.883,0,0,0,.02.28.788.788,0,0,0,.94.58l.65-.16a1.95,1.95,0,0,1,2.05.72l.41.54a.782.782,0,0,0,.66.3.748.748,0,0,0,.619-.37l.36-.58a1.963,1.963,0,0,1,1.961-.94l.67.09a.71.71,0,0,0,.29-.01.77.77,0,0,0,.56-.94l-.151-.65a1.95,1.95,0,0,1,.72-2.05l.54-.41a.665.665,0,0,0,.191-.22.771.771,0,0,0-.26-1.06l-.571-.35a1.977,1.977,0,0,1-.939-1.97l.09-.66a.931.931,0,0,0-.01-.29.788.788,0,0,0-.941-.57l-.659.16A1.977,1.977,0,0,1,6.952.858L6.523.3a1.1,1.1,0,0,0-.2-.18A.784.784,0,0,0,5.92,0Z" fill="none"/>
    </clipPath>
    <linearGradient id="linear-gradient" y1="2.84" x2="0.08" y2="2.84" gradientUnits="objectBoundingBox">
      <stop offset="0" stop-color="#82e6ff"/>
      <stop offset="1" stop-color="#06acd1"/>
    </linearGradient>
    <clipPath id="clip-path-2">
      <path id="Path_19" data-name="Path 19" d="M16.943,9.758a.439.439,0,0,1,.1-.33.765.765,0,0,1-.1-.39.862.862,0,0,1,.86-.87H29.552a.862.862,0,0,1,.861.87.851.851,0,0,1-.47.76v1.18h-13Zm.41-2.94a2.887,2.887,0,0,0-2.831,2.71,1.77,1.77,0,0,0-.01.23v1.22H10.973c-1.99,0-3.23,1.04-3.39,2.81v.01c0,.12-.01.25-.01.37v3.67a4.018,4.018,0,0,0,1.3,3v11.05a3.391,3.391,0,0,0,.619,1.96v.25h.191a3.2,3.2,0,0,0,2.43,1.14H34.772a3.3,3.3,0,0,0,3.24-3.35V20.838a1.632,1.632,0,0,0,.191-.19,4.047,4.047,0,0,0,1.11-2.81v-3.67c0-2-1.26-3.19-3.4-3.19h-3.54V9.758a2.893,2.893,0,0,0-2.84-2.94Z" fill="none"/>
    </clipPath>
    <linearGradient id="linear-gradient-2" x1="-0.238" y1="1" x2="-0.207" y2="1" xlink:href="#linear-gradient"/>
    <clipPath id="clip-path-3">
      <rect id="Rectangle_21" data-name="Rectangle 21" width="39.313" height="35.239" transform="translate(0 0)" fill="none"/>
    </clipPath>
  </defs>
  <g id="Group_35" data-name="Group 35" transform="translate(0 0)">
    <g id="Group_30" data-name="Group 30">
      <g id="Group_29" data-name="Group 29" clip-path="url(#clip-path)">
        <rect id="Rectangle_19" data-name="Rectangle 19" width="12.504" height="12.408" transform="translate(-0.001 0)" fill="url(#linear-gradient)"/>
      </g>
    </g>
    <g id="Group_32" data-name="Group 32">
      <g id="Group_31" data-name="Group 31" clip-path="url(#clip-path-2)">
        <rect id="Rectangle_20" data-name="Rectangle 20" width="31.75" height="28.42" transform="translate(7.563 6.818)" fill="url(#linear-gradient-2)"/>
      </g>
    </g>
    <g id="Group_34" data-name="Group 34">
      <g id="Group_33" data-name="Group 33" clip-path="url(#clip-path-3)">
        <path id="Path_20" data-name="Path 20" d="M35.843,11.408H32.3v-1.22a2.884,2.884,0,0,0-2.84-2.93H17.283a2.956,2.956,0,0,0-2.84,2.93v1.22h-3.55c-1.81,0-3.01.87-3.31,2.38v.01a4.093,4.093,0,0,0-.08.8v3.67a4.018,4.018,0,0,0,1.3,3v1.62l.07.07c2.4,2.47,6.4,5.05,11.56,2.86.03-.01.06-.03.09-.04a17.952,17.952,0,0,0,1.81-.9,10.377,10.377,0,0,0,3.46-2.99,11.071,11.071,0,0,1,1.18-1.47c.91-.81,2.29-.95,6.5.15a14.221,14.221,0,0,0,4.54.52c.04,0,.08-.01.12-.01a4.04,4.04,0,0,0,1.08-2.32,3.908,3.908,0,0,0,.03-.49V14.6c0-2-1.27-3.19-3.4-3.19M17.8,8.168h11.75a.862.862,0,0,1,.86.87.851.851,0,0,1-.47.76.756.756,0,0,1-.39.1H17.8a.839.839,0,0,1-.76-.47.756.756,0,0,1-.1-.39.862.862,0,0,1,.86-.87" fill="#1592af"/>
        <path id="Path_21" data-name="Path 21" d="M35.913,10.978h-3.54V9.758a2.893,2.893,0,0,0-2.84-2.94H17.353a2.886,2.886,0,0,0-2.83,2.71,1.77,1.77,0,0,0-.01.23v1.22h-3.54c-1.99,0-3.23,1.04-3.39,2.81v.01c0,.12-.01.25-.01.37v3.67a4.018,4.018,0,0,0,1.3,3v1.62c2.37,2.47,6.36,5.1,11.52,2.97a.487.487,0,0,0,.11-.04c.52-.22.99-.44,1.41-.67a10.653,10.653,0,0,0,3.88-3.17,13.372,13.372,0,0,1,1.18-1.49c.92-.88,2.26-1.05,6.57.08a14.115,14.115,0,0,0,4.66.51,4.047,4.047,0,0,0,1.11-2.81v-3.67c0-2-1.26-3.19-3.4-3.19M29.943,9.8a.756.756,0,0,1-.39.1H17.8a.839.839,0,0,1-.76-.47.756.756,0,0,1-.1-.39.862.862,0,0,1,.86-.87h11.75a.862.862,0,0,1,.86.87.851.851,0,0,1-.47.76" fill="#99f1ff"/>
        <path id="Path_22" data-name="Path 22" d="M26.113,18.9h-4.87a.86.86,0,0,0-.86.86v5.56a.41.41,0,0,0,.01.11.625.625,0,0,0,.13.35.816.816,0,0,0,.72.41h4.87a.856.856,0,0,0,.86-.87v-5.56a.86.86,0,0,0-.86-.86m-.32,5.12a.862.862,0,0,1-.86.87h-2.51a.277.277,0,0,1-.09-.01.8.8,0,0,1-.42-.16.844.844,0,0,1-.36-.7v-2.96a.86.86,0,0,1,.87-.85h2.51a.851.851,0,0,1,.86.85Z" fill="#fff"/>
        <path id="Path_23" data-name="Path 23" d="M38.015,24.629v7.26a3.3,3.3,0,0,1-3.239,3.349H12.511c-.336-1.14-1.025-5.189,6.257-5.189,8.472,0,14.824.678,15.4-2.5.27-1.493,2.038-2.386,3.845-2.92" fill="#1592af"/>
      </g>
    </g>
  </g>
</svg>
