<?xml version="1.0" encoding="UTF-8"?><svg id="Layer_2" xmlns="http://www.w3.org/2000/svg" xmlns:xlink="http://www.w3.org/1999/xlink" viewBox="0 0 77.67 69.62"><defs><style>.cls-1{fill:url(#linear-gradient-2);}.cls-2{fill:#fff;}.cls-3{fill:#92d5fa;}.cls-4{fill:#1998d8;}.cls-5{fill:url(#linear-gradient);}</style><linearGradient id="linear-gradient" x1="27.88" y1="-3.39" x2="-.84" y2="25.32" gradientUnits="userSpaceOnUse"><stop offset="0" stop-color="#4198fa"/><stop offset="1" stop-color="#5bc4f3"/></linearGradient><linearGradient id="linear-gradient-2" x1="74.64" y1="24.02" x2="18.53" y2="64.76" xlink:href="#linear-gradient"/></defs><g id="Layer_1-2"><g><path class="cls-5" d="m23.75,10.37l-1.13-.69c-1.34-.81-2.07-2.33-1.86-3.89l.18-1.3c.02-.2.02-.4-.02-.57-.22-.81-1.03-1.32-1.86-1.13l-1.3.32c-1.5.38-3.08-.18-4.03-1.4l-.85-1.11c-.12-.14-.26-.26-.4-.36-.73-.45-1.68-.22-2.11.49l-.73,1.17c-.81,1.34-2.33,2.05-3.85,1.84l-1.34-.18c-.18-.02-.38,0-.55.04-.83.2-1.34,1.03-1.13,1.86l.3,1.28c.4,1.52-.18,3.1-1.42,4.05l-1.05.81c-.16.12-.28.28-.38.43-.43.71-.22,1.66.51,2.09l1.13.69c1.34.79,2.07,2.33,1.86,3.87l-.18,1.32c-.02.18,0,.38.04.55.2.83,1.03,1.32,1.86,1.15l1.28-.32c1.52-.4,3.12.18,4.05,1.42l.81,1.07c.32.4.81.63,1.3.59.51-.02.97-.3,1.22-.73l.71-1.15c.79-1.34,2.33-2.07,3.87-1.86l1.32.18c.2.04.38.02.57-.02.81-.2,1.32-1.03,1.11-1.86l-.3-1.28c-.4-1.52.18-3.12,1.42-4.05l1.07-.81c.16-.12.28-.26.38-.43.43-.71.22-1.64-.51-2.09Zm-11.2,7.57c-3.14.18-5.85-2.21-6.03-5.37-.18-3.14,2.21-5.83,5.37-6.01h.04c.1-.02.22-.02.3-.02,3.16,0,5.71,2.57,5.71,5.71s-2.37,5.53-5.39,5.69Z"/><path class="cls-1" d="m70.95,21.69h-6.99v-2.41c0-3.2-2.51-5.81-5.61-5.81h-24.06c-2.94,0-5.37,2.37-5.59,5.35-.02.16-.02.3-.02.45v2.41h-6.99c-3.93,0-6.38,2.05-6.7,5.55v.02c0,.24-.02.49-.02.73v7.25c-.02,2.25.91,4.41,2.57,5.93v21.83c0,1.44.45,2.79,1.22,3.87v.49h.38c1.17,1.36,2.88,2.25,4.8,2.25h44.77c3.54,0,6.4-2.96,6.4-6.62v-21.83c.14-.12.26-.24.38-.38.99-1.05,1.68-2.33,2-3.73.14-.59.2-1.21.2-1.82v-7.25c0-3.95-2.49-6.3-6.72-6.3Zm-10.87-3.83c0,.65-.38,1.22-.93,1.5v2.33h-25.68v-2.41c-.02-.24.04-.47.2-.65-.14-.24-.2-.49-.2-.77,0-.95.75-1.72,1.7-1.72h23.21c.95,0,1.7.77,1.7,1.72Z"/><path class="cls-4" d="m70.81,22.54h-6.99v-2.41c0-3.2-2.51-5.79-5.61-5.79h-24.06c-2.67,0-4.9,1.92-5.45,4.48-.1.41-.16.85-.16,1.3v2.41h-7.01c-3.58,0-5.95,1.72-6.54,4.7v.02c-.1.49-.16,1.03-.16,1.58v7.25c-.02,2.25.91,4.41,2.57,5.93v3.2l.14.14c4.74,4.88,12.64,9.98,22.84,5.65.06-.02.12-.06.18-.08,1.36-.59,2.55-1.19,3.58-1.78,3.73-2.11,5.55-4.19,6.84-5.91.89-1.17,1.52-2.17,2.33-2.9,1.8-1.6,4.52-1.88,12.84.3,3.5.93,6.48,1.19,8.97,1.03.08,0,.16-.02.24-.02,1.19-1.24,1.94-2.86,2.13-4.58.04-.32.06-.63.06-.97v-7.25c0-3.95-2.51-6.3-6.72-6.3Zm-35.64-6.4h23.21c.95,0,1.7.77,1.7,1.72,0,.65-.38,1.22-.93,1.5-.24.14-.49.2-.77.2h-23.21c-.67,0-1.22-.38-1.5-.93-.14-.24-.2-.49-.2-.77,0-.95.75-1.72,1.7-1.72Z"/><path class="cls-3" d="m70.95,21.69h-6.99v-2.41c0-3.2-2.51-5.81-5.61-5.81h-24.06c-2.94,0-5.37,2.37-5.59,5.35-.02.16-.02.3-.02.45v2.41h-6.99c-3.93,0-6.38,2.05-6.7,5.55v.02c0,.24-.02.49-.02.73v7.25c-.02,2.25.91,4.41,2.57,5.93v3.2c4.68,4.88,12.57,10.08,22.76,5.87.08-.02.14-.04.22-.08,1.03-.43,1.96-.87,2.79-1.32,4.27-2.21,6.28-4.45,7.67-6.26.91-1.19,1.54-2.19,2.33-2.94,1.82-1.74,4.46-2.07,12.98.16,3.62.95,6.66,1.21,9.21,1.01.99-1.05,1.68-2.33,2-3.73.14-.59.2-1.21.2-1.82v-7.25c0-3.95-2.49-6.3-6.72-6.3Zm-11.79-2.33c-.24.14-.49.2-.77.2h-23.21c-.67,0-1.22-.38-1.5-.93-.14-.24-.2-.49-.2-.77,0-.95.75-1.72,1.7-1.72h23.21c.95,0,1.7.77,1.7,1.72,0,.65-.38,1.22-.93,1.5Z"/><path class="cls-2" d="m51.59,37.33h-9.62c-.95,0-1.7.77-1.7,1.7v10.98c0,.08,0,.14.02.22.02.26.1.49.26.69.28.49.81.81,1.42.81h9.62c.95,0,1.7-.75,1.7-1.72v-10.98c0-.93-.75-1.7-1.7-1.7Zm-.63,10.12c0,.95-.75,1.72-1.7,1.72h-4.96c-.06,0-.12,0-.18-.02-.3-.02-.59-.14-.83-.32-.43-.3-.71-.81-.71-1.38v-5.85c0-.93.77-1.68,1.72-1.68h4.96c.95,0,1.7.75,1.7,1.68v5.85Z"/></g></g></svg>