<svg xmlns="http://www.w3.org/2000/svg" xmlns:xlink="http://www.w3.org/1999/xlink" width="31.076" height="45.199" viewBox="0 0 31.076 45.199">
  <defs>
    <clipPath id="clip-path">
      <path id="Path_6" data-name="Path 6" d="M19.774,28.25A5.666,5.666,0,0,0,25.425,22.6v-5.65h2.26l.565.565v6.5a6.994,6.994,0,0,1-7.061,7.065H9.887A6.992,6.992,0,0,1,2.825,24.01v-6.5l.563-.565H5.651V22.6a5.305,5.305,0,0,0,.059.79A5.664,5.664,0,0,0,11.3,28.25ZM11.3,0A5.666,5.666,0,0,0,5.651,5.647v8.476H2.26L0,16.383V24.01A9.829,9.829,0,0,0,9.887,33.9h4.237v8.476H4.236V45.2h22.6V42.377H16.949V33.9h4.24a9.828,9.828,0,0,0,9.887-9.891V16.383l-2.26-2.26H25.425V5.647A5.666,5.666,0,0,0,19.774,0Z" fill="none"/>
    </clipPath>
    <linearGradient id="linear-gradient" y1="1" x2="0.032" y2="1" gradientUnits="objectBoundingBox">
      <stop offset="0" stop-color="#2affde"/>
      <stop offset="1" stop-color="#00bfa1"/>
    </linearGradient>
    <clipPath id="clip-path-2">
      <rect id="Rectangle_12" data-name="Rectangle 12" width="31.076" height="45.199" transform="translate(0 0)" fill="none"/>
    </clipPath>
  </defs>
  <g id="Group_15" data-name="Group 15" transform="translate(-1038 -551)">
    <g id="Group_14" data-name="Group 14" transform="translate(1038 551)">
      <g id="Group_11" data-name="Group 11">
        <g id="Group_10" data-name="Group 10" clip-path="url(#clip-path)">
          <rect id="Rectangle_5" data-name="Rectangle 5" width="31.076" height="45.199" transform="translate(0 0)" fill="url(#linear-gradient)"/>
        </g>
      </g>
      <g id="Group_13" data-name="Group 13">
        <g id="Group_12" data-name="Group 12" clip-path="url(#clip-path-2)">
          <path id="Path_7" data-name="Path 7" d="M25.471,6.105v4.051a4.338,4.338,0,0,1-4.46,1.714c-7.235-1.462-7.694.184-10.165,3.847A4.06,4.06,0,0,1,5.7,17.407L5.716,6.561,5.7,6.522V6.105A5.665,5.665,0,0,1,11.344.458H19.82a5.666,5.666,0,0,1,5.651,5.647" fill="#05a083"/>
          <path id="Path_8" data-name="Path 8" d="M25.425,5.647V9.7a4.339,4.339,0,0,1-4.46,1.713C13.73,9.95,13.271,11.6,10.8,15.259a4.06,4.06,0,0,1-5.149,1.69L5.67,6.1l-.019-.039V5.647A5.665,5.665,0,0,1,11.3,0h8.476a5.666,5.666,0,0,1,5.651,5.647" fill="#48ffdc"/>
          <path id="Path_9" data-name="Path 9" d="M25.425,16.949V22.6a5.667,5.667,0,0,1-5.651,5.651H11.3A5.664,5.664,0,0,1,5.71,23.39a3.9,3.9,0,0,1,4.267-.346c2.287,1.324,4.347-1.831,7.644-5.266s7.8-.829,7.8-.829" fill="#05a083"/>
          <rect id="Rectangle_6" data-name="Rectangle 6" width="2.638" height="2.616" transform="translate(5.642 7.543)" fill="#fff"/>
          <rect id="Rectangle_7" data-name="Rectangle 7" width="2.637" height="2.602" transform="translate(5.648 11.538)" fill="#fff"/>
          <rect id="Rectangle_8" data-name="Rectangle 8" width="2.624" height="2.602" transform="translate(5.651 18.149)" fill="#fff"/>
          <rect id="Rectangle_9" data-name="Rectangle 9" width="2.638" height="2.616" transform="translate(22.822 7.543)" fill="#fff"/>
          <rect id="Rectangle_10" data-name="Rectangle 10" width="2.637" height="2.602" transform="translate(22.827 11.538)" fill="#fff"/>
          <rect id="Rectangle_11" data-name="Rectangle 11" width="2.624" height="2.602" transform="translate(22.831 18.149)" fill="#fff"/>
        </g>
      </g>
    </g>
  </g>
</svg>
