<?xml version="1.0" encoding="UTF-8"?><svg id="Layer_2" xmlns="http://www.w3.org/2000/svg" xmlns:xlink="http://www.w3.org/1999/xlink" viewBox="0 0 59.03 85.86"><defs><style>.cls-1{fill:#fff;}.cls-2{fill:#80ffe7;}.cls-3{fill:#00cea6;}.cls-4{fill:url(#linear-gradient);}</style><linearGradient id="linear-gradient" x1="52.17" y1="70.08" x2="7.62" y2="25.53" gradientUnits="userSpaceOnUse"><stop offset="0" stop-color="#00baa3"/><stop offset="1" stop-color="#41efcb"/></linearGradient></defs><g id="Layer_1-2"><g><path class="cls-4" d="m54.74,26.83h-6.44V10.73c0-5.9-4.83-10.73-10.73-10.73h-16.1c-5.9,0-10.73,4.83-10.73,10.73v16.1h-6.44L0,31.12v14.49c0,10.47,8.32,18.79,18.78,18.79h8.05v16.1H8.05v5.36h42.94v-5.36h-18.79v-16.1h8.05c10.47,0,18.78-8.32,18.78-18.79v-14.49l-4.29-4.29Zm-1.07,18.78c0,7.52-5.9,13.42-13.41,13.42h-21.47c-7.52,0-13.41-5.9-13.41-13.42v-12.34l1.07-1.07h4.3v10.73c0,.51.04,1.01.11,1.5.73,5.2,5.23,9.23,10.62,9.23h16.1c5.9,0,10.73-4.83,10.73-10.73v-10.73h4.29l1.07,1.07v12.34Z"/><path class="cls-3" d="m48.39,11.6v7.7c-2.07,2.54-4.81,3.99-8.47,3.25-13.74-2.78-14.62.35-19.31,7.31-4.05,6-9.78,3.21-9.78,3.21l.04-20.6-.04-.07v-.79C10.82,5.7,15.65.87,21.55.87h16.1c5.9,0,10.73,4.83,10.73,10.73Z"/><path class="cls-2" d="m48.33,10.73v7.7c-2.07,2.54-4.82,3.99-8.48,3.25-13.76-2.78-14.63.35-19.33,7.31-4.05,6-9.79,3.21-9.79,3.21l.04-20.6-.04-.07v-.79C10.73,4.83,15.57,0,21.47,0h16.12c5.91,0,10.74,4.83,10.74,10.73Z"/><rect class="cls-1" x="10.72" y="14.33" width="5.01" height="4.97"/><rect class="cls-1" x="10.73" y="21.92" width="5.01" height="4.94"/><rect class="cls-1" x="10.74" y="34.48" width="4.98" height="4.94"/><rect class="cls-1" x="43.35" y="14.33" width="5.01" height="4.97"/><rect class="cls-1" x="43.36" y="21.92" width="5.01" height="4.94"/><rect class="cls-1" x="43.37" y="34.48" width="4.98" height="4.94"/></g></g></svg>