<?xml version="1.0" encoding="UTF-8"?><svg id="Layer_2" xmlns="http://www.w3.org/2000/svg" xmlns:xlink="http://www.w3.org/1999/xlink" viewBox="0 0 58.69 74.59"><defs><style>.cls-1{fill:url(#linear-gradient-2);}.cls-2{fill:url(#linear-gradient-17);}.cls-3{fill:#ffc0d8;}.cls-4{fill:url(#linear-gradient-15);}.cls-5{fill:url(#linear-gradient-14);}.cls-6{fill:url(#linear-gradient-6);}.cls-7{fill:url(#linear-gradient-11);}.cls-8{fill:url(#linear-gradient-10);}.cls-9{fill:url(#linear-gradient-16);}.cls-10{fill:#ff3b7c;}.cls-11{fill:url(#linear-gradient-5);}.cls-12{fill:url(#linear-gradient-7);}.cls-13{fill:url(#linear-gradient-9);}.cls-14{fill:url(#linear-gradient-3);}.cls-15{fill:url(#linear-gradient);}.cls-16{fill:#ce157b;}.cls-17{fill:url(#linear-gradient-4);}.cls-18{fill:url(#linear-gradient-8);}.cls-19{fill:url(#linear-gradient-12);}.cls-20{fill:url(#linear-gradient-13);}</style><linearGradient id="linear-gradient" x1="28.59" y1="2.64" x2="30.11" y2="2.64" gradientUnits="userSpaceOnUse"><stop offset="0" stop-color="#ff7bc8"/><stop offset="1" stop-color="#fe5157"/></linearGradient><linearGradient id="linear-gradient-2" x1="46.14" y1="10.46" x2="50.32" y2="10.46" xlink:href="#linear-gradient"/><linearGradient id="linear-gradient-3" x1="8.37" y1="48.23" x2="12.56" y2="48.23" xlink:href="#linear-gradient"/><linearGradient id="linear-gradient-4" x1="53.41" y1="29.35" x2="58.69" y2="29.35" xlink:href="#linear-gradient"/><linearGradient id="linear-gradient-5" x1="0" y1="29.35" x2="5.28" y2="29.35" xlink:href="#linear-gradient"/><linearGradient id="linear-gradient-6" x1="46.14" y1="48.23" x2="50.32" y2="48.23" xlink:href="#linear-gradient"/><linearGradient id="linear-gradient-7" x1="8.37" y1="10.46" x2="12.56" y2="10.46" xlink:href="#linear-gradient"/><linearGradient id="linear-gradient-8" x1="38.17" y1="4.71" x2="41.15" y2="4.71" xlink:href="#linear-gradient"/><linearGradient id="linear-gradient-9" x1="51.56" y1="19.22" x2="56.56" y2="19.22" xlink:href="#linear-gradient"/><linearGradient id="linear-gradient-10" x1="2.13" y1="39.47" x2="7.14" y2="39.47" xlink:href="#linear-gradient"/><linearGradient id="linear-gradient-11" x1="51.48" y1="39.66" x2="56.48" y2="39.66" xlink:href="#linear-gradient"/><linearGradient id="linear-gradient-12" x1="2.22" y1="19.03" x2="7.21" y2="19.03" xlink:href="#linear-gradient"/><linearGradient id="linear-gradient-13" x1="17.75" y1="4.64" x2="20.7" y2="4.64" xlink:href="#linear-gradient"/><linearGradient id="linear-gradient-14" x1="21.84" y1="64.02" x2="37.33" y2="64.02" xlink:href="#linear-gradient"/><linearGradient id="linear-gradient-15" x1="21.84" y1="68.15" x2="37.33" y2="68.15" xlink:href="#linear-gradient"/><linearGradient id="linear-gradient-16" x1="25.95" y1="72.8" x2="33.14" y2="72.8" xlink:href="#linear-gradient"/><linearGradient id="linear-gradient-17" x1="9.99" y1="35.09" x2="49" y2="35.09" xlink:href="#linear-gradient"/></defs><g id="Layer_1-2"><g><g><path class="cls-15" d="m29.35,5.28c-.42,0-.76-.34-.76-.76V.76c0-.42.34-.76.76-.76s.76.34.76.76v3.76c0,.42-.34.76-.76.76Z"/><path class="cls-1" d="m46.9,12.56c-.19,0-.39-.07-.54-.22-.3-.3-.3-.78,0-1.08l2.66-2.66c.3-.3.78-.3,1.08,0,.3.3.3.78,0,1.08l-2.66,2.66c-.15.15-.34.22-.54.22Z"/><path class="cls-14" d="m9.13,50.32c-.19,0-.39-.07-.54-.22-.3-.3-.3-.78,0-1.08l2.66-2.66c.3-.3.78-.3,1.08,0,.3.3.3.78,0,1.08l-2.66,2.66c-.15.15-.34.22-.54.22Z"/><path class="cls-17" d="m57.93,30.11h-3.76c-.42,0-.76-.34-.76-.76s.34-.76.76-.76h3.76c.42,0,.76.34.76.76s-.34.76-.76.76Z"/><path class="cls-11" d="m4.52,30.11H.76c-.42,0-.76-.34-.76-.76s.34-.76.76-.76h3.76c.42,0,.76.34.76.76s-.34.76-.76.76Z"/><path class="cls-6" d="m49.56,50.32c-.19,0-.39-.07-.54-.22l-2.66-2.66c-.3-.3-.3-.78,0-1.08.3-.3.78-.3,1.08,0l2.66,2.66c.3.3.3.78,0,1.08-.15.15-.34.22-.54.22Z"/><path class="cls-12" d="m11.79,12.56c-.19,0-.39-.07-.54-.22l-2.66-2.66c-.3-.3-.3-.78,0-1.08.3-.3.78-.3,1.08,0l2.66,2.66c.3.3.3.78,0,1.08-.15.15-.34.22-.54.22Z"/><path class="cls-18" d="m38.93,7.21c-.1,0-.2-.02-.29-.06-.39-.16-.57-.61-.41-1l1.45-3.47c.16-.39.61-.57,1-.41.39.16.57.61.41,1l-1.45,3.47c-.12.29-.41.47-.7.47Z"/><path class="cls-13" d="m52.32,20.7c-.3,0-.58-.18-.71-.47-.16-.39.03-.83.42-.99l3.48-1.43c.39-.16.83.03.99.42.16.39-.03.83-.42.99l-3.48,1.43c-.09.04-.19.06-.29.06Z"/><path class="cls-8" d="m2.9,40.95c-.3,0-.58-.18-.71-.47-.16-.39.03-.83.42-.99l3.48-1.43c.39-.16.83.03.99.42.16.39-.03.83-.42.99l-3.48,1.43c-.09.04-.19.06-.29.06Z"/><path class="cls-7" d="m55.71,41.15c-.1,0-.2-.02-.29-.06l-3.47-1.45c-.39-.16-.57-.61-.41-1,.16-.39.61-.57,1-.41l3.47,1.45c.39.16.57.61.41,1-.12.29-.41.47-.7.47Z"/><path class="cls-19" d="m6.45,20.52c-.1,0-.2-.02-.29-.06l-3.47-1.45c-.39-.16-.57-.61-.41-1,.16-.39.61-.57,1-.41l3.47,1.45c.39.16.57.61.41,1-.12.29-.41.47-.7.47Z"/><path class="cls-20" d="m19.93,7.14c-.3,0-.58-.18-.71-.47l-1.43-3.48c-.16-.39.03-.83.42-.99.39-.16.83.03.99.42l1.43,3.48c.16.39-.03.83-.42.99-.09.04-.19.06-.29.06Z"/></g><path class="cls-5" d="m36.02,65.33h-12.87c-.73,0-1.31-.59-1.31-1.31h0c0-.73.59-1.31,1.31-1.31h12.87c.73,0,1.31.59,1.31,1.31h0c0,.73-.59,1.31-1.31,1.31Z"/><path class="cls-4" d="m36.02,69.46h-12.87c-.73,0-1.31-.59-1.31-1.31h0c0-.73.59-1.31,1.31-1.31h12.87c.73,0,1.31.59,1.31,1.31h0c0,.73-.59,1.31-1.31,1.31Z"/><path class="cls-9" d="m26.46,71.02c-.32,0-.56.29-.5.6.32,1.69,1.8,2.98,3.59,2.98s3.27-1.28,3.59-2.98c.06-.31-.18-.6-.5-.6h-6.17Z"/><path class="cls-2" d="m49,28.65c0,7.03-2.74,11.4-5.46,15.61-.03.06-.07.13-.12.19-2.53,3.91-4.89,7.59-5.33,13.42-.15,1.79-1.66,3.18-3.44,3.18h-10.32c-1.8,0-3.3-1.39-3.44-3.18-.17-2.28-.64-4.22-1.31-5.98-1-2.76-2.48-5.05-4.02-7.43-.89-1.36-1.76-2.71-2.56-4.2-.1-.17-.19-.35-.29-.54-.01-.01-.01-.03-.03-.04-.16-.33-.33-.67-.49-1.02-.12-.26-.22-.49-.33-.75h0c-1.12-2.6-1.87-5.56-1.87-9.25,0-9.63,6.88-17.71,16.36-19.25,2.22-.36,4.54-.33,6.75.09,1.21.23,2.35.55,3.46.96.38.15.74.3,1.1.48.71.33,1.41.71,2.08,1.12.33.2.65.42.97.64.32.22.62.45.93.7.26.2.51.41.74.62.19.17.38.35.57.54,1.06,1,2,2.15,2.82,3.38.13.22.26.42.39.64.23.39.45.78.65,1.18.15.28.28.55.41.83.07.12.13.25.17.36.07.15.13.3.19.46.25.57.45,1.15.62,1.74.06.17.1.35.15.54.44,1.6.65,3.25.65,4.98Z"/><path class="cls-16" d="m48.35,23.67c-.93.23-1.9.36-2.9.45-16.25,1.26,1.52,16.49-22.59,17.25-3.93.13-7.17-.3-9.84-1.12-.1-.17-.19-.35-.29-.54-.01-.01-.01-.03-.03-.04-.16-.33-.33-.67-.49-1.02-.12-.26-.22-.49-.33-.75h0c-.97-2.48-1.64-5.28-1.64-8.73,0-9.63,6.88-17.71,16.36-19.25,2.22-.36,4.54-.33,6.75.09,5.88,1.09,10.71,4.78,13.47,9.73.15.28.28.55.41.83.07.12.13.25.17.36.07.15.13.3.19.46.25.57.45,1.15.62,1.74.06.17.1.35.15.54Z"/><path class="cls-3" d="m48.14,23.08c-.96.23-1.96.38-2.99.46-16.25,1.26,1.52,16.49-22.59,17.25-3.95.13-7.19-.3-9.87-1.12-.16-.33-.33-.67-.49-1.02-.12-.26-.22-.49-.33-.75h0c-1.12-2.6-1.87-5.56-1.87-9.25,0-9.63,6.88-17.71,16.36-19.25,2.22-.36,4.54-.33,6.75.09,1.21.23,2.35.55,3.46.96.38.15.74.3,1.1.48.73.3,1.41.68,2.08,1.12.33.2.65.42.97.64.32.22.62.45.93.7.26.2.51.41.74.62.19.17.38.35.57.54,1.06,1,2,2.15,2.82,3.38.13.22.26.42.39.64.23.39.45.78.65,1.18.15.28.28.55.41.83.13.28.25.55.35.84.22.55.42,1.1.58,1.67Z"/><path class="cls-10" d="m19.94,36.87c-.29,0-.58-.14-.77-.39-5.26-7.23-1.38-14.02-1.22-14.3.27-.45.85-.6,1.3-.34.45.27.6.85.34,1.3-.15.25-3.4,6.03,1.11,12.23.31.42.22,1.02-.21,1.32-.17.12-.36.18-.56.18Z"/></g></g></svg>