<svg id="Group_57" data-name="Group 57" xmlns="http://www.w3.org/2000/svg" xmlns:xlink="http://www.w3.org/1999/xlink" width="34.027" height="34.029" viewBox="0 0 34.027 34.029">
  <defs>
    <clipPath id="clip-path">
      <path id="Path_30" data-name="Path 30" d="M28.426,14.077a2.991,2.991,0,0,0,.552,5.931,1.376,1.376,0,0,0,.144,0,2.99,2.99,0,0,0-.144-5.977,2.793,2.793,0,0,0-.552.051" fill="none"/>
    </clipPath>
    <linearGradient id="linear-gradient" x1="-2.927" y1="2.512" x2="-2.808" y2="2.512" gradientUnits="objectBoundingBox">
      <stop offset="0" stop-color="#ffc97a"/>
      <stop offset="1" stop-color="#ff3c3c"/>
    </linearGradient>
    <clipPath id="clip-path-2">
      <path id="Path_31" data-name="Path 31" d="M17.014,31.968a1.4,1.4,0,0,0,.144-.005s0,0,.009-.006a.064.064,0,0,0,.047,0,.788.788,0,0,0,.16-.015,1.129,1.129,0,0,0,.2-.031.247.247,0,0,0,.083-.015c.061-.011.118-.026.174-.041s.083-.027.124-.042a.777.777,0,0,0,.154-.057,1.542,1.542,0,0,0,.212-.092,1.05,1.05,0,0,0,.2-.1c.072-.037.139-.083.206-.124a2.455,2.455,0,0,0,.195-.155,1.5,1.5,0,0,0,.181-.159,2.682,2.682,0,0,0,.443-.546,3.641,3.641,0,0,0,.232-.433,1.409,1.409,0,0,0,.072-.2,2.883,2.883,0,0,0,.165-.969,3,3,0,0,0-2.993-2.989Z" fill="none"/>
    </clipPath>
    <linearGradient id="linear-gradient-2" x1="-2.418" y1="1.299" x2="-2.26" y2="1.299" xlink:href="#linear-gradient"/>
    <clipPath id="clip-path-3">
      <path id="Path_32" data-name="Path 32" d="M17.014,8.043a2.988,2.988,0,0,0,2.117-5.1c-.067-.067-.134-.129-.211-.2,0,0,0,0-.006,0a2.785,2.785,0,0,0-.473-.324,2.981,2.981,0,0,0-1.427-.361Z" fill="none"/>
    </clipPath>
    <linearGradient id="linear-gradient-3" x1="-2.417" y1="5.068" x2="-2.259" y2="5.068" xlink:href="#linear-gradient"/>
    <clipPath id="clip-path-4">
      <path id="Path_33" data-name="Path 33" d="M16.668,2.082a.919.919,0,0,0-.17.03,1.964,1.964,0,0,0-.258.052,2.991,2.991,0,0,0-1.149,5.178,3.113,3.113,0,0,0,.454.315,2.947,2.947,0,0,0,1.469.386,1.405,1.405,0,0,0,.144-.005,2.986,2.986,0,0,0,1.973-5.1c-.067-.067-.139-.134-.211-.2h-.006a2.644,2.644,0,0,0-.473-.324,2.981,2.981,0,0,0-1.427-.361,2.314,2.314,0,0,0-.346.021" fill="none"/>
    </clipPath>
    <linearGradient id="linear-gradient-4" x1="-1.511" y1="3.925" x2="-1.393" y2="3.925" gradientUnits="objectBoundingBox">
      <stop offset="0" stop-color="#ff3fc5"/>
      <stop offset="1" stop-color="#ff3c3c"/>
    </linearGradient>
    <clipPath id="clip-path-5">
      <path id="Path_34" data-name="Path 34" d="M16.472,26.042a2.956,2.956,0,0,0-1.128.458h-.005a2.844,2.844,0,0,0-.7.666v0a2.986,2.986,0,0,0,.469,4.111,2.966,2.966,0,0,0,1.9.686,1.4,1.4,0,0,0,.144-.005.178.178,0,0,0,.056-.006.788.788,0,0,0,.16-.015,1.129,1.129,0,0,0,.2-.031.247.247,0,0,0,.083-.015c.061-.011.118-.026.174-.041s.083-.027.124-.042a.777.777,0,0,0,.154-.057,1.542,1.542,0,0,0,.212-.092,1.05,1.05,0,0,0,.2-.1c.072-.037.139-.083.206-.124a2.455,2.455,0,0,0,.195-.155,1.5,1.5,0,0,0,.181-.159,2.682,2.682,0,0,0,.443-.546,3.641,3.641,0,0,0,.232-.433,1.409,1.409,0,0,0,.072-.2,2.883,2.883,0,0,0,.165-.969,3,3,0,0,0-2.993-2.989,2.686,2.686,0,0,0-.542.052" fill="none"/>
    </clipPath>
    <linearGradient id="linear-gradient-5" x1="-1.512" y1="1.097" x2="-1.394" y2="1.097" xlink:href="#linear-gradient-4"/>
    <clipPath id="clip-path-6">
      <path id="Path_35" data-name="Path 35" d="M2.062,17.016a2.991,2.991,0,1,0,2.991-2.99,2.995,2.995,0,0,0-2.991,2.99" fill="none"/>
    </clipPath>
    <linearGradient id="linear-gradient-6" x1="-0.097" y1="2.511" x2="0.021" y2="2.511" xlink:href="#linear-gradient-4"/>
    <clipPath id="clip-path-7">
      <path id="Path_36" data-name="Path 36" d="M24.98,0a.74.74,0,0,0-.155.015A1.242,1.242,0,0,0,24.7.051s0,0-.01,0A.606.606,0,0,0,24.567.1a.392.392,0,0,0-.087.047.4.4,0,0,0-.1.067A.333.333,0,0,0,24.3.284a.079.079,0,0,0-.031.03.28.28,0,0,0-.062.072.17.17,0,0,0-.025.031.377.377,0,0,0-.062.1v0a.367.367,0,0,0-.051.1.608.608,0,0,0-.047.134c0,.026-.195.86-.535,2.041a20.916,20.916,0,0,1-1.01,2.566c-.047.1-.1.206-.15.3-.15.309-.319.613-.5.912-.051.093-.108.185-.17.278-.118.191-.242.382-.381.567-.062.093-.134.185-.2.273a6.238,6.238,0,0,1-2.36,1.973c-.062.031-.129.057-.2.083a1.844,1.844,0,0,1-.288.1,1.978,1.978,0,0,1-.3.082c-.1.021-.2.042-.31.057a2.224,2.224,0,0,1-.314.03h-.015a2.37,2.37,0,0,1-.278.017,3.752,3.752,0,0,1-.645-.053c-3.2-.5-5.008-4.657-5.823-7.182-.34-1.186-.53-2.02-.541-2.046A1,1,0,0,0,8.063,1.2a20.751,20.751,0,0,0,.592,2.252A72.364,72.364,0,0,0,11.4,11.4C9.99,10.8,8.506,10.259,7.12,9.8s-2.664-.851-3.674-1.14a19.612,19.612,0,0,0-2.252-.592.994.994,0,0,0-1.17.757A1.042,1.042,0,0,0,0,9.027v.028a.991.991,0,0,0,.756.951c.026.011.86.2,2.04.541,2.69.861,7.24,2.866,7.24,6.468s-4.544,5.6-7.234,6.471c-1.186.341-2.02.531-2.046.536A1,1,0,0,0,0,24.978v.029a1.042,1.042,0,0,0,.024.206,1,1,0,0,0,1.17.757,21.017,21.017,0,0,0,2.252-.593A72.195,72.195,0,0,0,11.4,22.636a72,72,0,0,0-2.742,7.95,20.623,20.623,0,0,0-.592,2.252A.991.991,0,0,0,8.82,34a.82.82,0,0,0,.222.026,1,1,0,0,0,.963-.752c.011-.027.2-.861.541-2.041.835-2.6,2.732-6.931,6.1-7.219a2.812,2.812,0,0,1,.367-.02h.02c3.591.015,5.58,4.549,6.452,7.234.34,1.185.53,2.019.535,2.046a.969.969,0,0,0,.876.742A.828.828,0,0,0,25.212,34a1,1,0,0,0,.757-1.165,21.026,21.026,0,0,0-.593-2.252,72.577,72.577,0,0,0-2.638-7.7c-.031-.088-.067-.176-.1-.258a70.476,70.476,0,0,0,7.951,2.746,20.705,20.705,0,0,0,2.251.593.665.665,0,0,0,.1.016.887.887,0,0,0,.1,0,.649.649,0,0,0,.149-.015.954.954,0,0,0,.578-.314,1.061,1.061,0,0,0,.18-.284A1.572,1.572,0,0,0,34,25.213a1,1,0,0,0-.726-1.191c-.026,0-.861-.195-2.041-.536C28.545,22.621,24,20.622,24,17.015s4.544-5.6,7.234-6.468c1.185-.339,2.02-.53,2.046-.541a1,1,0,0,0-.439-1.942l-.149.031c-.129.026-.324.067-.571.128-.1.026-.212.053-.325.083s-.237.062-.366.1-.268.072-.408.118-.283.083-.432.134A71.377,71.377,0,0,0,22.635,11.4a1.233,1.233,0,0,0,.057-.144H22.7c.572-1.366,1.093-2.8,1.541-4.133.057-.176.113-.346.17-.515.391-1.185.716-2.278.968-3.159A21.159,21.159,0,0,0,25.969,1.2a1,1,0,0,0-.757-1.17A.878.878,0,0,0,24.98,0Z" fill="none"/>
    </clipPath>
    <linearGradient id="linear-gradient-7" x1="0.146" y1="0.854" x2="0.167" y2="0.854" xlink:href="#linear-gradient-4"/>
    <clipPath id="clip-path-8">
      <rect id="Rectangle_31" data-name="Rectangle 31" width="34.027" height="34.029" transform="translate(0 0)" fill="none"/>
    </clipPath>
  </defs>
  <g id="Group_42" data-name="Group 42">
    <g id="Group_41" data-name="Group 41" clip-path="url(#clip-path)">
      <rect id="Rectangle_24" data-name="Rectangle 24" width="8.457" height="8.457" transform="translate(22.998 17.017) rotate(-45)" fill="url(#linear-gradient)"/>
    </g>
  </g>
  <g id="Group_44" data-name="Group 44">
    <g id="Group_43" data-name="Group 43" clip-path="url(#clip-path-2)">
      <rect id="Rectangle_25" data-name="Rectangle 25" width="6.343" height="6.343" transform="translate(14.025 28.979) rotate(-45)" fill="url(#linear-gradient-2)"/>
    </g>
  </g>
  <g id="Group_46" data-name="Group 46">
    <g id="Group_45" data-name="Group 45" clip-path="url(#clip-path-3)">
      <rect id="Rectangle_26" data-name="Rectangle 26" width="6.346" height="6.346" transform="translate(14.023 5.052) rotate(-45)" fill="url(#linear-gradient-3)"/>
    </g>
  </g>
  <g id="Group_48" data-name="Group 48">
    <g id="Group_47" data-name="Group 47" clip-path="url(#clip-path-4)">
      <rect id="Rectangle_27" data-name="Rectangle 27" width="8.46" height="8.46" transform="translate(11.034 5.052) rotate(-45)" fill="url(#linear-gradient-4)"/>
    </g>
  </g>
  <g id="Group_50" data-name="Group 50">
    <g id="Group_49" data-name="Group 49" clip-path="url(#clip-path-5)">
      <rect id="Rectangle_28" data-name="Rectangle 28" width="8.457" height="8.457" transform="translate(11.036 28.979) rotate(-45)" fill="url(#linear-gradient-5)"/>
    </g>
  </g>
  <g id="Group_52" data-name="Group 52">
    <g id="Group_51" data-name="Group 51" clip-path="url(#clip-path-6)">
      <rect id="Rectangle_29" data-name="Rectangle 29" width="8.458" height="8.458" transform="translate(-0.929 17.017) rotate(-45)" fill="url(#linear-gradient-6)"/>
    </g>
  </g>
  <g id="Group_54" data-name="Group 54">
    <g id="Group_53" data-name="Group 53" clip-path="url(#clip-path-7)">
      <rect id="Rectangle_30" data-name="Rectangle 30" width="48.259" height="48.259" transform="translate(-17.064 16.971) rotate(-45)" fill="url(#linear-gradient-7)"/>
    </g>
  </g>
  <g id="Group_56" data-name="Group 56">
    <g id="Group_55" data-name="Group 55" clip-path="url(#clip-path-8)">
      <path id="Path_37" data-name="Path 37" d="M16.5,2.113a.781.781,0,0,1,.108,0h.047a2.974,2.974,0,0,1,1.381.361,2.635,2.635,0,0,1,.474.324h.005c.072.062.144.129.211.2a2.987,2.987,0,0,1-1.566,5.05,1.405,1.405,0,0,1-.145.005,2.937,2.937,0,0,1-1.468-.387,2.98,2.98,0,0,1-.454-.314A9.741,9.741,0,0,1,16.24,2.165Z" fill="#c1008f"/>
      <path id="Path_38" data-name="Path 38" d="M19.6,29.026a2.991,2.991,0,0,1-2.432,2.932s0,0-.01,0a1.4,1.4,0,0,1-.145.005,2.968,2.968,0,0,1-1.9-.685,2.891,2.891,0,0,1-.685-.814,5.018,5.018,0,0,1,.216-3.3v0a2.839,2.839,0,0,1,.7-.665h.005a2.956,2.956,0,0,1,1.128-.458,1.009,1.009,0,0,1,.134-.006,2.736,2.736,0,0,1,.407.031A2.99,2.99,0,0,1,19.6,29.026" fill="#c1008f"/>
      <path id="Path_39" data-name="Path 39" d="M31.56,17.061A3,3,0,0,1,29.123,20a1.405,1.405,0,0,1-.145,0,2.991,2.991,0,0,1-.551-5.931,1.386,1.386,0,0,1,.144-.005,2.991,2.991,0,0,1,2.989,2.989" fill="#c1008f"/>
      <path id="Path_40" data-name="Path 40" d="M33.6,25.259a1,1,0,0,1-.654.727.6.6,0,0,1-.1-.016,20.7,20.7,0,0,1-2.252-.592,70.705,70.705,0,0,1-7.951-2.747c.036.082.072.17.1.258l-.412-.17c-.031-.016-.067-.026-.1-.042.01.021.015.042.026.062a71.8,71.8,0,0,1,2.715,7.894,20.692,20.692,0,0,1,.593,2.252.99.99,0,0,1-.665,1.134.97.97,0,0,1-.876-.742c0-.026-.2-.861-.536-2.046-.871-2.684-2.86-7.219-6.451-7.234h-.021a2.993,2.993,0,0,0-.366.02c.119-.154.237-.314.366-.474.639-.83,1.345-1.742,2.066-2.8.073-.108.145-.216.217-.33.046-.067.093-.128.134-.2s.087-.14.129-.207c.061-.1.118-.19.17-.283,1.36-2.345.85-3.767-.253-5.179-.051-.067-.1-.134-.16-.2-.118-.144-.237-.288-.371-.432-.067-.083-.144-.17-.221-.253-.546-.613-1.149-1.252-1.711-2-.139-.181-.273-.371-.407-.567a9.4,9.4,0,0,1-.644-1.067,3.3,3.3,0,0,0,.459.047c.061,0,.123,0,.185,0a2.61,2.61,0,0,0,.407-.026,1.64,1.64,0,0,0,.278-.036h.016c.108-.005.211-.021.314-.031s.206-.036.309-.057.2-.051.3-.082.2-.062.289-.1c.067-.026.134-.051.2-.082A6.25,6.25,0,0,0,21.074,7.7c.067-.087.139-.18.2-.273.139-.185.262-.376.381-.567.062-.093.118-.185.17-.278.18-.3.35-.6.5-.912.051-.1.1-.2.149-.3A20.6,20.6,0,0,0,23.485,2.8c.34-1.18.531-2.015.536-2.041a.624.624,0,0,1,.046-.134.4.4,0,0,1,.052-.1v0a.377.377,0,0,1,.062-.1.138.138,0,0,1,.026-.031.275.275,0,0,1,.061-.072A.1.1,0,0,1,24.3.283a.374.374,0,0,1,.083-.072.426.426,0,0,1,.1-.067A.333.333,0,0,1,24.567.1a.588.588,0,0,1,.119-.047s0,0,.01,0c.036.005.072.016.108.021a1,1,0,0,1,.758,1.17,20.966,20.966,0,0,1-.593,2.251,72.262,72.262,0,0,1-2.741,7.951c.154-.067.309-.134.464-.19H22.7c-.021.051-.041.1-.062.144a71.349,71.349,0,0,1,7.951-2.741c.149-.052.293-.093.433-.134s.278-.083.407-.119.252-.067.366-.1.221-.057.324-.082c.247-.062.443-.1.572-.129a1,1,0,0,1,.18,1.958c-.025.01-.86.2-2.045.541-2.69.866-7.235,2.865-7.235,6.467s4.55,5.606,7.24,6.472c1.18.34,2.015.531,2.04.536a1,1,0,0,1,.727,1.19" fill="#c1008f"/>
      <path id="Path_41" data-name="Path 41" d="M20.007,5.055a2.99,2.99,0,0,1-2.85,2.983,1.148,1.148,0,0,1-.144.006,2.934,2.934,0,0,1-1.468-.387,9.449,9.449,0,0,1,1.108-5.549c.005-.011.01-.016.015-.026a2.45,2.45,0,0,1,.345-.021,2.982,2.982,0,0,1,1.428.361,2.693,2.693,0,0,1,.474.325h0c.072.061.144.128.211.195a2.981,2.981,0,0,1,.876,2.113" fill="#ffa6ce"/>
      <path id="Path_42" data-name="Path 42" d="M20.007,28.979a2.883,2.883,0,0,1-.165.969,1.55,1.55,0,0,1-.072.2,3.2,3.2,0,0,1-.232.432,2.7,2.7,0,0,1-.443.547,1.9,1.9,0,0,1-.18.159c-.062.057-.129.1-.2.155s-.134.088-.206.124a1.05,1.05,0,0,1-.2.1,1.464,1.464,0,0,1-.211.092.882.882,0,0,1-.155.057.947.947,0,0,1-.124.041,1.494,1.494,0,0,1-.175.041.221.221,0,0,1-.082.016,1.233,1.233,0,0,1-.2.031.866.866,0,0,1-.16.015.216.216,0,0,1-.057,0,1.148,1.148,0,0,1-.144.006,2.969,2.969,0,0,1-1.9-.686,5.307,5.307,0,0,1,.227-4.782h.005a2.95,2.95,0,0,1,1.128-.458,2.683,2.683,0,0,1,.541-.052,3,3,0,0,1,2.994,2.989" fill="#ffa6ce"/>
      <path id="Path_43" data-name="Path 43" d="M31.967,17.015A2.994,2.994,0,0,1,29.123,20a1.4,1.4,0,0,1-.145.005,2.991,2.991,0,0,1-.551-5.931,2.783,2.783,0,0,1,.551-.052,2.991,2.991,0,0,1,2.989,2.989" fill="#ffa6ce"/>
      <path id="Path_44" data-name="Path 44" d="M34,25.213a1.382,1.382,0,0,1-.052.165,1.135,1.135,0,0,1-.18.283.945.945,0,0,1-.577.315.85.85,0,0,1-.252.01.54.54,0,0,1-.1-.016,20.51,20.51,0,0,1-2.251-.592,70.5,70.5,0,0,1-7.951-2.747c.036.083.072.17.1.258a72.737,72.737,0,0,1,2.638,7.7,20.691,20.691,0,0,1,.593,2.252A1,1,0,0,1,25.211,34a.821.821,0,0,1-.314.015.969.969,0,0,1-.876-.742c0-.026-.2-.86-.536-2.045-.871-2.685-2.86-7.22-6.451-7.235.737-.964,1.582-2.025,2.452-3.3.114-.17.232-.345.351-.525.046-.067.087-.14.129-.207,1.643-2.628,1.015-4.127-.243-5.663-.185-.226-.381-.453-.592-.685a23.837,23.837,0,0,1-2.118-2.566,9.591,9.591,0,0,1-.592-.974.723.723,0,0,1-.052-.093,3.758,3.758,0,0,0,.644.052,2.343,2.343,0,0,0,.278-.016h.016c.108-.005.211-.02.314-.03s.206-.037.309-.057.2-.052.3-.083.2-.061.289-.1a2.017,2.017,0,0,0,.2-.082A6.25,6.25,0,0,0,21.074,7.7c.067-.087.139-.18.2-.273.14-.185.263-.376.382-.566.062-.093.118-.186.17-.279.18-.3.35-.6.5-.912.051-.1.1-.2.149-.3A20.539,20.539,0,0,0,23.485,2.8c.34-1.18.531-2.015.536-2.04a.589.589,0,0,1,.046-.134.4.4,0,0,1,.052-.1V.515a.356.356,0,0,1,.062-.1.118.118,0,0,1,.025-.031.3.3,0,0,1,.062-.073A.1.1,0,0,1,24.3.284a.379.379,0,0,1,.083-.073.436.436,0,0,1,.1-.067A.348.348,0,0,1,24.567.1a.513.513,0,0,1,.119-.046c0-.005,0-.005.01,0a1.036,1.036,0,0,1,.129-.036A.732.732,0,0,1,24.979,0a.87.87,0,0,1,.232.026,1,1,0,0,1,.758,1.17,20.965,20.965,0,0,1-.593,2.251c-.252.882-.577,1.974-.969,3.159-.056.17-.113.34-.17.515-.448,1.335-.968,2.767-1.54,4.133-.021.051-.042.1-.062.144a71.555,71.555,0,0,1,7.951-2.741c.149-.052.293-.093.433-.134s.278-.083.407-.119.252-.067.365-.1.222-.057.325-.083c.247-.062.443-.1.572-.129.077-.015.129-.025.149-.031a1,1,0,0,1,.438,1.943c-.025.01-.86.2-2.045.541C28.54,11.414,24,13.413,24,17.015s4.55,5.606,7.24,6.472c1.18.34,2.015.531,2.04.536A1,1,0,0,1,34,25.213" fill="#ffa6ce"/>
    </g>
  </g>
</svg>
