<?xml version="1.0" encoding="UTF-8"?><svg id="Layer_2" xmlns="http://www.w3.org/2000/svg" xmlns:xlink="http://www.w3.org/1999/xlink" viewBox="0 0 67.22 67.23"><defs><style>.cls-1{fill:url(#linear-gradient-2);}.cls-2{fill:#ffc0d8;}.cls-3{fill:url(#linear-gradient-6);}.cls-4{fill:url(#linear-gradient-5);}.cls-5{fill:url(#linear-gradient-7);}.cls-6{fill:#c1008f;}.cls-7{fill:url(#linear-gradient-3);}.cls-8{fill:url(#linear-gradient);}.cls-9{fill:url(#linear-gradient-4);}</style><linearGradient id="linear-gradient" x1="12.01" y1="-11.63" x2="66.8" y2="43.17" gradientUnits="userSpaceOnUse"><stop offset="0" stop-color="#ffc97a"/><stop offset="1" stop-color="#ff3c3c"/></linearGradient><linearGradient id="linear-gradient-2" x1="-11.02" y1="11.4" x2="43.78" y2="66.19" xlink:href="#linear-gradient"/><linearGradient id="linear-gradient-3" x1="12.59" y1="-12.26" x2="67.43" y2="42.58" xlink:href="#linear-gradient"/><linearGradient id="linear-gradient-4" x1="-9.09" y1="31.28" x2="56.33" y2="-1.35" gradientUnits="userSpaceOnUse"><stop offset="0" stop-color="#ff7bc8"/><stop offset="1" stop-color="#fe5157"/></linearGradient><linearGradient id="linear-gradient-5" x1="9.79" y1="69.13" x2="75.21" y2="36.51" xlink:href="#linear-gradient-4"/><linearGradient id="linear-gradient-6" x1="-4.36" y1="40.77" x2="61.07" y2="8.14" gradientTransform="translate(5.51 -1.16) rotate(9.22)" xlink:href="#linear-gradient-4"/><linearGradient id="linear-gradient-7" x1=".35" y1="50.21" x2="65.77" y2="17.58" xlink:href="#linear-gradient-4"/></defs><g id="Layer_1-2"><g><path class="cls-8" d="m63.15,33.61c0,3.17-2.49,5.75-5.62,5.9-.09.01-.19.01-.29.01-3.26,0-5.9-2.66-5.9-5.91,0-2.88,2.08-5.29,4.82-5.8.36-.07.71-.1,1.09-.1,3.26,0,5.9,2.65,5.9,5.9Z"/><path class="cls-1" d="m39.53,57.25c0,.67-.11,1.31-.33,1.91-.04.13-.08.25-.14.39-.06.15-.13.3-.21.44-.07.14-.15.29-.24.42-.24.4-.54.76-.88,1.08-.11.11-.23.22-.36.32-.12.11-.25.2-.39.31-.13.08-.26.17-.41.24-.12.08-.25.15-.39.2-.13.07-.27.13-.42.18-.1.05-.2.08-.31.11-.08.03-.16.06-.24.08-.11.03-.22.06-.35.08-.05.02-.11.03-.16.03-.12.03-.25.05-.39.06-.1.02-.21.03-.32.03-.03.01-.06.01-.09,0t-.02.01c-.09.01-.19.01-.29.01v-11.81c3.26,0,5.91,2.65,5.91,5.9Z"/><path class="cls-7" d="m39.53,9.99c0,3.26-2.66,5.9-5.91,5.9V4.07c1.02,0,1.97.25,2.82.71.34.18.65.4.94.64.01.01.01,0,.01,0,.15.13.29.25.42.39,1.07,1.07,1.73,2.55,1.73,4.17Z"/><g><path class="cls-9" d="m29.81,14.51c.27.23.58.44.9.62.86.49,1.84.76,2.9.76.09,0,.19,0,.29-.01,3.13-.14,5.63-2.73,5.63-5.89,0-1.63-.66-3.1-1.73-4.17-.13-.13-.27-.26-.42-.39h-.01c-.3-.25-.6-.46-.94-.64-.84-.46-1.8-.71-2.82-.71-.23,0-.46.01-.68.04-.11.01-.22.03-.34.06-.17.02-.35.06-.51.1-2.52.67-4.38,2.97-4.38,5.71,0,1.81.82,3.43,2.11,4.52Z"/><path class="cls-4" d="m33.61,51.35c-.37,0-.72.03-1.07.1-.81.14-1.58.47-2.23.91h-.01c-.53.36-1,.8-1.37,1.31h0c-.77,1.01-1.22,2.24-1.22,3.58,0,1.07.29,2.08.79,2.94.35.61.8,1.16,1.35,1.61,1.02.84,2.33,1.35,3.76,1.35.09,0,.19,0,.29-.01.04,0,.07,0,.11-.01.1,0,.21-.01.32-.03.13-.01.26-.03.39-.06.05,0,.11-.01.16-.03.12-.02.23-.05.35-.08.08-.02.16-.05.24-.08.1-.03.2-.06.31-.11.14-.05.29-.11.42-.18.13-.05.26-.12.39-.2.14-.07.27-.16.41-.24.13-.1.26-.19.39-.31.12-.09.24-.2.36-.32.34-.32.63-.68.88-1.08.09-.13.17-.27.24-.42.08-.14.15-.29.21-.44.06-.13.1-.25.14-.39.21-.6.33-1.24.33-1.91,0-3.26-2.66-5.9-5.91-5.9Z"/><circle class="cls-3" cx="9.98" cy="33.62" r="5.91" transform="translate(-5.26 2.03) rotate(-9.22)"/><path class="cls-5" d="m67.18,49.81c-.03.11-.06.22-.1.33-.09.2-.2.4-.36.56-.29.33-.69.56-1.14.62-.09.02-.19.03-.3.03-.07,0-.13,0-.2-.01-.07,0-.14-.02-.2-.03-.24-.05-2.09-.41-4.45-1.17-3.99-1.14-10.16-3.05-15.71-5.43.07.16.14.34.2.51,2.27,5.42,4.1,11.34,5.21,15.21.76,2.36,1.12,4.2,1.17,4.45.2,1.05-.46,2.07-1.5,2.3-.21.05-.43.06-.62.03-.82-.06-1.53-.63-1.73-1.47-.01-.05-.39-1.7-1.06-4.04-1.72-5.3-5.65-14.26-12.75-14.29h-.04c-.24,0-.48.01-.72.04-6.66.57-10.4,9.13-12.05,14.26-.67,2.33-1.05,3.98-1.07,4.03-.22.89-1.02,1.49-1.9,1.49-.14,0-.29-.01-.44-.05-1.04-.23-1.71-1.25-1.5-2.3.05-.24.41-2.09,1.17-4.45,1.14-3.99,3.05-10.15,5.42-15.71-5.56,2.36-11.73,4.28-15.71,5.42-2.36.76-4.21,1.12-4.45,1.17-1.05.22-2.08-.46-2.31-1.5-.23-1.05.41-2.09,1.45-2.35.05-.01,1.7-.39,4.04-1.06,5.31-1.72,14.29-5.66,14.29-12.79s-8.99-11.08-14.3-12.78c-2.33-.67-3.98-1.05-4.03-1.07-1.04-.25-1.68-1.29-1.45-2.34.23-1.04,1.26-1.72,2.31-1.5.23.05,2.09.4,4.45,1.17,2,.57,4.53,1.33,7.26,2.25,2.74.92,5.67,1.99,8.45,3.17-2.36-5.56-4.28-11.73-5.42-15.71-.76-2.36-1.12-4.21-1.17-4.45-.21-1.05.46-2.08,1.5-2.31,1.04-.23,2.09.41,2.34,1.45.02.05.4,1.7,1.07,4.04,1.61,4.99,5.18,13.2,11.5,14.19.41.07.83.1,1.27.1.18,0,.37-.01.55-.03h.03c.2,0,.42-.03.62-.06.21-.03.41-.07.61-.11s.4-.09.59-.16c.19-.05.39-.11.57-.19.13-.05.26-.1.39-.16,1.82-.8,3.36-2.21,4.66-3.9.13-.17.27-.36.4-.54.27-.37.52-.74.75-1.12.12-.18.23-.37.34-.55.36-.59.69-1.19.99-1.8.1-.19.2-.4.3-.6.86-1.79,1.52-3.57,2-5.07.67-2.33,1.05-3.98,1.06-4.03.02-.09.05-.18.09-.26.02-.07.06-.14.1-.2h0c.03-.08.07-.14.12-.2.01-.02.03-.04.05-.06.03-.05.07-.1.12-.14.02-.03.04-.05.06-.06.05-.06.1-.1.16-.14.06-.05.12-.1.19-.13.06-.04.11-.07.17-.09.08-.04.15-.07.23-.09t.02,0c.08-.03.17-.05.25-.07.1-.02.2-.03.31-.03.15,0,.31.01.46.05,1.04.23,1.7,1.26,1.5,2.31-.05.23-.41,2.09-1.17,4.45-.5,1.74-1.14,3.9-1.91,6.24-.11.34-.22.67-.34,1.02-.89,2.64-1.91,5.47-3.04,8.16h-.01c-.03.1-.07.19-.11.29,5.55-2.36,11.72-4.28,15.71-5.42.3-.1.58-.18.86-.26.27-.09.55-.16.8-.23.25-.07.5-.13.72-.19.22-.06.44-.11.64-.16.49-.12.88-.2,1.13-.25.15-.03.25-.05.3-.06,1.05-.22,2.07.46,2.3,1.5.23,1.05-.4,2.09-1.44,2.34-.05.02-1.7.4-4.04,1.07-5.31,1.71-14.29,5.66-14.29,12.78s8.99,11.08,14.3,12.79c2.33.67,3.98,1.05,4.03,1.06,1.04.26,1.67,1.3,1.44,2.35Z"/></g><g><path class="cls-6" d="m32.59,4.17c.07-.01.14-.01.21-.01h.09c.99.02,1.91.26,2.73.71.34.18.64.39.94.64h.01c.14.12.29.25.42.39,1.07,1.07,1.73,2.55,1.73,4.17,0,2.88-2.09,5.29-4.83,5.8-.09.01-.19.01-.29.01-1.06,0-2.05-.27-2.9-.76-.32-.18-.62-.39-.9-.62-.37-3.43.69-6.99,2.27-10.23l.51-.1Z"/><path class="cls-6" d="m38.72,57.34c0,2.87-2.08,5.28-4.8,5.79t-.02.01c-.09.01-.19.01-.29.01-1.43,0-2.74-.51-3.76-1.35-.55-.45-1.01-1-1.35-1.61-.63-2.45-.39-4.51.43-6.52h0c.38-.52.84-.97,1.37-1.32h.01c.65-.44,1.42-.76,2.23-.91.09-.01.17-.01.26-.01.27,0,.54.02.8.06,2.88.39,5.11,2.86,5.11,5.84Z"/><path class="cls-6" d="m62.35,33.71c0,2.88-2.08,5.3-4.82,5.81-.09.01-.19.01-.29.01-3.26,0-5.9-2.66-5.9-5.91,0-2.88,2.08-5.29,4.82-5.8.09-.01.19-.01.29-.01,3.26,0,5.9,2.65,5.9,5.9Z"/><path class="cls-6" d="m66.37,49.9c-.15.69-.66,1.22-1.29,1.44-.07,0-.14-.02-.2-.03-.24-.05-2.09-.41-4.45-1.17-3.99-1.14-10.16-3.05-15.71-5.43.07.16.14.34.2.51-.27-.11-.55-.22-.81-.34-.06-.03-.13-.05-.19-.08.02.04.03.08.05.12,2.34,5.53,4.23,11.64,5.36,15.6.76,2.36,1.12,4.2,1.17,4.45.19.99-.39,1.94-1.31,2.24-.82-.06-1.53-.63-1.73-1.47-.01-.05-.39-1.7-1.06-4.04-1.72-5.3-5.65-14.26-12.75-14.29h-.04c-.24,0-.48.01-.72.04.23-.31.47-.62.72-.94,1.26-1.64,2.66-3.44,4.08-5.53.14-.21.29-.43.43-.65.09-.13.18-.25.26-.39.09-.13.17-.27.25-.41.12-.19.23-.38.34-.56,2.69-4.63,1.68-7.44-.5-10.23-.1-.13-.2-.26-.32-.4-.23-.29-.47-.57-.73-.86-.13-.16-.29-.34-.44-.5-1.08-1.21-2.27-2.47-3.38-3.95-.27-.36-.54-.73-.8-1.12-.46-.66-.89-1.35-1.27-2.11.3.05.6.08.91.09.12.01.24.01.37.01.27,0,.54-.01.8-.05.18-.01.37-.03.55-.07h.03c.21-.01.42-.04.62-.06.21-.03.41-.07.61-.11.2-.05.4-.1.59-.16s.39-.12.57-.19c.13-.05.26-.1.39-.16,1.82-.8,3.36-2.21,4.66-3.9.13-.17.27-.36.4-.54.27-.37.52-.74.75-1.12.12-.18.23-.37.34-.55.36-.59.69-1.19.99-1.8.1-.19.2-.4.3-.6.86-1.79,1.52-3.57,2-5.07.67-2.33,1.05-3.98,1.06-4.03.02-.09.05-.18.09-.26.02-.07.06-.14.1-.2h0c.03-.08.07-.14.12-.2.01-.02.03-.04.05-.06.03-.05.07-.1.12-.14.02-.03.04-.05.06-.06.05-.06.1-.1.16-.14.06-.05.12-.1.19-.13.06-.04.11-.07.17-.09.08-.04.15-.07.23-.09t.02,0c.07.01.14.03.21.04,1.04.23,1.7,1.26,1.5,2.31-.05.23-.41,2.09-1.17,4.45-1.14,3.98-3.05,10.15-5.42,15.71.31-.13.61-.26.92-.38h.01c-.04.1-.08.19-.12.29,5.55-2.36,11.72-4.28,15.71-5.42.3-.1.58-.18.86-.26.27-.09.55-.16.8-.23.25-.07.5-.13.72-.19.22-.06.44-.11.64-.16.49-.12.88-.2,1.13-.25.86.04,1.6.66,1.79,1.53.23,1.05-.4,2.09-1.44,2.34-.05.02-1.7.4-4.04,1.07-5.31,1.71-14.29,5.66-14.29,12.78s8.99,11.08,14.3,12.79c2.33.67,3.98,1.05,4.03,1.06,1.04.26,1.67,1.3,1.44,2.35Z"/></g><g><path class="cls-2" d="m39.53,9.99c0,3.17-2.5,5.75-5.63,5.89-.09.01-.19.01-.29.01-1.06,0-2.05-.27-2.9-.76-.6-3.65.5-7.49,2.19-10.96.01-.02.02-.03.03-.05.22-.03.45-.04.68-.04,1.02,0,1.97.25,2.82.71.34.18.64.39.94.64h.01c.14.12.29.25.42.39,1.07,1.07,1.73,2.55,1.73,4.17Z"/><path class="cls-2" d="m39.53,57.25c0,.67-.11,1.31-.33,1.91-.04.13-.08.25-.14.39-.06.15-.13.3-.21.44-.07.14-.15.29-.24.42-.24.4-.54.76-.88,1.08-.11.11-.23.22-.36.32-.12.11-.25.2-.39.31-.13.08-.26.17-.41.24-.12.08-.25.15-.39.2-.13.07-.27.13-.42.18-.1.05-.2.08-.31.11-.08.03-.16.06-.24.08-.11.03-.22.06-.35.08-.05.02-.11.03-.16.03-.12.03-.25.05-.39.06-.1.02-.21.03-.32.03-.04.01-.07.01-.11.01-.09.01-.19.01-.29.01-1.43,0-2.74-.51-3.76-1.35-1.47-3.78-1.04-6.61.45-9.45h.01c.65-.44,1.42-.76,2.23-.91.35-.07.7-.1,1.07-.1,3.26,0,5.91,2.65,5.91,5.9Z"/><path class="cls-2" d="m63.15,33.61c0,3.17-2.49,5.75-5.62,5.9-.09.01-.19.01-.29.01-3.26,0-5.9-2.66-5.9-5.91,0-2.88,2.08-5.29,4.82-5.8.36-.07.71-.1,1.09-.1,3.26,0,5.9,2.65,5.9,5.9Z"/><path class="cls-2" d="m67.18,49.81c-.03.11-.06.22-.1.33-.09.2-.21.4-.36.56-.29.33-.69.56-1.14.62-.09.02-.19.03-.3.03-.07,0-.13,0-.2-.01-.07,0-.14-.02-.2-.03-.24-.05-2.09-.41-4.45-1.17-3.99-1.14-10.16-3.05-15.71-5.43.07.16.14.34.2.51,2.27,5.42,4.1,11.34,5.21,15.21.76,2.36,1.12,4.2,1.17,4.45.2,1.05-.46,2.07-1.5,2.3-.21.05-.43.06-.62.03-.82-.06-1.53-.63-1.73-1.47-.01-.05-.39-1.7-1.06-4.04-1.72-5.3-5.65-14.26-12.75-14.29,1.46-1.9,3.13-4,4.85-6.52.22-.34.46-.68.69-1.04.09-.13.17-.27.25-.41,3.25-5.19,2.01-8.15-.48-11.19-.37-.45-.75-.9-1.17-1.35-1.34-1.51-2.86-3.1-4.18-5.07-.42-.61-.81-1.24-1.17-1.92-.04-.06-.07-.12-.1-.18.41.07.83.1,1.27.1.18,0,.37-.01.55-.03h.03c.21-.01.42-.04.62-.06.21-.03.41-.07.61-.11.2-.05.4-.1.59-.16s.39-.12.57-.19c.13-.05.26-.1.39-.16,1.82-.8,3.36-2.21,4.66-3.9.13-.17.27-.36.4-.54.27-.37.52-.74.75-1.12.12-.18.23-.37.34-.55.36-.59.69-1.19.99-1.8.1-.19.2-.4.3-.6.86-1.79,1.52-3.57,2-5.07.67-2.33,1.05-3.98,1.06-4.03.02-.09.05-.18.09-.26.02-.07.06-.14.1-.2h0c.03-.08.07-.14.12-.2.01-.02.03-.04.05-.06.03-.05.07-.1.12-.14.02-.03.04-.05.06-.06.05-.06.1-.1.16-.14.06-.05.12-.1.19-.13.06-.04.11-.07.17-.09.08-.04.15-.07.23-.09t.02,0c.08-.03.17-.05.25-.07.1-.02.2-.03.31-.03.15,0,.31.01.46.05,1.04.23,1.7,1.26,1.5,2.31-.05.23-.41,2.09-1.17,4.45-.5,1.74-1.14,3.9-1.91,6.24-.11.34-.22.67-.34,1.02-.89,2.64-1.91,5.47-3.04,8.16-.04.1-.08.19-.12.29,5.55-2.36,11.72-4.28,15.71-5.42.3-.1.58-.18.86-.26.27-.09.55-.16.8-.23.25-.07.5-.13.72-.19.22-.06.44-.11.64-.16.49-.12.88-.2,1.13-.25.15-.03.25-.05.3-.06,1.05-.22,2.07.46,2.3,1.5.23,1.05-.4,2.09-1.44,2.34-.05.02-1.7.4-4.04,1.07-5.31,1.71-14.29,5.66-14.29,12.78s8.99,11.08,14.3,12.79c2.33.67,3.98,1.05,4.03,1.06,1.04.26,1.67,1.3,1.44,2.35Z"/></g></g></g></svg>