<?xml version="1.0" encoding="UTF-8"?><svg id="Layer_2" xmlns="http://www.w3.org/2000/svg" xmlns:xlink="http://www.w3.org/1999/xlink" viewBox="0 0 71.36 72.11"><defs><style>.cls-1{fill:url(#linear-gradient-2);}.cls-2{fill:#80ffe7;}.cls-3{fill:#00cea6;}.cls-4{fill:url(#linear-gradient);}</style><linearGradient id="linear-gradient" x1="0" y1="36.05" x2="49.05" y2="36.05" gradientUnits="userSpaceOnUse"><stop offset="0" stop-color="#2affde"/><stop offset="1" stop-color="#00bfa1"/></linearGradient><linearGradient id="linear-gradient-2" x1="38.63" y1="55.58" x2="71.36" y2="55.58" xlink:href="#linear-gradient"/></defs><g id="Layer_1-2"><g><path class="cls-2" d="m47.56,15.04v6.24c-1.2-.12-2.32-.27-3.3-.46-.36-.08-.71-.15-1.03-.24s-.64-.15-.93-.19c-2.32-.44-4.13-.32-5.62.24-.02,0-.02.02-.02.02-.34.12-.68.29-.98.47l-.02.02c-.3.17-.59.37-.86.61-.27.24-.54.49-.8.78-.12.14-.25.27-.37.42-.12.15-.24.3-.36.47-.12.15-.24.32-.34.49-.02.02-.03.05-.05.07-.2.32-.41.66-.59,1.01-.12.22-.22.44-.36.66-1.51,3.01-2.69,7.04-4.48,11.47-.17.41-.36.8-.56,1.17-.05.12-.12.24-.2.36-.93,1.59-2.17,2.72-3.57,3.5-.02-.03-.05-.05-.08-.08-.02,0-.03,0-.05.02-.42-.46-.85-.96-1.23-1.49-1.25-1.62-2.22-3.48-2.4-5.28-.03-.25-.05-.51-.05-.76,0-.24-.02-.44-.05-.63-.1-.58-.3-.83-.44-.9-.42-.1-.76-.42-.9-.86-.44-1.07-.79-2.17-1.05-3.28-.25-1.1-.44-2.22-.54-3.35,0-.1.02-.19.05-.3-.02-.02,0-.05,0-.07.2-.86.73-1.64,1.44-2.18v-7.95c0-.39.02-.79.07-1.2.66-6.16,6.17-13.84,14.8-13.84s11.28,4.21,11.77,6.65c.05.14.07.27.08.41,1.27.93,2.49,2.44,2.88,5.6.08.71.14,1.51.14,2.38Z"/><g><path class="cls-4" d="m49.05,25.54c-.2,2.27-.73,4.47-1.59,6.56-.17.46-.56.78-1.01.9-.3.47-.42,1.01-.37,1.56-.05,1.51-.51,2.98-1.3,4.26-.12.2-.27.37-.47.51-3.82,2.55-6.55,6.36-7.81,10.71-.54,1.78-.81,3.64-.81,5.55-.02,5.26,2.08,10.28,5.82,13.95.27.27.46.66.44,1.07,0,.83-.66,1.51-1.49,1.51H1.49c-.14,0-.25-.02-.36-.05-.66-.15-1.13-.76-1.13-1.45v-7.21c0-.14.02-.25.03-.37.78-3.15,2-6.21,5.62-7.44l13.19-4.41c3.11-1.32,4.55-6.5,4.87-8.47-.19-.17-.37-.36-.58-.54-.02-.03-.05-.05-.08-.08l-.05-.05c-.42-.46-.85-.96-1.23-1.49-1.25-1.61-2.18-3.45-2.4-5.21-.03-.25-.05-.51-.05-.76,0-.24-.02-.44-.05-.63-.08-.61-.29-.88-.44-.95-.42-.1-.76-.44-.9-.88-.42-1.05-.78-2.11-1.05-3.21-.25-1.1-.44-2.22-.54-3.35,0-.1.02-.19.05-.3-.02-.02,0-.05,0-.07.2-.86.73-1.64,1.44-2.18v-7.95c0-.39.02-.79.07-1.2.66-6.16,6.17-13.84,14.8-13.84s11.28,4.21,11.77,6.65c.05.14.07.27.08.41,1.27.93,2.49,2.44,2.88,5.6.08.71.14,1.51.14,2.38v7.95c.73.54,1.23,1.32,1.44,2.18.03.12.05.25.05.37Z"/><path class="cls-1" d="m66.56,43.91c-2.96-2.99-7.04-4.85-11.55-4.85-7.61,0-14.02,5.26-15.85,12.36v.02c-.36,1.34-.52,2.71-.52,4.14,0,4.28,1.62,8.19,4.26,11.11,2.99,3.33,7.31,5.41,12.11,5.41,9.02,0,16.34-7.41,16.36-16.53,0-4.55-1.84-8.68-4.8-11.67Zm-1.57,6.72l-11.91,12.03c-.58.58-1.52.58-2.1,0l-5.95-6c-.58-.59-.58-1.56,0-2.13.58-.59,1.52-.59,2.11,0l4.89,4.94,10.84-10.94c.58-.58,1.52-.56,2.1.03.58.58.58,1.49.02,2.08Z"/></g><path class="cls-3" d="m47.56,15.04v6.21c-1.18-.1-2.3-.24-3.3-.42-.36-.08-.71-.15-1.03-.24s-.64-.15-.93-.19c-2.33-.46-4.14-.34-5.62.24-.02,0-.02.02-.02.02-.34.12-.68.29-.98.47l-.02.02c-.3.17-.59.37-.86.61-.27.24-.54.49-.8.78-.14.14-.25.27-.37.42-.12.15-.24.3-.36.47-.12.15-.24.32-.34.49-.02.02-.03.05-.05.07-.2.32-.41.66-.59,1.01-.12.22-.22.44-.36.66-1.45,2.98-2.6,6.9-4.36,11.27-.2.49-.42.95-.68,1.37-.05.12-.12.24-.2.36-.96,1.56-2.23,2.64-3.65,3.42-.02,0-.03,0-.05.02-.42-.46-.85-.96-1.23-1.49-1.25-1.62-2.22-3.48-2.4-5.28-.03-.25-.05-.51-.05-.76,0-.24-.02-.44-.05-.63-.1-.58-.3-.83-.44-.9-.42-.1-.76-.42-.9-.86-.44-1.07-.79-2.17-1.05-3.28-.25-1.1-.44-2.22-.54-3.35,0-.1.02-.19.05-.3.2-.86.73-1.64,1.44-2.18v-8.02c0-.39.02-.79.07-1.2C18.57,7.71,24.09.07,32.7.07s11.23,4.13,11.77,6.58c.03.17.07.32.08.47,1.27.91,2.47,2.42,2.88,5.53.08.71.14,1.51.14,2.38Z"/><path class="cls-2" d="m47.56,15.04v5.53c-2-.14-3.77-.37-5.23-.71-9.83-2.37-10.49,5.21-14.5,15.14-1.25,3.11-3.54,4.75-6.07,5.53-1.25-1.61-2.18-3.45-2.4-5.21-.03-.25-.05-.51-.05-.76,0-.24-.02-.44-.05-.63-.08-.61-.29-.88-.44-.95-.42-.1-.76-.44-.9-.88-.42-1.05-.78-2.11-1.05-3.21-.25-1.1-.44-2.22-.54-3.35,0-.1.02-.19.05-.3-.02-.02,0-.05,0-.07.2-.86.73-1.64,1.44-2.18v-7.95c0-.39.02-.79.07-1.2.66-6.16,6.17-13.84,14.8-13.84s11.28,4.21,11.77,6.65c.05.14.07.27.08.41,1.27.93,2.49,2.44,2.88,5.6.08.71.14,1.51.14,2.38Z"/></g></g></svg>