<svg xmlns="http://www.w3.org/2000/svg" xmlns:xlink="http://www.w3.org/1999/xlink" width="42.189" height="42.189" viewBox="0 0 42.189 42.189">
  <defs>
    <clipPath id="clip-path">
      <path id="Path_1" data-name="Path 1" d="M19.336,0c-5.445,0-8.793,5.114-8.793,8.793v4.658a2.282,2.282,0,0,0-.854,1.276.979.979,0,0,0-.026.22,13.079,13.079,0,0,0,.939,3.838.734.734,0,0,0,.533.508c.1.05.287.3.287.93a6.026,6.026,0,0,0,1.446,3.492,10.538,10.538,0,0,0,.736.871c.143.135.279.27.414.4-.186,1.15-1.04,4.185-2.875,4.954l-7.8,2.588C1.2,33.244.482,35.037.025,36.871a.971.971,0,0,0-.025.22V41.31a.879.879,0,0,0,.668.854.842.842,0,0,0,.211.025h23.03a.879.879,0,0,0,.88-.879.828.828,0,0,0-.262-.626A11.43,11.43,0,0,1,26.193,23a.85.85,0,0,0,.279-.3,5.026,5.026,0,0,0,.769-2.493,1.425,1.425,0,0,1,.22-.9.869.869,0,0,0,.6-.525A13.067,13.067,0,0,0,29,14.94a.9.9,0,0,0-.025-.212,2.242,2.242,0,0,0-.854-1.276V8.794c0-2.833-.863-4-1.775-4.668C26.176,2.756,24.713,0,19.336,0Z" fill="none"/>
    </clipPath>
    <linearGradient id="linear-gradient" y1="1" x2="0.034" y2="1" gradientUnits="objectBoundingBox">
      <stop offset="0" stop-color="#2affde"/>
      <stop offset="1" stop-color="#00bfa1"/>
    </linearGradient>
    <clipPath id="clip-path-2">
      <rect id="Rectangle_2" data-name="Rectangle 2" width="42.189" height="42.189" transform="translate(0 0)" fill="none"/>
    </clipPath>
    <clipPath id="clip-path-3">
      <path id="Path_3" data-name="Path 3" d="M37.166,28.383a.882.882,0,0,1,1.251,1.242l-7.033,7.034a.887.887,0,0,1-1.243,0l-3.517-3.517A.879.879,0,0,1,27.867,31.9l2.891,2.892ZM23.149,30.09V30.1a9.476,9.476,0,0,0-.3,2.418,9.672,9.672,0,0,0,19.343.009v-.009A9.676,9.676,0,0,0,23.149,30.09" fill="none"/>
    </clipPath>
    <linearGradient id="linear-gradient-2" x1="-1.181" y1="1" x2="-1.129" y2="1" xlink:href="#linear-gradient"/>
  </defs>
  <g id="Group_9" data-name="Group 9" transform="translate(0 0)">
    <g id="Group_2" data-name="Group 2">
      <g id="Group_1" data-name="Group 1" clip-path="url(#clip-path)">
        <rect id="Rectangle_1" data-name="Rectangle 1" width="28.999" height="42.188" transform="translate(0 0.001)" fill="url(#linear-gradient)"/>
      </g>
    </g>
    <g id="Group_4" data-name="Group 4">
      <g id="Group_3" data-name="Group 3" clip-path="url(#clip-path-2)">
        <path id="Path_2" data-name="Path 2" d="M28.12,8.83v3.6a17.837,17.837,0,0,1-2.562-.389c-6.282-1.5-6.7,3.289-9.249,9.562A5.737,5.737,0,0,1,13.6,24.623a10.4,10.4,0,0,1-.735-.871,6.023,6.023,0,0,1-1.446-3.491c0-.626-.186-.88-.287-.93a.736.736,0,0,1-.533-.508,13.085,13.085,0,0,1-.938-3.838.971.971,0,0,1,.025-.22,2.289,2.289,0,0,1,.854-1.277V8.83c0-3.678,3.348-8.793,8.793-8.793,5.377,0,6.839,2.756,7.009,4.126C27.258,4.831,28.12,6,28.12,8.83" fill="#05a083"/>
      </g>
    </g>
    <g id="Group_6" data-name="Group 6">
      <g id="Group_5" data-name="Group 5" clip-path="url(#clip-path-3)">
        <rect id="Rectangle_3" data-name="Rectangle 3" width="19.343" height="19.336" transform="translate(22.845 22.853)" fill="url(#linear-gradient-2)"/>
      </g>
    </g>
    <g id="Group_8" data-name="Group 8">
      <g id="Group_7" data-name="Group 7" clip-path="url(#clip-path-2)">
        <path id="Path_4" data-name="Path 4" d="M28.12,8.793v3.238a19.1,19.1,0,0,1-3.086-.414c-5.817-1.387-6.206,3.052-8.573,8.86a5.4,5.4,0,0,1-3.593,3.238,6.023,6.023,0,0,1-1.446-3.491c0-.626-.186-.88-.287-.93a.736.736,0,0,1-.533-.508,13.085,13.085,0,0,1-.938-3.838.971.971,0,0,1,.025-.22,2.284,2.284,0,0,1,.854-1.276V8.793C10.543,5.115,13.891,0,19.336,0c5.377,0,6.839,2.756,7.009,4.126.913.668,1.775,1.835,1.775,4.667" fill="#48ffdc"/>
        <path id="Path_5" data-name="Path 5" d="M24.527,40.684a.829.829,0,0,1,.262.626.878.878,0,0,1-.879.879H.879a.9.9,0,0,1-.211-.025c-.642-1.886-.82-4.794,3.822-5.58,7.025-1.184,6.873,3.99,10.712-.22,3.4-3.729,4.142-7.339,6.366-7.094a11.412,11.412,0,0,0,2.959,11.414" fill="#05a083"/>
      </g>
    </g>
  </g>
</svg>
