<svg xmlns="http://www.w3.org/2000/svg" xmlns:xlink="http://www.w3.org/1999/xlink" width="44.774" height="38.706" viewBox="0 0 44.774 38.706">
  <defs>
    <clipPath id="clip-path">
      <path id="Path_136" data-name="Path 136" d="M1248.552,608.741s-3.373,5.61,2.443,7.363,11.631-4.325,13.608.7,6.63,11.22,6.63,11.22l13.957-25.6-13.376-5.143-9.654-5.26-12.329,5.26Z" transform="translate(-3 58.229)" fill="#36d955"/>
    </clipPath>
    <clipPath id="clip-path-2">
      <path id="Path_134" data-name="Path 134" d="M1248.547,608.667s-3.355,5.585,2.43,7.331,11.57-4.305,13.537.7,6.595,11.171,6.595,11.171l13.884-25.484-13.306-5.12-9.6-5.236-12.264,5.236Z" transform="translate(54 27.229)" fill="#55f69b"/>
    </clipPath>
  </defs>
  <g id="Group_151" data-name="Group 151" transform="translate(-1240.039 -591.739)">
    <path id="Path_127" data-name="Path 127" d="M38.7,30.206H19.146a1.387,1.387,0,0,1-1.384-1.384V16.662a1.387,1.387,0,0,1,1.384-1.384H38.7a1.34,1.34,0,0,1,1.029.459l4.4,4.888a3.119,3.119,0,0,1,.977,2.118,3.12,3.12,0,0,1-.977,2.118l-4.4,4.888A1.34,1.34,0,0,1,38.7,30.206Z" transform="matrix(0.259, -0.966, 0.966, 0.259, 1231.384, 638.061)" fill="#15b533" fill-rule="evenodd"/>
    <g id="Group_149" data-name="Group 149" transform="translate(1240.039 599.937)">
      <path id="Path_130" data-name="Path 130" d="M129.512,85.263,115.66,103.319a1.614,1.614,0,0,1-2.259.3L102.173,95a1.614,1.614,0,0,1-.3-2.259l13.852-18.056a1.56,1.56,0,0,1,1.153-.626l7.628-.6a3.24,3.24,0,0,1,3.911,3l1.4,7.523A1.559,1.559,0,0,1,129.512,85.263Z" transform="translate(-101.543 -73.44)" fill="#01df61" fill-rule="evenodd"/>
      <path id="Path_131" data-name="Path 131" d="M209.891,93.279l-13.852,18.056a1.614,1.614,0,0,1-2.259.3l-5.614-4.307,19.368-25.247a3.631,3.631,0,0,1,1.263,2.4L210.2,92A1.559,1.559,0,0,1,209.891,93.279Z" transform="translate(-181.923 -81.456)" fill="#01df61" fill-rule="evenodd"/>
    </g>
    <g id="Mask_Group_4" data-name="Mask Group 4" transform="translate(2.623 -58.518)" clip-path="url(#clip-path)">
      <path id="Path_135" data-name="Path 135" d="M21.376,15.193l-19.948.024a1.408,1.408,0,0,1-1.411-1.4L.033,1.461A1.416,1.416,0,0,1,1.447.052L21.4.028a1.366,1.366,0,0,1,1.049.465l4.479,4.96a3.154,3.154,0,0,1,.994,2.15,3.172,3.172,0,0,1-1,2.153l-4.491,4.971A1.373,1.373,0,0,1,21.376,15.193Z" transform="matrix(0.259, -0.966, 0.966, 0.259, 1247.726, 683.78)" fill="#36d955" fill-rule="evenodd"/>
    </g>
    <g id="Mask_Group_3" data-name="Mask Group 3" transform="translate(-54.377 -27.359)" clip-path="url(#clip-path-2)">
      <g id="Group_150" data-name="Group 150" transform="translate(1293.962 627.293)">
        <path id="Path_130-2" data-name="Path 130" d="M129.8,85.452,115.8,103.8a1.625,1.625,0,0,1-2.282.3l-11.342-8.751a1.646,1.646,0,0,1-.3-2.3l13.993-18.344a1.573,1.573,0,0,1,1.164-.636l7.706-.607a3.65,3.65,0,0,1,2.675.608,3.7,3.7,0,0,1,1.276,2.441l1.413,7.643A1.591,1.591,0,0,1,129.8,85.452Z" transform="translate(-101.543 -73.44)" fill="#55f69b" fill-rule="evenodd"/>
        <path id="Path_131-2" data-name="Path 131" d="M210.112,93.458,196.119,111.8a1.625,1.625,0,0,1-2.282.3l-5.671-4.376,19.566-25.65a3.7,3.7,0,0,1,1.276,2.441l1.413,7.643A1.591,1.591,0,0,1,210.112,93.458Z" transform="translate(-181.859 -81.446)" fill="#55f69b" fill-rule="evenodd"/>
      </g>
    </g>
    <path id="Path_143" data-name="Path 143" d="M77.48,67.92A1.278,1.278,0,1,1,76.2,69.2,1.277,1.277,0,0,1,77.48,67.92Zm4.432-.166-5.381,7.49a.492.492,0,0,0,.8.574l5.381-7.49a.492.492,0,0,0-.8-.574Zm-.156,5.287a1.278,1.278,0,1,1-1.278,1.278A1.277,1.277,0,0,1,81.755,73.041Z" transform="translate(1174.573 543.405)" fill="#fff" fill-rule="evenodd"/>
    <circle id="Ellipse_1" data-name="Ellipse 1" cx="1.781" cy="1.781" r="1.781" transform="translate(1259.695 604.567) rotate(-37.111)" fill="#fff"/>
  </g>
</svg>
