<svg xmlns="http://www.w3.org/2000/svg" xmlns:xlink="http://www.w3.org/1999/xlink" width="31.14" height="34.7" viewBox="0 0 31.14 34.7">
  <defs>
    <clipPath id="clip-path">
      <rect width="31.14" height="34.7" fill="none"/>
    </clipPath>
    <clipPath id="clip-path-2">
      <rect id="Rectangle_33" data-name="Rectangle 33" width="31.14" height="34.7" transform="translate(0 0)" fill="none"/>
    </clipPath>
  </defs>
  <g id="Repeat_Grid_1" data-name="Repeat Grid 1" clip-path="url(#clip-path)">
    <g id="Group_61" data-name="Group 61">
      <g id="Group_60" data-name="Group 60" clip-path="url(#clip-path-2)">
        <path id="Path_58" data-name="Path 58" d="M31.14,7.09V32.56a2.14,2.14,0,0,1-2.13,2.14H2.14A2.142,2.142,0,0,1,0,32.56V7.09A2.14,2.14,0,0,1,2.14,4.96H3.17V1.45a.6.6,0,0,1,.6-.61H7.31a.127.127,0,0,1,.06.01.592.592,0,0,1,.54.6V4.96H23.46V1.45A.615.615,0,0,1,23.9.86a.777.777,0,0,1,.16-.02H27.6a.6.6,0,0,1,.6.61V4.96h.81a2.138,2.138,0,0,1,2.13,2.13" fill="#1ea7dc"/>
        <path id="Path_59" data-name="Path 59" d="M31.14,6.25v9.2a27.513,27.513,0,0,0-8.27-3.29c-7.03-1.79-9.71,6.43-12.7,11.2-2.29,3.67-7.75,1.8-10.17.73V6.25A2.135,2.135,0,0,1,1.85,4.14h.48V4.12h.84V.6a.6.6,0,0,1,.6-.6H7.22a.585.585,0,0,1,.15.4V4.14H23.9V.4a.628.628,0,0,1,.14-.4H27.6a.6.6,0,0,1,.6.6V4.12h.74v.02h.36a2.135,2.135,0,0,1,1.84,2.11" fill="#127187"/>
        <path id="Path_60" data-name="Path 60" d="M31.117,26.05v6.46a2.134,2.134,0,0,1-2.129,2.135H10.633l.03-.265s.422-9.7,10.4-8.993c6.152.428,8.776.971,10.055.663" fill="#50c7e7"/>
        <path id="Path_61" data-name="Path 61" d="M31.14,6.25V15.4c-.41-.36-2.7-2.22-8.65-3.74-6.61-1.68-9.13,6.05-11.95,10.54-2.58,4.15-9.47.78-10.54.22V6.25A2.135,2.135,0,0,1,1.85,4.14a2.642,2.642,0,0,1,.29-.02H3.17V.6a.6.6,0,0,1,.6-.6H7.31a.6.6,0,0,1,.6.6V4.12H23.46V.6a.6.6,0,0,1,.58-.6H27.6a.6.6,0,0,1,.6.6V4.12h.81a2.825,2.825,0,0,1,.29.02,2.135,2.135,0,0,1,1.84,2.11" fill="#30bfeb"/>
        <path id="Path_62" data-name="Path 62" d="M25.052,13.518H23.161a1,1,0,0,1-1-1.005V10.781a1,1,0,0,1,1-1.005h1.891a1,1,0,0,1,1,1.005v1.732a1,1,0,0,1-1,1.005" fill="#fff"/>
        <path id="Path_63" data-name="Path 63" d="M20.766,13.518H18.875a1,1,0,0,1-1-1.005V10.781a1,1,0,0,1,1-1.005h1.891a1,1,0,0,1,1,1.005v1.732a1,1,0,0,1-1,1.005" fill="#fff"/>
        <path id="Path_64" data-name="Path 64" d="M25.123,17.611H23.232a1,1,0,0,1-1-1V14.874a1,1,0,0,1,1-1h1.891a1,1,0,0,1,1.005,1v1.732a1,1,0,0,1-1.005,1" fill="#fff"/>
        <path id="Path_65" data-name="Path 65" d="M20.836,17.611H18.945a1,1,0,0,1-1-1V14.874a1,1,0,0,1,1-1h1.891a1,1,0,0,1,1,1v1.732a1,1,0,0,1-1,1" fill="#fff"/>
        <path id="Path_66" data-name="Path 66" d="M16.549,17.611H14.658a1,1,0,0,1-1-1V14.874a1,1,0,0,1,1-1h1.891a1,1,0,0,1,1.005,1v1.732a1,1,0,0,1-1.005,1" fill="#fff"/>
        <path id="Path_67" data-name="Path 67" d="M16.549,21.722H14.658a1,1,0,0,1-1-1.005V18.985a1,1,0,0,1,1-1.005h1.891a1,1,0,0,1,1.005,1.005v1.732a1,1,0,0,1-1.005,1.005" fill="#fff"/>
        <path id="Path_68" data-name="Path 68" d="M12.262,21.722H10.371a1,1,0,0,1-1-1.005V18.985a1,1,0,0,1,1-1.005h1.891a1,1,0,0,1,1.005,1.005v1.732a1,1,0,0,1-1.005,1.005" fill="#fff"/>
      </g>
    </g>
  </g>
</svg>
