<?xml version="1.0" encoding="UTF-8"?><svg id="Layer_2" xmlns="http://www.w3.org/2000/svg" xmlns:xlink="http://www.w3.org/1999/xlink" viewBox="0 0 59.82 58.25"><defs><style>.cls-1{fill:#fff;}.cls-2{fill:#ff365d;}.cls-3{fill:#ff5c5c;}.cls-4{fill:url(#linear-gradient);}.cls-5{fill:#ff968f;}</style><linearGradient id="linear-gradient" x1="59.09" y1="62.06" x2="4.75" y2="7.71" gradientUnits="userSpaceOnUse"><stop offset="0" stop-color="#ff365d"/><stop offset="1" stop-color="#fe9270"/></linearGradient></defs><g id="Layer_1-2"><g><path class="cls-4" d="m59.82,11.21v43.62c0,.49-.08.99-.22,1.42-.14.16-.28.32-.43.47-.95.95-2.21,1.52-3.65,1.52H3.69c-1.15,0-2.21-.38-3.08-1.05-.14-.28-.28-.57-.38-.89-.06-.24-.12-.47-.16-.71-.04-.26-.06-.51-.06-.77V11.21C.02,8.47,2.25,6.24,5,6.24h4.98v3.73c0,1.72.87,3.24,2.19,4.15h.02c.79.53,1.74.85,2.79.85,2.75,0,4.98-2.23,4.98-5v-3.73h19.93v3.73c0,2.77,2.23,5,4.98,5,1.05,0,2-.32,2.79-.85h.02c1.3-.91,2.19-2.43,2.19-4.15v-3.73h4.98c2.75,0,4.98,2.23,4.98,4.98Z"/><path class="cls-2" d="m17.2,2.49v7.48c0,1.37-1.11,2.49-2.49,2.49-.69,0-1.31-.27-1.76-.74-.45-.45-.74-1.07-.74-1.76V2.49c0-1.38,1.12-2.49,2.49-2.49s2.49,1.11,2.49,2.49Z"/><path class="cls-2" d="m47.1,2.49v7.48c0,1.37-1.11,2.49-2.49,2.49-.69,0-1.31-.27-1.76-.74-.45-.45-.74-1.07-.74-1.76V2.49c0-1.38,1.12-2.49,2.49-2.49s2.49,1.11,2.49,2.49Z"/><path class="cls-3" d="m59.82,24.75v30.09c0,.49-.08.99-.22,1.42-.14.16-.28.32-.43.47-.95.95-2.21,1.52-3.65,1.52H3.69c-1.15,0-2.21-.38-3.08-1.05-.14-.28-.28-.57-.38-.89-.08-.2-.12-.4-.16-.59-.06-.3-.08-.59-.08-.89v-7.69s0-.02.02-.02v-4.01c.95-1.17,2.19-2.31,3.44-2.21.08,0,.18.02.28.02h.04c.73.08,1.76.22,2.94.36,2.23.32,5.06.65,7.27.49,1.17-.08,2.15-.3,2.84-.71.2-.12.49-.32.85-.55.63-.41,1.46-.99,2.45-1.68.28-.18.57-.4.89-.61.51-.36,1.09-.75,1.66-1.17,1.32-.95,2.81-2,4.35-3.04.02-.02.06-.04.08-.06.1-.08.22-.14.32-.22.67-.45,1.32-.93,2-1.38.95-.67,1.88-1.32,2.81-1.98.53-.36,1.07-.73,1.58-1.09.55-.38,1.09-.73,1.6-1.09.87-.57,1.68-1.11,2.45-1.62.75-.49,1.42-.93,2.03-1.3.06-.04.12-.08.18-.12.04-.02.1-.06.14-.08.85-.53,1.58-.97,2.11-1.22.67-.36,1.54-.57,2.55-.71.1-.02.2-.02.3-.04.02-.02.06-.02.08-.02,2.09-.2,4.64-.04,7.09.28.2.02.4.06.59.08.02.02.06.02.08.02,2.83.4,5.43.97,6.82,1.28Z"/><path class="cls-5" d="m59.8,29.13v25.7c0,.49-.08.97-.2,1.42-.14.16-.28.32-.43.47-.95.95-2.21,1.52-3.65,1.52H3.69c-1.15,0-2.21-.38-3.08-1.05-.14-.28-.28-.57-.38-.89-.08-.2-.12-.4-.16-.59-.06-.3-.08-.59-.08-.89v-7.69s0-.02.02-.02c.22-.3.45-.59.69-.87.02-.02.06-.06.08-.1,1.21-1.36,2.67-2.43,4.23-3.02h.04c1.38-.51,2.86-.65,4.35-.3.49.12.97.24,1.44.32,1.28.26,2.49.4,3.71.34h.02c1.26-.04,2.51-.26,3.85-.75,1.78-.61,3.69-1.68,5.91-3.32.97-.69,1.98-1.52,3.08-2.47.73-.63,1.48-1.32,2.29-2.05.69-.65,1.4-1.32,2.13-2.05,2.53-2.47,5.35-4.03,8.24-4.94,1.6-.51,3.2-.81,4.78-.97,2.67-.28,5.24-.14,7.45.16,4.31.57,7.31,1.78,7.31,1.78l.18.26Z"/><g><rect class="cls-1" x="32.4" y="20.73" width="7.48" height="7.48" rx="1.25" ry="1.25"/><rect class="cls-1" x="44.86" y="20.73" width="7.48" height="7.48" rx="1.25" ry="1.25"/><rect class="cls-1" x="7.48" y="31.95" width="7.48" height="7.48" rx="1.25" ry="1.25"/><rect class="cls-1" x="19.94" y="31.95" width="7.48" height="7.48" rx="1.25" ry="1.25"/><rect class="cls-1" x="32.4" y="31.95" width="7.48" height="7.48" rx="1.25" ry="1.25"/><rect class="cls-1" x="44.86" y="31.95" width="7.48" height="7.48" rx="1.25" ry="1.25"/><rect class="cls-1" x="7.48" y="43.16" width="7.48" height="7.48" rx="1.25" ry="1.25"/><rect class="cls-1" x="19.94" y="43.16" width="7.48" height="7.48" rx="1.25" ry="1.25"/><rect class="cls-1" x="32.4" y="43.16" width="7.48" height="7.48" rx="1.25" ry="1.25"/></g></g></g></svg>