<svg xmlns="http://www.w3.org/2000/svg" xmlns:xlink="http://www.w3.org/1999/xlink" width="39.622" height="35.068" viewBox="0 0 39.622 35.068">
  <defs>
    <clipPath id="clip-path">
      <path id="Path_24" data-name="Path 24" d="M1.634,0A1.654,1.654,0,0,0,0,1.415v.008a1.668,1.668,0,0,0,.068.294A1.68,1.68,0,0,0,1.145,2.779a.214.214,0,0,0,.052.015,1.66,1.66,0,0,0,.181.037c.03.008.06.008.09.015a.5.5,0,0,0,.151.023H4.782a.562.562,0,0,1,.549.452l.06.308.6,3.2.083.436.045.219.948,4.984,1.506,7.922.332,1.731a5,5,0,0,0,4.909,4.059h20a1.664,1.664,0,1,0,0-3.328h-20A1.689,1.689,0,0,1,12.176,21.5l-.369-1.981H31.821a5,5,0,0,0,4.827-3.7l1.687-6.265.172-.64.009-.024.978-3.636c0-.008.008-.015.008-.023a.134.134,0,0,0,.007-.052,2.787,2.787,0,0,0,.083-.6V4.533a1.891,1.891,0,0,0-.038-.421,2.767,2.767,0,0,0-2.628-1.9H8.4A3.861,3.861,0,0,0,5.09.008C5,0,4.9,0,4.811,0Z" fill="none"/>
    </clipPath>
    <linearGradient id="linear-gradient" x1="0.071" y1="0.968" x2="0.092" y2="0.968" gradientUnits="objectBoundingBox">
      <stop offset="0" stop-color="#f8b439"/>
      <stop offset="1" stop-color="#f69b37"/>
    </linearGradient>
    <clipPath id="clip-path-2">
      <rect id="Rectangle_23" data-name="Rectangle 23" width="39.622" height="35.068" transform="translate(0 0)" fill="none"/>
    </clipPath>
  </defs>
  <g id="Group_40" data-name="Group 40" transform="translate(0 0)">
    <g id="Group_37" data-name="Group 37">
      <g id="Group_36" data-name="Group 36" clip-path="url(#clip-path)">
        <rect id="Rectangle_22" data-name="Rectangle 22" width="46.123" height="46.83" transform="matrix(0.68, -0.733, 0.733, 0.68, -13.054, 14.066)" fill="url(#linear-gradient)"/>
      </g>
    </g>
    <g id="Group_39" data-name="Group 39">
      <g id="Group_38" data-name="Group 38" clip-path="url(#clip-path-2)">
        <path id="Path_25" data-name="Path 25" d="M8.842,31.736a3.332,3.332,0,1,1,3.331,3.332,3.331,3.331,0,0,1-3.331-3.332" fill="#f6ce76"/>
        <path id="Path_26" data-name="Path 26" d="M32.155,28.405a3.332,3.332,0,1,1-3.332,3.331,3.331,3.331,0,0,1,3.332-3.331h0Z" fill="#f6ce76"/>
        <path id="Path_27" data-name="Path 27" d="M39.592,4.533l-.008.008c-.225.278-4.909,5.91-9.879,8.99H29.7c-.008.008-.015.008-.023.015-.3.181-.595.362-.9.52-2.989,1.641-5.986,2.191-8.1-.053C15.369,8.4,8.539,11.664,7.093,12.454c-.007.008-.015.015-.022.015L6.122,7.485l-.045-.219L5.994,6.83l-.6-3.2-.06-.308a.562.562,0,0,0-.549-.452H1.619a.527.527,0,0,1-.151-.023c-.03-.007-.06-.007-.09-.015A1.491,1.491,0,0,1,1.2,2.794a.2.2,0,0,1-.052-.015A1.683,1.683,0,0,1,.068,1.717,1.689,1.689,0,0,1,0,1.423V1.416A1.654,1.654,0,0,1,1.634,0H4.812C4.9,0,5,0,5.09.008A3.862,3.862,0,0,1,8.4,2.214H36.926a2.766,2.766,0,0,1,2.628,1.9,1.967,1.967,0,0,1,.038.422" fill="#e58729"/>
        <path id="Path_28" data-name="Path 28" d="M39.614,4.714l-.008.008v.007a2.3,2.3,0,0,1-.067.437.044.044,0,0,1-.008.03.1.1,0,0,1-.007.045l-.979,3.637-.038.038-.173.64a14.988,14.988,0,0,1-8.516,4.435H29.81c-.037.007-.068.007-.1.015-.3.03-.61.052-.926.06-2.794.083-6-.851-9.48-3.629C13.26,5.625,8.922,5.836,6.1,7.259c-.008,0-.015.008-.023.008L5.993,6.83l-.6-3.2-.06-.309a.563.563,0,0,0-.55-.452H1.619a.526.526,0,0,1-.151-.022c-.03-.008-.06-.008-.09-.015A1.617,1.617,0,0,1,1.2,2.794a.219.219,0,0,1-.053-.015A1.683,1.683,0,0,1,.067,1.717,1.669,1.669,0,0,1,0,1.423V1.416A1.654,1.654,0,0,1,1.634,0H4.811C4.9,0,5,0,5.09.008A3.892,3.892,0,0,1,8.32,2.214H36.843a2.778,2.778,0,0,1,2.741,2.327.31.31,0,0,1,.007.037.709.709,0,0,1,.015.128Z" fill="#d38137"/>
        <path id="Path_29" data-name="Path 29" d="M39.607,4.706l.008.008-.008.007v.008a2.277,2.277,0,0,1-.068.436.046.046,0,0,1-.007.03.094.094,0,0,1-.008.046l-.979,3.637-.037.037A15.6,15.6,0,0,1,30.8,13.35a8.489,8.489,0,0,1-1.092.181H29.7c-3.012.324-6.529-.482-10.4-3.569C13.207,5.105,8.848,5.361,6.024,6.814L5.361,3.305a.562.562,0,0,0-.549-.451H1.649a1.378,1.378,0,0,1-.181-.008c-.03-.007-.06-.007-.09-.015A1.5,1.5,0,0,1,1.2,2.793a.168.168,0,0,1-.052-.015A1.679,1.679,0,0,1,.068,1.717,1.71,1.71,0,0,1,0,1.423V1.415A1.654,1.654,0,0,1,1.634,0H4.812C4.9,0,5,0,5.09.007A3.863,3.863,0,0,1,8.4,2.214H36.926a2.766,2.766,0,0,1,2.628,1.9l.053.173V4.3a1.076,1.076,0,0,1,.015.219.465.465,0,0,1-.015.143c.008.015,0,.03,0,.045" fill="#f6ce76"/>
      </g>
    </g>
  </g>
</svg>
