<?xml version="1.0" encoding="UTF-8"?><svg id="Layer_2" xmlns="http://www.w3.org/2000/svg" xmlns:xlink="http://www.w3.org/1999/xlink" viewBox="0 0 71.62 63.39"><defs><style>.cls-1{fill:#fcc043;}.cls-2{fill:#f47a14;}.cls-3{fill:url(#linear-gradient);}</style><linearGradient id="linear-gradient" x1="20.43" y1="2.8" x2="64.17" y2="43.39" gradientUnits="userSpaceOnUse"><stop offset="0" stop-color="#fe9734"/><stop offset="1" stop-color="#fbc640"/></linearGradient></defs><g id="Layer_1-2"><g><path class="cls-3" d="m71.57,8.19v.08c-.01.37-.05.72-.15,1.09,0,.03,0,.07-.01.1,0,.01-.01.03-.01.04l-1.77,6.57v.04s-.33,1.16-.33,1.16l-3.05,11.32c-1.06,3.95-4.64,6.68-8.72,6.68H21.34l.67,3.58c.29,1.42,1.52,2.44,2.97,2.45h36.15c1.67,0,3.02,1.35,3.02,3.01s-1.35,3.01-3.02,3.01H24.98c-4.34,0-8.06-3.08-8.87-7.34l-.6-3.13-2.72-14.32-1.72-9.01-.08-.39-.15-.79-1.09-5.78-.11-.56c-.1-.48-.52-.82-.99-.82H2.93c-.1,0-.18-.01-.27-.04-.05-.01-.11-.01-.16-.03-.11-.01-.22-.04-.33-.07-.03,0-.05-.01-.1-.03-.91-.29-1.63-1.01-1.95-1.92-.05-.16-.1-.34-.12-.53h0C.23,1.1,1.44,0,2.95,0h5.74c.16,0,.34,0,.5.01,2.57.12,4.89,1.65,5.99,3.99h51.56c2.22,0,4.1,1.44,4.75,3.43.05.24.07.5.07.76Z"/><path class="cls-1" d="m15.98,57.37c0-3.33,2.7-6.02,6.02-6.02s6.02,2.7,6.02,6.02-2.7,6.02-6.02,6.02-6.02-2.7-6.02-6.02h0Z"/><path class="cls-1" d="m58.13,51.35c3.33,0,6.02,2.7,6.02,6.02s-2.7,6.02-6.02,6.02-6.02-2.7-6.02-6.02c0-3.33,2.7-6.02,6.03-6.02,0,0,0,0,0,0h0Z"/><path class="cls-2" d="m71.61,8.52h-.01v.03c-.01.26-.05.52-.12.79,0,.01,0,.04-.01.05,0,.03,0,.05-.01.08l-1.77,6.57s-.04.04-.07.07l-.31,1.16c-3.18,3.16-8.53,7.2-15.39,8.02h-.01c-.07.01-.12.01-.19.03-.54.05-1.1.1-1.67.11-5.05.15-10.85-1.54-17.14-6.56-10.92-8.7-18.76-8.32-23.86-5.74-.01,0-.03.01-.04.01l-.15-.79-1.09-5.78-.11-.56c-.1-.48-.52-.82-.99-.82H2.93c-.1,0-.18-.01-.27-.04-.05-.01-.11-.01-.16-.03-.11-.01-.22-.04-.33-.07-.03,0-.05-.01-.1-.03-.91-.29-1.63-1.01-1.95-1.92-.05-.16-.1-.34-.12-.53h0C.23,1.1,1.44,0,2.95,0h5.74c.16,0,.34,0,.5.01,2.5.19,4.75,1.69,5.84,3.99h51.56c2.49,0,4.56,1.81,4.95,4.21,0,.01.01.04.01.07.01.08.03.15.03.23h.01Z"/><path class="cls-1" d="m71.6,8.51h.01s0,.01-.01.03h0c-.01.27-.05.53-.12.8,0,.01,0,.04-.01.05,0,.03,0,.05-.01.08l-1.77,6.57s-.04.04-.07.07c-2.87,2.9-7.7,6.75-13.94,8.02-.64.15-1.29.26-1.97.33h-.01c-5.44.59-11.8-.87-18.8-6.45-11.01-8.78-18.89-8.32-24-5.69l-1.2-6.34c-.1-.48-.52-.82-.99-.82H2.98c-.11,0-.22,0-.33-.01-.05-.01-.11-.01-.16-.03-.11-.01-.22-.04-.33-.07-.03,0-.05-.01-.1-.03-.91-.29-1.63-1.01-1.95-1.92-.05-.16-.1-.34-.12-.53h0C.23,1.1,1.44,0,2.95,0h5.74c.16,0,.34,0,.5.01,2.57.12,4.89,1.65,5.99,3.99h51.56c2.22,0,4.1,1.44,4.75,3.43l.1.31v.03c.03.14.03.26.03.39,0,.08,0,.18-.03.26.01.03,0,.05,0,.08Z"/></g></g></svg>