<?xml version="1.0" encoding="UTF-8"?><svg id="Layer_2" xmlns="http://www.w3.org/2000/svg" xmlns:xlink="http://www.w3.org/1999/xlink" viewBox="0 0 61.09 61.25"><defs><style>.cls-1{fill:url(#linear-gradient-2);}.cls-2{fill:url(#linear-gradient-6);}.cls-3{fill:#92d5fa;}.cls-4{fill:#1998d8;}.cls-5{fill:url(#linear-gradient-5);}.cls-6{fill:url(#linear-gradient-7);}.cls-7{fill:url(#linear-gradient-3);}.cls-8{fill:url(#linear-gradient);}.cls-9{fill:url(#linear-gradient-4);}</style><linearGradient id="linear-gradient" x1="-13.33" y1="9.48" x2="36.74" y2="59.55" gradientUnits="userSpaceOnUse"><stop offset="0" stop-color="#4198fa"/><stop offset="1" stop-color="#5bc4f3"/></linearGradient><linearGradient id="linear-gradient-2" x1="-24.95" y1="21.1" x2="25.12" y2="71.17" xlink:href="#linear-gradient"/><linearGradient id="linear-gradient-3" x1="-13.48" y1="9.63" x2="36.59" y2="59.7" xlink:href="#linear-gradient"/><linearGradient id="linear-gradient-4" x1="4.11" y1="-7.96" x2="54.18" y2="42.11" xlink:href="#linear-gradient"/><linearGradient id="linear-gradient-5" x1="-3.67" y1="-.19" x2="46.41" y2="49.88" xlink:href="#linear-gradient"/><linearGradient id="linear-gradient-6" x1="-3.3" y1="-.55" x2="46.77" y2="49.52" xlink:href="#linear-gradient"/><linearGradient id="linear-gradient-7" x1="-2.99" y1="-.86" x2="47.08" y2="49.21" xlink:href="#linear-gradient"/></defs><g id="Layer_1-2"><g><g><rect class="cls-3" y="0" width="15.2" height="15.2"/><rect class="cls-3" x="22.95" y=".01" width="15.2" height="15.2"/><rect class="cls-3" x="45.89" y=".01" width="15.2" height="15.2"/><rect class="cls-3" y="22.8" width="15.2" height="15.2"/><rect class="cls-3" x="22.95" y="22.8" width="15.2" height="15.2"/><rect class="cls-3" x="45.9" y="22.8" width="15.2" height="15.2"/><rect class="cls-3" y="46.06" width="15.2" height="15.2"/><rect class="cls-3" x="22.95" y="46.06" width="15.2" height="15.2"/><rect class="cls-3" x="45.9" y="46.06" width="15.2" height="15.2"/></g><path class="cls-4" d="m10.65,15.23H.33V.03L8.09,0h.48s-1.04,7.89,2.07,15.22Z"/><path class="cls-4" d="m31.64,27.56c2.36.04,4.5.23,6.46.61v9.42h-15.2v-11.32c2.49.78,5.38,1.25,8.74,1.29Z"/><path class="cls-4" d="m54.1,38h-8.21v-7.26c3.63,1.88,6.29,4.43,8.21,7.26Z"/><path class="cls-4" d="m57.41,61.25h-.3c-.11-.02-.25-.02-.42,0h-10.54v-15.2h11.26c1.79,7.41.42,14.55,0,15.2Z"/><g><rect class="cls-8" y="22.8" width="15.2" height="15.2"/><rect class="cls-1" y="46.06" width="15.2" height="15.2"/><rect class="cls-7" x="22.95" y="46.06" width="15.2" height="15.2"/><path class="cls-9" d="m45.9,31.11v6.9h7.81c-1.8-2.7-4.33-5.13-7.81-6.9Z"/><path class="cls-5" d="m8.25,0h-.49S0,0,0,0v15.2h10.32C7.2,7.87,8.25,0,8.25,0Z"/><path class="cls-2" d="m22.95,26.68v11.32h15.2v-9.42c-1.96-.38-4.1-.57-6.46-.61-3.36-.04-6.25-.51-8.74-1.29Z"/><path class="cls-6" d="m57.16,46.06h-11.26v15.2h11.28c.4-.44,1.8-7.67-.02-15.2Z"/></g></g></g></svg>