<svg id="Group_59" data-name="Group 59" xmlns="http://www.w3.org/2000/svg" xmlns:xlink="http://www.w3.org/1999/xlink" width="45.772" height="40.026" viewBox="0 0 45.772 40.026">
  <defs>
    <clipPath id="clip-path">
      <rect id="Rectangle_32" data-name="Rectangle 32" width="45.772" height="40.026" fill="none"/>
    </clipPath>
  </defs>
  <g id="Group_58" data-name="Group 58" transform="translate(0 0)" clip-path="url(#clip-path)">
    <path id="Path_45" data-name="Path 45" d="M35.141,11.186a3.09,3.09,0,0,1-.884,1.984l-4.294,4.27.057.343.145.825.809,4.73a3.033,3.033,0,0,1,0,.981,3.067,3.067,0,0,1-1.271,2.045,3.032,3.032,0,0,1-1.786.573,2.979,2.979,0,0,1-1.422-.364l-5.176-2.8-5.175,2.587a3.078,3.078,0,0,1-4.555-3.129l.737-4.3.27-1.577-1.617-1.6-.176-.175L8.385,13.2A3.024,3.024,0,0,1,7.349,11.1a2.961,2.961,0,0,1,2.715-3.16l5.9-.853,2.587-5.384A3.077,3.077,0,0,1,21.322,0,3.008,3.008,0,0,1,23.91,1.786l2.588,5.3,5.922.853a3.057,3.057,0,0,1,2.721,3.243" transform="translate(1.44 0)" fill="#ffc610"/>
    <path id="Path_46" data-name="Path 46" d="M34.256,13.105l-4.294,4.27.057.343-.057.057.112.655.09.513c-3.417-4.322-4.85-7.578-9.2-8.294-4.137-.685-7.226,1.5-9.981,5.049l-.175-.175L8.384,13.133a3.023,3.023,0,0,1-1.035-2.094A2.954,2.954,0,0,1,10.063,8.28l5.9-.854,2.587-5.384A3.08,3.08,0,0,1,21.321.335,3.01,3.01,0,0,1,23.91,2.121l2.587,5.3,5.922.854a3.046,3.046,0,0,1,2.721,2.841,3.09,3.09,0,0,1-.884,1.984" transform="translate(1.441 0.066)" fill="#c67705"/>
    <path id="Path_47" data-name="Path 47" d="M35.141,11.186a3.09,3.09,0,0,1-.884,1.984l-4.294,4.27.057.343.145.825c-.031-.037-.062-.075-.09-.112-3.352-4.268-4.8-7.472-9.113-8.182-4.222-.695-7.355,1.587-10.155,5.275L8.385,13.2A3.024,3.024,0,0,1,7.349,11.1a2.961,2.961,0,0,1,2.715-3.16l5.9-.853,2.587-5.384A3.077,3.077,0,0,1,21.322,0,3.008,3.008,0,0,1,23.91,1.786l2.588,5.3,5.922.853a3.057,3.057,0,0,1,2.721,3.243" transform="translate(1.44 0)" fill="#ffa71a"/>
    <path id="Path_48" data-name="Path 48" d="M30.286,21.534a3.106,3.106,0,0,1-3.057,2.618,2.983,2.983,0,0,1-1.422-.364l-5.176-2.8-5.175,2.588A3.079,3.079,0,0,1,10.9,20.452l.737-4.3c1.659-1.4,4.068-2.707,6.477-1.435,4.312,2.275,5.21,6.107,7.9,5.031,1.288-.514,2.916.542,4.267,1.786" transform="translate(2.132 2.786)" fill="#e5a300"/>
    <path id="Path_49" data-name="Path 49" d="M14.427,28.454l-1.434,1.422-.87.862.544,3.163a1.657,1.657,0,0,1-.683,1.626,1.637,1.637,0,0,1-1.716.111l-1.453-.786-1.323-.713L4.717,35.527a1.65,1.65,0,0,1-2.439-1.679l.476-2.768.065-.379-2.1-2.078-.146-.146-.012-.011a1.621,1.621,0,0,1-.483-1.707,1.648,1.648,0,0,1,1.384-1.108l3.164-.459,1.388-2.884a1.646,1.646,0,0,1,1.483-.916,1.612,1.612,0,0,1,1.142.568l.012.011a1.559,1.559,0,0,1,.233.38l1.389,2.841.087.011,1.928.28,1.158.169a1.628,1.628,0,0,1,1.389,1.135,1.677,1.677,0,0,1-.4,1.667" transform="translate(0 4.196)" fill="#ffc610"/>
    <path id="Path_50" data-name="Path 50" d="M12.415,25.615c-1.5,2.262-2.921,4.171-4.343,5.106a5.917,5.917,0,0,1-5.188.49l.019-.1.047-.276-.158-.157L.688,28.6l-.146-.145L.53,28.44a1.624,1.624,0,0,1-.325-1.549,1.648,1.648,0,0,1,1.384-1.108l3.163-.461L6.139,22.44a1.648,1.648,0,0,1,1.484-.916,1.571,1.571,0,0,1,.984.41l.012.012a1.617,1.617,0,0,1,.234.379l1.388,2.841.087.012.069.145,1.779.257Z" transform="translate(0.026 4.222)" fill="#c67705"/>
    <path id="Path_51" data-name="Path 51" d="M12.284,25.484c-.026.042-.054.08-.08.123A18.25,18.25,0,0,1,7.941,30.59a5.839,5.839,0,0,1-5.011.544c-.062-.019-.12-.035-.177-.054l.066-.379L.714,28.624l-.146-.146-.011-.011A1.621,1.621,0,0,1,.074,26.76a1.648,1.648,0,0,1,1.384-1.108l3.163-.461,1.388-2.883a1.648,1.648,0,0,1,1.484-.916,1.607,1.607,0,0,1,1.142.568l.011.011a1.563,1.563,0,0,1,.234.38l1.388,2.84.089.012Z" transform="translate(0 4.196)" fill="#ffa71a"/>
    <path id="Path_52" data-name="Path 52" d="M11.222,32.511a1.658,1.658,0,0,1-.682,1.626,1.608,1.608,0,0,1-.956.3,1.59,1.59,0,0,1-.762-.191l-1.453-.786a8.694,8.694,0,0,1,.87-3.324,4.945,4.945,0,0,1,3.309-1.652l-.87.862Z" transform="translate(1.445 5.587)" fill="#e5a300"/>
    <path id="Path_53" data-name="Path 53" d="M40.312,28.318a1.318,1.318,0,0,1-.11.121l-2.27,2.252.012.056.116.695.409,2.365a1.634,1.634,0,0,1-.673,1.6,1.584,1.584,0,0,1-.94.3,1.568,1.568,0,0,1-.752-.189l-2.736-1.477-.823.413-1.911.956a1.627,1.627,0,0,1-2.4-1.655l.49-2.852.042-.25-2.228-2.2a1.594,1.594,0,0,1-.476-1.682,1.273,1.273,0,0,1,.1-.238c.007-.007.011-.019.019-.03a.933.933,0,0,1,.109-.17,1.609,1.609,0,0,1,1.134-.654l3.075-.446.042-.007,1.367-2.841c.016-.026.026-.053.042-.08,0,0,0-.007.011-.011a1.612,1.612,0,0,1,1.409-.812,1.584,1.584,0,0,1,1.368.945l1.367,2.8,3.129.453A1.6,1.6,0,0,1,40.6,26.8a1.65,1.65,0,0,1-.287,1.523" transform="translate(5.097 4.213)" fill="#ffc610"/>
    <path id="Path_54" data-name="Path 54" d="M40.263,28.318a1.318,1.318,0,0,1-.11.121l-2.27,2.252.012.056.116.695c-.053,0-.109,0-.166,0-3.978.019-7.458-1.605-11.583-5.1-.007-.007-.014-.011-.023-.018a1.609,1.609,0,0,1,1.134-.654l3.075-.446.042-.007,1.367-2.841c.016-.026.026-.053.042-.08,0,0,0-.007.011-.011a1.612,1.612,0,0,1,1.409-.812,1.584,1.584,0,0,1,1.368.945l1.367,2.8,3.129.453A1.6,1.6,0,0,1,40.55,26.8a1.65,1.65,0,0,1-.287,1.523" transform="translate(5.146 4.213)" fill="#ffa71a"/>
    <path id="Path_55" data-name="Path 55" d="M40.284,28.286a1.318,1.318,0,0,1-.11.121L37.9,30.659l.012.056-.144.14.093.559.035.193c-4.054.068-7.575-1.56-11.769-5.108l0,0c.007-.007.014-.019.023-.026a.93.93,0,0,1,.132-.152,1.589,1.589,0,0,1,.978-.476l3.117-.453.091-.189,1.277-2.652a1.709,1.709,0,0,1,.173-.276s0-.007.011-.011a1.616,1.616,0,0,1,1.277-.616,1.584,1.584,0,0,1,1.367.945l1.368,2.8,3.128.453A1.6,1.6,0,0,1,40.44,26.96a1.649,1.649,0,0,1-.155,1.327" transform="translate(5.125 4.245)" fill="#c67705"/>
    <path id="Path_56" data-name="Path 56" d="M40.263,28.318a1.318,1.318,0,0,1-.11.121l-2.27,2.252.012.056.116.695c-.053,0-.109,0-.166,0-3.978.019-7.458-1.605-11.583-5.1-.007-.007-.014-.011-.023-.018a1.609,1.609,0,0,1,1.134-.654l3.075-.446.042-.007,1.367-2.841c.016-.026.026-.053.042-.08,0,0,0-.007.011-.011a1.612,1.612,0,0,1,1.409-.812,1.584,1.584,0,0,1,1.368.945l1.367,2.8,3.129.453A1.6,1.6,0,0,1,40.55,26.8a1.65,1.65,0,0,1-.287,1.523" transform="translate(5.146 4.213)" fill="#ffa71a"/>
    <path id="Path_57" data-name="Path 57" d="M32.179,32.929l-1.911.956a1.627,1.627,0,0,1-2.4-1.654l.49-2.853c.665-.2,1.414-.219,1.783.453a15.622,15.622,0,0,0,2.041,3.1" transform="translate(5.462 5.739)" fill="#e5a300"/>
  </g>
</svg>
