<?xml version="1.0" encoding="UTF-8"?><svg id="Layer_2" xmlns="http://www.w3.org/2000/svg" viewBox="0 0 72.69 63.57"><defs><style>.cls-1{fill:#ffa71a;}.cls-2{fill:#ffc610;}.cls-3{fill:#e5a300;}.cls-4{fill:#c67705;}</style></defs><g id="Layer_1-2"><g><g><path class="cls-2" d="m58.1,17.77c-.07,1.16-.56,2.29-1.4,3.15l-6.82,6.78.09.54.23,1.31,1.28,7.51c.09.52.09,1.05,0,1.56-.2,1.3-.91,2.48-2.02,3.25-.83.59-1.82.91-2.84.91-.79,0-1.57-.2-2.26-.58l-8.22-4.44-8.22,4.11c-.95.53-2.04.73-3.1.58-2.67-.39-4.52-2.87-4.13-5.55l1.17-6.83.43-2.5-2.57-2.54-.28-.28-3.85-3.8c-.99-.86-1.56-2.06-1.64-3.33-.04-.58.03-1.16.2-1.73.62-1.8,2.22-3.09,4.11-3.29l9.37-1.36,4.11-8.55C32.58,1.05,34.28,0,36.15,0c1.79.1,3.38,1.19,4.11,2.84l4.11,8.43,9.41,1.36c1.93.2,3.54,1.52,4.11,3.37.19.58.25,1.19.21,1.78Z"/><path class="cls-4" d="m56.69,20.92l-6.82,6.78.09.54-.09.09.18,1.04.14.82c-5.43-6.86-7.7-12.03-14.61-13.17-6.57-1.09-11.47,2.37-15.85,8.02l-.28-.28-3.85-3.8c-.99-.86-1.56-2.06-1.64-3.33.03-.37.09-.73.2-1.09.62-1.8,2.22-3.09,4.11-3.29l9.37-1.36,4.11-8.55c.83-1.67,2.53-2.72,4.4-2.71,1.79.1,3.38,1.19,4.11,2.84l4.11,8.43,9.41,1.36c1.93.2,3.54,1.52,4.11,3.37.12.38.19.76.21,1.14-.07,1.16-.56,2.29-1.4,3.15Z"/><path class="cls-1" d="m58.1,17.77c-.07,1.16-.56,2.29-1.4,3.15l-6.82,6.78.09.54.23,1.31c-.05-.06-.1-.12-.14-.18-5.32-6.78-7.62-11.87-14.47-12.99-6.71-1.1-11.68,2.52-16.13,8.38l-3.85-3.8c-.99-.86-1.56-2.06-1.64-3.33-.04-.58.03-1.16.2-1.73.62-1.8,2.22-3.09,4.11-3.29l9.37-1.36,4.11-8.55C32.58,1.05,34.28,0,36.15,0c1.79.1,3.38,1.19,4.11,2.84l4.11,8.43,9.41,1.36c1.93.2,3.54,1.52,4.11,3.37.19.58.25,1.19.21,1.78Z"/><path class="cls-3" d="m51.48,38.62c-.2,1.3-.91,2.48-2.02,3.25-.83.59-1.82.91-2.84.91-.79,0-1.57-.2-2.26-.58l-8.22-4.44-8.22,4.11c-.95.53-2.04.73-3.1.58-2.67-.39-4.52-2.87-4.13-5.55l1.17-6.83c2.63-2.22,6.46-4.3,10.29-2.28,6.85,3.61,8.27,9.7,12.55,7.99,2.05-.82,4.63.86,6.78,2.84Z"/></g><g><path class="cls-2" d="m22.91,51.85l-2.28,2.26-1.38,1.37.86,5.02c.16,1-.26,2-1.08,2.58-.44.32-.97.49-1.52.48-.43,0-.84-.1-1.21-.3l-2.31-1.25-2.1-1.13-4.41,2.2c-.5.28-1.08.39-1.66.3-1.43-.21-2.42-1.54-2.21-2.97l.75-4.4.1-.6-3.34-3.3-.23-.23-.02-.02c-.77-.67-1.07-1.74-.77-2.71.33-.97,1.19-1.65,2.2-1.76l5.02-.73,2.2-4.58c.44-.9,1.36-1.46,2.36-1.46.71.04,1.36.37,1.81.9l.02.02c.15.18.27.38.37.6l2.2,4.51.14.02,3.06.44,1.84.27c1.03.1,1.9.82,2.2,1.8.29.93.04,1.95-.64,2.65Z"/><path class="cls-4" d="m19.76,47.38c-2.38,3.59-4.64,6.62-6.9,8.11-2.54,1.67-5.42,1.65-8.24.78l.03-.16.07-.44-.25-.25-3.34-3.3-.23-.23-.02-.02c-.58-.67-.79-1.6-.52-2.46.33-.97,1.19-1.65,2.2-1.76l5.02-.73,2.2-4.58c.44-.89,1.36-1.46,2.36-1.46.59.03,1.14.26,1.56.65l.02.02c.15.18.27.38.37.6l2.2,4.51.14.02.11.23,2.82.41.38.05Z"/><path class="cls-1" d="m19.51,47.14c-.04.07-.09.13-.13.19-2.33,3.51-4.55,6.45-6.77,7.91-2.45,1.62-5.24,1.65-7.96.86-.1-.03-.19-.05-.28-.09l.1-.6-3.34-3.3-.23-.23-.02-.02c-.77-.67-1.07-1.74-.77-2.71.33-.97,1.19-1.65,2.2-1.76l5.02-.73,2.2-4.58c.44-.9,1.36-1.46,2.36-1.46.71.04,1.36.37,1.81.9l.02.02c.15.18.27.38.37.6l2.2,4.51.14.02,3.06.44Z"/><path class="cls-3" d="m20.12,60.51c.16,1-.26,2-1.08,2.58-.44.32-.97.49-1.52.48-.43,0-.84-.1-1.21-.3l-2.31-1.25c.3-1.6.33-3.68,1.38-5.28,1.02-1.55,3.25-2.28,5.25-2.62l-1.38,1.37.86,5.02Z"/></g><g><path class="cls-2" d="m72.12,51.67c-.05.07-.11.13-.17.19l-3.61,3.58.02.09.19,1.1.65,3.76c.16.98-.25,1.97-1.07,2.54-.43.31-.96.48-1.49.47-.42,0-.83-.1-1.19-.3l-4.34-2.35-1.31.65-3.04,1.52c-.49.28-1.07.38-1.64.3-1.41-.2-2.39-1.52-2.18-2.93l.78-4.53.07-.4-3.54-3.5c-.76-.66-1.06-1.71-.76-2.67.04-.13.1-.26.16-.38.01-.01.02-.03.03-.05.05-.1.11-.19.17-.27.42-.58,1.07-.96,1.8-1.04l4.88-.71h.07s2.17-4.52,2.17-4.52c.02-.04.04-.08.07-.13,0,0,0-.01.02-.02.46-.8,1.31-1.3,2.24-1.29.95.05,1.79.63,2.17,1.5l2.17,4.45,4.97.72c1.01.1,1.87.8,2.17,1.78.26.83.08,1.74-.46,2.42Z"/><path class="cls-1" d="m72.12,51.67c-.05.07-.11.13-.17.19l-3.61,3.58.02.09.19,1.1c-.08,0-.17,0-.26,0-6.32.03-11.84-2.55-18.4-8.09-.01-.01-.02-.02-.04-.03.42-.58,1.07-.96,1.8-1.04l4.88-.71h.07s2.17-4.52,2.17-4.52c.02-.04.04-.08.07-.13,0,0,0-.01.02-.02.46-.8,1.31-1.3,2.24-1.29.95.05,1.79.63,2.17,1.5l2.17,4.45,4.97.72c1.01.1,1.87.8,2.17,1.78.26.83.08,1.74-.46,2.42Z"/><path class="cls-4" d="m72.12,51.67c-.05.07-.11.13-.17.19l-3.61,3.58.02.09-.23.22.15.89.05.31c-6.44.11-12.03-2.48-18.69-8.11h0s.02-.04.04-.05c.06-.08.13-.17.21-.24.4-.42.95-.69,1.55-.76l4.95-.72.14-.3,2.03-4.21c.08-.16.17-.31.28-.44,0,0,0-.01.02-.02.48-.61,1.23-.98,2.03-.98.95.05,1.79.63,2.17,1.5l2.17,4.45,4.97.72c1.01.1,1.87.8,2.17,1.78.22.71.13,1.48-.25,2.11Z"/><path class="cls-1" d="m72.12,51.67c-.05.07-.11.13-.17.19l-3.61,3.58.02.09.19,1.1c-.08,0-.17,0-.26,0-6.32.03-11.84-2.55-18.4-8.09-.01-.01-.02-.02-.04-.03.42-.58,1.07-.96,1.8-1.04l4.88-.71h.07s2.17-4.52,2.17-4.52c.02-.04.04-.08.07-.13,0,0,0-.01.02-.02.46-.8,1.31-1.3,2.24-1.29.95.05,1.79.63,2.17,1.5l2.17,4.45,4.97.72c1.01.1,1.87.8,2.17,1.78.26.83.08,1.74-.46,2.42Z"/><path class="cls-3" d="m59.78,61.41l-3.04,1.52c-.49.28-1.07.38-1.64.3-1.41-.2-2.39-1.52-2.18-2.93l.78-4.53c1.06-.31,2.24-.35,2.83.72.83,1.52,2.06,3.73,3.24,4.92Z"/></g></g></g></svg>