<?xml version="1.0" encoding="UTF-8"?><svg id="Layer_2" xmlns="http://www.w3.org/2000/svg" xmlns:xlink="http://www.w3.org/1999/xlink" viewBox="0 0 71.65 66.55"><defs><style>.cls-1{fill:url(#linear-gradient-2);}.cls-2{fill:#fcc043;}.cls-3{fill:#f47a14;}.cls-4{fill:url(#linear-gradient);}</style><linearGradient id="linear-gradient" x1="26.82" y1="4.34" x2="81.16" y2="58.68" gradientUnits="userSpaceOnUse"><stop offset="0" stop-color="#fe9734"/><stop offset="1" stop-color="#fbc640"/></linearGradient><linearGradient id="linear-gradient-2" x1="8.08" y1="23.09" x2="62.42" y2="77.43" xlink:href="#linear-gradient"/></defs><g id="Layer_1-2"><g><g><path class="cls-4" d="m71.65,53.45v5.75c0,.66-.55,1.2-1.2,1.2h-6.93v-1.06c0-.2-.03-.42-.09-.59v-.03c-.77-3.13-2.11-6.51-6.1-7.82l-3.83-1.28-8.82-2.92c-2.06-.86-3.42-4.35-3.92-6.69,1.02-1.02,2.05-2.28,2.83-3.67.09-.16.17-.31.25-.47.23-.45.42-.91.58-1.36.31-.86.5-1.75.5-2.63,0-.31.03-.52.06-.64.53-.22.91-.67,1.17-1.31.09-.2.28-.7.52-1.36.48-1.41,1.11-3.57,1.11-5.27,0-.2-.03-.41-.09-.61-.08-.38-.42-1.49-1.34-2.35v-7.07c0-3.44-1.63-7.37-4.18-10.1.31-.09.63-.14.97-.17.55-.09,1.09-.14,1.69-.14.09,0,.16,0,.23.02.06-.02.11-.02.2-.02.59,0,1.14.05,1.72.14,3.83.45,5.77,2.08,6.69,3.6,2.3,2.44,3.58,5.61,3.58,8.26v6.46l.42.28s.03.03.05.05c.38.42.59.94.7,1.31.03.08.03.19.03.28,0,1.28-.48,2.97-.84,4.08-.05.16-.11.33-.19.48-.13.34-.22.59-.27.67-.02.03-.02.06-.03.08l-.23.08c-.28.13-.89.59-.94,2.06v.2c0,.27-.03.55-.08.83,0,.03-.02.06-.03.09-.08.31-.19.63-.33.92-.08.22-.17.42-.28.63-.66,1.33-1.67,2.6-2.74,3.55.22,1.42,1.22,4.94,3.24,6.36.22.16.45.3.69.39l10.65,3.55c2.91.97,3.92,3.44,4.52,5.93.03.11.06.2.06.31Z"/><path class="cls-1" d="m61.36,59.52v6.69c0,.2-.17.34-.36.34H.38c-.2,0-.38-.14-.38-.34l.03-6.94c.23-.91.48-1.75.8-2.5.75-1.83,1.89-3.16,3.89-3.83l12.79-4.27c3.3-1.38,4.93-6.41,5.33-8.87l.08-.58-.42-.39c-1.78-1.64-3.89-4.44-3.89-6.96,0-1.78-.72-2.33-1.03-2.47l-.27-.25-.11-.03c-.48-1.24-1.45-4.07-1.44-5.93.02-.03.02-.08.03-.11,0-.02.02-.03.02-.05.05-.14.11-.28.2-.44.16-.33.39-.64.7-.86l.45-.31v-8.16c0-3.03,1.52-6.52,4.13-9.3.86-1.44,2.83-3.27,7.27-3.78.52-.08,1.08-.14,1.83-.14h.25l.3-.03c.66,0,1.25.09,1.91.17,3.17.38,5.07,1.44,6.25,2.61.33.33.61.67.84,1,.13.14.17.25.27.38,2.42,2.58,3.97,6.07,3.97,9.1v8.16l.45.31c.52.34.84,1,.99,1.55,0,1.33-.55,3.25-1.08,4.77-.16.45-.33.88-.47,1.24l-.28.11c-.31.14-.97.64-1.02,2.25-.02.08-.02.14-.02.22,0,.89-.27,1.85-.7,2.75-.78,1.63-2.05,3.16-3.19,4.21l-.44.39.09.58c.36,2.27,1.8,6.76,4.69,8.52.19.13.38.22.58.3.09.05.14.08.14.08l12.7,4.24c2.81.94,3.89,3.14,4.68,6.24,0,0,0,.03.03.09,0,.05.02.14.02.25Z"/></g><path class="cls-3" d="m42.56,31.23c-.02.08-.02.14-.02.22,0,.89-.27,1.85-.7,2.75-.14-.09-.27-.17-.41-.25-8.69-5.43-13.21-3.96-16.98-5.25-5.66-1.92-7.93-4.64-8.62-5.66,0-.02.02-.03.02-.05.05-.14.11-.28.2-.44l8.65-1.3,11.48.95s3.88,5.1,6.38,9.02Z"/><path class="cls-2" d="m45.66,23.34c0,1.74-.92,4.5-1.55,6.02l-.28.11c-.31.14-.97.64-1.02,2.26-.02.08-.02.14-.02.22,0,.89-.27,1.85-.71,2.76-.22-.22-.44-.42-.67-.63-2.88-2.6-7.07-4.77-13.18-5.56-5.41-.72-9.44-2.81-12.46-5.42.05-.14.11-.28.2-.44.16-.33.39-.64.71-.86l.45-.31v-8.18c0-3.04,1.52-6.54,4.14-9.33.86-1.44,2.84-3.28,7.29-3.79.52-.08,1.08-.14,1.83-.14h.25l.3-.03c.66,0,1.25.09,1.91.17,4.08.49,6.05,2.1,7.12,3.62.13.14.17.25.27.38,2.43,2.59,3.98,6.08,3.98,9.12v8.18l.45.31c.52.34.85,1,.99,1.55Z"/><path class="cls-3" d="m55.51,32.73c-.08.22-.17.42-.28.63-.48-.52-1.03-.99-1.61-1.39-3.14-2.24-7.13-2.92-7.13-2.92l.17-.48,4.72.09,2.35,1.41s1.02,1.45,1.78,2.67Z"/><path class="cls-2" d="m58.45,23.22c0,1.28-.48,2.97-.84,4.08-.05.16-.11.33-.19.48-.08.27-.17.52-.27.73l-.03.02-.23.08c-.28.13-.89.59-.94,2.06v.2c0,.27-.03.55-.08.83,0,.03-.02.06-.03.09-.08.31-.19.63-.33.92-.08.22-.17.42-.28.63-.19-.17-.36-.34-.55-.52-.33-.3-.69-.59-1.06-.88-1.8-1.39-4.08-2.58-6.96-3.41.48-1.41,1.11-3.57,1.11-5.27,0-.2-.03-.41-.09-.61-.08-.38-.42-1.49-1.34-2.35v-7.07c0-3.44-1.63-7.37-4.18-10.1.31-.09.63-.14.97-.17.55-.09,1.09-.14,1.69-.14.09,0,.16,0,.23.02.06-.02.11-.02.2-.02.59,0,1.14.05,1.72.14,3.83.45,5.77,2.08,6.69,3.6,2.3,2.44,3.58,5.61,3.58,8.26v6.46l.42.28s.03.03.05.05c.38.42.59.94.7,1.31.03.08.03.19.03.28Z"/></g></g></svg>