<svg xmlns="http://www.w3.org/2000/svg" xmlns:xlink="http://www.w3.org/1999/xlink" width="38" height="27" viewBox="0 0 38 27">
  <defs>
    <clipPath id="clip-path">
      <rect id="Rectangle_77" data-name="Rectangle 77" width="38" height="27" transform="translate(1173 712)" fill="#fff"/>
    </clipPath>
    <clipPath id="clip-path-2">
      <path id="Path_123" data-name="Path 123" d="M1121.6,675.571s1.525-4.144,5.87-3.533,10.708,3.536,10.911,2.823,2.024-7.92,2.024-7.92v-5.1l-14.45-4.078-7.882,3.058v8.053l1.516,4.485Z" transform="translate(-1118.078 -657.767)" fill="#72b40f"/>
    </clipPath>
    <clipPath id="clip-path-3">
      <path id="Path_126" data-name="Path 126" d="M1140.229,674.293s4.559-2.358,6.76,0,12.067-.079,12.3-1.769-4.992-7.979-4.992-7.979l-8.962-2.555-3.537,1.415-3.734,4.717v3.97l.983,3.026Z" transform="translate(-1138.067 -661.991)" fill="#72b40f"/>
    </clipPath>
  </defs>
  <g id="Mask_Group_6" data-name="Mask Group 6" transform="translate(-1173 -712)" clip-path="url(#clip-path)">
    <g id="Group_146" data-name="Group 146" transform="translate(54.215 50.865)">
      <path id="Path_118" data-name="Path 118" d="M218.142,10.536a9.856,9.856,0,0,1-1.074,4.668,10.307,10.307,0,0,1-2.294,3.071.361.361,0,0,0-.112.448q.594,1.792,1.158,3.593a.525.525,0,0,1-.044.416c-.119.154-.3.059-.445-.023-1.056-.586-2.113-1.168-3.165-1.759a5.189,5.189,0,0,1-.6-.409.556.556,0,0,0-.55-.095,9.9,9.9,0,0,1-3.7.462,8.9,8.9,0,0,1-6.539-3.149.227.227,0,0,1-.022-.313,13.055,13.055,0,0,0,1.192-2.884,4.443,4.443,0,0,0-.956-4.37,7.78,7.78,0,0,1-1.471-2.357,3.61,3.61,0,0,1,.427-3.286A8.919,8.919,0,0,1,206.224.533,10.18,10.18,0,0,1,217.669,7.46a9.742,9.742,0,0,1,.473,3.076M209.489,4.11a3.55,3.55,0,0,0-2.808,1,4.754,4.754,0,0,0-1.468,3.454A2.928,2.928,0,0,1,204.841,10c-.285.482-.589.953-.9,1.417s-.261,1.02.509,1.125c.369.05.509.255.476.628-.023.264-.013.53-.015.8,0,.2.083.3.3.261s.253.092.19.271c-.047.13-.1.257-.144.388a1.391,1.391,0,0,0,.58,1.732,2.086,2.086,0,0,0,1.181.207c.291-.038.587-.046.872-.106a1.025,1.025,0,0,1,1.13.361c.008.011.031.01.059.017.028-.022.063-.046.094-.073a4.879,4.879,0,0,0,1.355-2.081,4.624,4.624,0,0,0-.389-4.4c-.36-.527-.714-1.059-1.038-1.607a4.016,4.016,0,0,1,.024-4.228c.106-.193.23-.377.364-.6" transform="translate(936.972 663.781)" fill="#9adf31"/>
      <path id="Path_119" data-name="Path 119" d="M16.335,2.027c-.347.4-.68.759-.99,1.139a4.632,4.632,0,0,0-1.174,3.2,4.514,4.514,0,0,0,.789,2.272c.336.518.737,1,1.123,1.481a3.626,3.626,0,0,1,.926,2.642A7.752,7.752,0,0,1,16.28,15.5c-.264.533-.547,1.057-.835,1.577a.306.306,0,0,0,.052.443c.313.305.594.643.923,1-.32.195-.612.388-.917.557a11.571,11.571,0,0,1-3.782,1.349,9.055,9.055,0,0,1-4.466-.369,1.052,1.052,0,0,0-1.018.113C5.042,20.911,3.815,21.6,2.6,22.3a.316.316,0,0,1-.139.064.553.553,0,0,1-.308-.052.32.32,0,0,1-.044-.277c.2-.67.409-1.336.619-2,.189-.6.372-1.2.577-1.8a.4.4,0,0,0-.111-.492,9.865,9.865,0,0,1-2.21-3.068A10.726,10.726,0,0,1,.093,8.8,9.63,9.63,0,0,1,2.442,3.566,10.326,10.326,0,0,1,13.995.71a8.706,8.706,0,0,1,1.257.605c.374.211.72.471,1.083.712M7.9,3.761a2.3,2.3,0,0,1,.123.2,10.76,10.76,0,0,1,.789,1.731A4.56,4.56,0,0,1,8,9.633a9,9,0,0,0-1.215,2.036A3.982,3.982,0,0,0,7.97,16.536c.134.1.225.158.364.008a.857.857,0,0,1,.83-.244c.255.045.51.093.767.116a3.276,3.276,0,0,0,1.751-.174,1.168,1.168,0,0,0,.694-.783,1.477,1.477,0,0,0-.152-1.195.5.5,0,0,1-.032-.339c.008-.035.179-.052.271-.042.151.016.241-.02.235-.183a5.826,5.826,0,0,0-.055-.947c-.079-.384-.023-.5.381-.518.674-.034.938-.482.619-1.076-.142-.265-.325-.508-.484-.764a3.2,3.2,0,0,1-.8-2.329.119.119,0,0,0-.008-.051,13.1,13.1,0,0,0-.565-1.929A3.755,3.755,0,0,0,7.9,3.761" transform="translate(1121.597 664.127)" fill="#9adf31"/>
      <rect id="Rectangle_75" data-name="Rectangle 75" width="33.52" height="22.469" transform="translate(1121.597 664.127)" fill="none"/>
      <g id="Mask_Group_1" data-name="Mask Group 1" transform="translate(1118.062 657.674)" clip-path="url(#clip-path-2)">
        <path id="Path_124" data-name="Path 124" d="M16.363,2.048c-.348.4-.681.767-.992,1.151a4.7,4.7,0,0,0-1.176,3.235,4.588,4.588,0,0,0,.79,2.3c.337.524.738,1.007,1.125,1.5a3.684,3.684,0,0,1,.928,2.67,7.888,7.888,0,0,1-.73,2.763c-.265.538-.548,1.068-.837,1.594a.311.311,0,0,0,.052.448c.313.309.6.649.925,1.015-.32.2-.613.392-.919.563a11.526,11.526,0,0,1-3.788,1.363,9,9,0,0,1-4.473-.373,1.046,1.046,0,0,0-1.02.114c-1.2.747-2.426,1.44-3.643,2.153a.315.315,0,0,1-.139.065.55.55,0,0,1-.309-.052.326.326,0,0,1-.044-.28c.2-.677.41-1.35.62-2.023.189-.607.373-1.215.578-1.817a.407.407,0,0,0-.112-.5,9.967,9.967,0,0,1-2.214-3.1A10.925,10.925,0,0,1,.093,8.888,9.771,9.771,0,0,1,2.446,3.6,10.389,10.389,0,0,1,7.754.316a10.251,10.251,0,0,1,6.264.4,8.688,8.688,0,0,1,1.259.611c.375.213.722.476,1.085.72M7.918,3.8a2.324,2.324,0,0,1,.123.2,10.92,10.92,0,0,1,.79,1.75,4.64,4.64,0,0,1-.815,3.983A9.109,9.109,0,0,0,6.8,11.792,4.047,4.047,0,0,0,7.984,16.71c.134.1.225.16.365.008a.854.854,0,0,1,.832-.246c.255.045.511.093.768.117a3.255,3.255,0,0,0,1.754-.176,1.177,1.177,0,0,0,.7-.791,1.5,1.5,0,0,0-.152-1.207.5.5,0,0,1-.032-.342c.008-.035.179-.053.272-.043.151.016.242-.02.235-.185a5.939,5.939,0,0,0-.055-.957c-.079-.388-.023-.5.382-.524.675-.035.939-.487.62-1.087-.142-.268-.326-.513-.485-.772a3.251,3.251,0,0,1-.8-2.354.121.121,0,0,0-.008-.051,13.329,13.329,0,0,0-.566-1.949A3.758,3.758,0,0,0,7.918,3.8" transform="translate(3.527 6.438)" fill="#72b40f"/>
      </g>
      <g id="Mask_Group_2" data-name="Mask Group 2" transform="translate(1136.277 662.094)" clip-path="url(#clip-path-3)">
        <path id="Path_125" data-name="Path 125" d="M218.142,10.536a9.856,9.856,0,0,1-1.074,4.668,10.307,10.307,0,0,1-2.294,3.071.361.361,0,0,0-.112.448q.594,1.792,1.158,3.593a.525.525,0,0,1-.044.416c-.119.154-.3.059-.445-.023-1.056-.586-2.113-1.168-3.165-1.759a5.189,5.189,0,0,1-.6-.409.556.556,0,0,0-.55-.095,9.9,9.9,0,0,1-3.7.462,8.9,8.9,0,0,1-6.539-3.149.227.227,0,0,1-.022-.313,13.055,13.055,0,0,0,1.192-2.884,4.443,4.443,0,0,0-.956-4.37,7.78,7.78,0,0,1-1.471-2.357,3.61,3.61,0,0,1,.427-3.286A8.919,8.919,0,0,1,206.224.533,10.18,10.18,0,0,1,217.669,7.46a9.742,9.742,0,0,1,.473,3.076M209.489,4.11a3.55,3.55,0,0,0-2.808,1,4.754,4.754,0,0,0-1.468,3.454A2.928,2.928,0,0,1,204.841,10c-.285.482-.589.953-.9,1.417s-.261,1.02.509,1.125c.369.05.509.255.476.628-.023.264-.013.53-.015.8,0,.2.083.3.3.261s.253.092.19.271c-.047.13-.1.257-.144.388a1.391,1.391,0,0,0,.58,1.732,2.086,2.086,0,0,0,1.181.207c.291-.038.587-.046.872-.106a1.025,1.025,0,0,1,1.13.361c.008.011.031.01.059.017.028-.022.063-.046.094-.073a4.879,4.879,0,0,0,1.355-2.081,4.624,4.624,0,0,0-.389-4.4c-.36-.527-.714-1.059-1.038-1.607a4.016,4.016,0,0,1,.024-4.228c.106-.193.23-.377.364-.6" transform="translate(-199.305 1.686)" fill="#72b40f"/>
      </g>
    </g>
  </g>
</svg>
