<svg xmlns="http://www.w3.org/2000/svg" xmlns:xlink="http://www.w3.org/1999/xlink" width="88" height="88" viewBox="0 0 88 88">
  <defs>
    <linearGradient id="linear-gradient" x1="0.5" x2="0.5" y2="1" gradientUnits="objectBoundingBox">
      <stop offset="0" stop-color="#82e6ff"/>
      <stop offset="1" stop-color="#06acd1"/>
    </linearGradient>
    <filter id="Rectangle_251" x="0" y="0" width="88" height="88" filterUnits="userSpaceOnUse">
      <feOffset dy="3" input="SourceAlpha"/>
      <feGaussianBlur stdDeviation="3" result="blur"/>
      <feFlood flood-opacity="0.161"/>
      <feComposite operator="in" in2="blur"/>
      <feComposite in="SourceGraphic"/>
    </filter>
  </defs>
  <g id="Group_3478" data-name="Group 3478" transform="translate(-218 -203)">
    <g transform="matrix(1, 0, 0, 1, 218, 203)" filter="url(#Rectangle_251)">
      <rect id="Rectangle_251-2" data-name="Rectangle 251" width="70" height="70" rx="21" transform="translate(9 6)" fill="url(#linear-gradient)"/>
    </g>
    <g id="Icon_ion-ios-videocam" data-name="Icon ion-ios-videocam" transform="translate(241.441 225.038)">
      <path id="Path_2712" data-name="Path 2712" d="M32.823,10.8a1.4,1.4,0,0,0-.76.221l-7.07,4.463a.7.7,0,0,0-.327.589v6.212a.7.7,0,0,0,.327.589l7.07,4.463a1.469,1.469,0,0,0,.76.221h1.7a.7.7,0,0,0,.7-.695V11.495a.7.7,0,0,0-.7-.695h-1.7Z" transform="translate(3.642 0.292)" fill="#fafafa"/>
      <path id="Path_2713" data-name="Path 2713" d="M21.989,29.925H6.459a4.223,4.223,0,0,1-4.209-4.2V13.2A4.216,4.216,0,0,1,6.451,9h15.53a4.216,4.216,0,0,1,4.2,4.2V25.715a4.205,4.205,0,0,1-4.193,4.209Z" fill="#fafafa"/>
    </g>
  </g>
</svg>
