<svg xmlns="http://www.w3.org/2000/svg" xmlns:xlink="http://www.w3.org/1999/xlink" width="88" height="88" viewBox="0 0 88 88">
  <defs>
    <linearGradient id="linear-gradient" x1="0.5" x2="0.5" y2="1" gradientUnits="objectBoundingBox">
      <stop offset="0" stop-color="#a1b6ff"/>
      <stop offset="1" stop-color="#3c68ff"/>
    </linearGradient>
    <filter id="Rectangle_252" x="0" y="0" width="88" height="88" filterUnits="userSpaceOnUse">
      <feOffset dy="3" input="SourceAlpha"/>
      <feGaussianBlur stdDeviation="3" result="blur"/>
      <feFlood flood-opacity="0.161"/>
      <feComposite operator="in" in2="blur"/>
      <feComposite in="SourceGraphic"/>
    </filter>
  </defs>
  <g id="Group_3479" data-name="Group 3479" transform="translate(-310 -203)">
    <g transform="matrix(1, 0, 0, 1, 310, 203)" filter="url(#Rectangle_252)">
      <rect id="Rectangle_252-2" data-name="Rectangle 252" width="70" height="70" rx="21" transform="translate(9 6)" fill="url(#linear-gradient)"/>
    </g>
    <path id="Icon_fa-solid-users" data-name="Icon fa-solid-users" d="M8.859,0A4.922,4.922,0,1,1,3.938,4.922,4.922,4.922,0,0,1,8.859,0ZM31.5,0a4.922,4.922,0,1,1-4.922,4.922A4.922,4.922,0,0,1,31.5,0ZM0,18.377a6.567,6.567,0,0,1,6.565-6.565H9.192a6.6,6.6,0,0,1,2.744.6,7.743,7.743,0,0,0-.117,1.372,7.878,7.878,0,0,0,2.664,5.906H1.31A1.315,1.315,0,0,1,0,18.377Zm24.935,1.31h-.043a7.856,7.856,0,0,0,2.664-5.906,8.426,8.426,0,0,0-.117-1.372,6.5,6.5,0,0,1,2.744-.6H32.81a6.567,6.567,0,0,1,6.565,6.565,1.312,1.312,0,0,1-1.31,1.31ZM13.781,13.781a5.906,5.906,0,1,1,5.906,5.906,5.906,5.906,0,0,1-5.906-5.906ZM7.875,29.857a8.2,8.2,0,0,1,8.2-8.2H23.3a8.2,8.2,0,0,1,8.2,8.2A1.642,1.642,0,0,1,29.857,31.5H9.518A1.642,1.642,0,0,1,7.875,29.857Z" transform="translate(334.813 228.75)" fill="#fafafa"/>
  </g>
</svg>
