<svg xmlns="http://www.w3.org/2000/svg" width="18" height="18" viewBox="0 0 18 18">
  <g id="Group_3485" data-name="Group 3485" transform="translate(-348.313 -81)">
    <path id="Ellipse_58" data-name="Ellipse 58" d="M9,1a8,8,0,1,0,8,8A8.009,8.009,0,0,0,9,1M9,0A9,9,0,1,1,0,9,9,9,0,0,1,9,0Z" transform="translate(348.313 81)" fill="#fff"/>
    <path id="Icon_akar-star" data-name="Icon akar-star" d="M6.625,2.5a.852.852,0,0,1,.8.552l0,.008.714,1.978H9.891a.853.853,0,0,1,.545,1.513L9.182,7.68l.463,1.961a.836.836,0,0,1-.114.742.867.867,0,0,1-.707.368.857.857,0,0,1-.483-.15L6.625,9.512,4.91,10.6a.856.856,0,0,1-.483.15.867.867,0,0,1-.707-.369.835.835,0,0,1-.113-.741L4.068,7.68,2.814,6.551a.853.853,0,0,1,.545-1.514H5.1L5.819,3.06q.006-.017.013-.033A.851.851,0,0,1,6.625,2.5ZM9.512,6.038H8.047a.865.865,0,0,1-.8-.549l0-.011L6.625,3.772,6.009,5.478l0,.01a.864.864,0,0,1-.8.549H3.738l1.035.931a.849.849,0,0,1,.275.914l-.4,1.7,1.494-.948a.863.863,0,0,1,.968,0L8.6,9.583l-.4-1.7a.849.849,0,0,1,.275-.914Z" transform="translate(350.688 83.32)" fill="#fff"/>
  </g>
</svg>
