<svg xmlns="http://www.w3.org/2000/svg" width="17.705" height="19" viewBox="0 0 17.705 19">
  <g id="Group_3486" data-name="Group 3486" transform="translate(-1741.147 2185.5)">
    <g id="Icon_ion-megaphone-outline" data-name="Icon ion-megaphone-outline" transform="translate(1741.647 -2180.332)">
      <path id="Path_2695" data-name="Path 2695" d="M14.91,3.51S12.133,6.964,9.528,6.964H4.4a.513.513,0,0,0-.513.513v3.077a.513.513,0,0,0,.513.513H9.528c2.605,0,5.382,3.468,5.382,3.468a.468.468,0,0,0,.771-.315V3.824A.456.456,0,0,0,14.91,3.51ZM3.888,10.041s-.513-.192-.513-1.026.513-1.026.513-1.026M16.194,9.72a.741.741,0,0,0,0-1.41M10.041,6.964v4.1m-4.615-4.1v4.1" transform="translate(-3.375 -3.375)" fill="none" stroke="#fff" stroke-linecap="round" stroke-linejoin="round" stroke-width="1"/>
      <path id="Path_2696" data-name="Path 2696" d="M10.125,20.25v5.384a.256.256,0,0,0,.256.256h1.7a.513.513,0,0,0,.49-.664,9.289,9.289,0,0,1-.907-3.438h.513a.513.513,0,0,0,.513-.513v-.513a.513.513,0,0,0-.513-.513h-.513" transform="translate(-7.048 -12.559)" fill="none" stroke="#fff" stroke-linecap="round" stroke-linejoin="round" stroke-width="1"/>
    </g>
    <path id="Icon_akar-plus" data-name="Icon akar-plus" d="M8.728,11.456V8.728m0,0V6m0,2.728h2.728m-2.728,0H6" transform="translate(1746.896 -2191)" fill="none" stroke="#fff" stroke-linecap="round" stroke-width="1"/>
  </g>
</svg>
