<svg id="Icon_ion-ios-notifications-outline" data-name="Icon ion-ios-notifications-outline" xmlns="http://www.w3.org/2000/svg" width="14.323" height="17.927" viewBox="0 0 14.323 17.927">
  <path id="Path_1813" data-name="Path 1813" d="M18.313,28.336a.58.58,0,0,0-.569.457,1.123,1.123,0,0,1-.224.488.847.847,0,0,1-.721.264.861.861,0,0,1-.721-.264,1.123,1.123,0,0,1-.224-.488.583.583,0,1,0-1.138.255A2,2,0,0,0,16.8,30.711a2,2,0,0,0,2.084-1.662A.586.586,0,0,0,18.313,28.336Z" transform="translate(-9.65 -12.783)" fill="#fff"/>
  <path id="Path_1814" data-name="Path 1814" d="M20.918,17.207c-.69-.91-2.048-1.443-2.048-5.516,0-4.181-1.846-5.861-3.567-6.264-.161-.04-.278-.094-.278-.264v-.13a1.1,1.1,0,0,0-1.075-1.1h-.027a1.1,1.1,0,0,0-1.075,1.1v.13c0,.166-.116.224-.278.264C10.845,5.835,9,7.511,9,11.691c0,4.073-1.358,4.6-2.048,5.516a.889.889,0,0,0,.712,1.425H20.219a.89.89,0,0,0,.7-1.425Zm-1.747.26H8.722a.2.2,0,0,1-.148-.327,5.428,5.428,0,0,0,.941-1.5,10.154,10.154,0,0,0,.641-3.952A6.872,6.872,0,0,1,11.092,7.8a2.875,2.875,0,0,1,1.734-1.237,1.57,1.57,0,0,0,.833-.47.354.354,0,0,1,.533-.009,1.623,1.623,0,0,0,.842.479A2.875,2.875,0,0,1,16.769,7.8a6.872,6.872,0,0,1,.936,3.889,10.154,10.154,0,0,0,.641,3.952,5.49,5.49,0,0,0,.963,1.519A.185.185,0,0,1,19.171,17.467Z" transform="translate(-6.775 -3.93)" fill="#fff"/>
</svg>
