<svg xmlns="http://www.w3.org/2000/svg" width="197.798" height="35.973" viewBox="0 0 197.798 35.973">
  <g id="Group_3540" data-name="Group 3540" transform="translate(-36 -46.165)">
    <g id="Group_2811" data-name="Group 2811" transform="translate(91.852 51.605)">
      <path id="Path_1" data-name="Path 1" d="M297.491,246.47a12.429,12.429,0,0,1-4.014.75q-2.711,0-2.783-1.687a6.233,6.233,0,0,1-4.365,1.759q-4.6,0-3.178-4.268,1.081-3.245,5.73-4.557,4.268-1.211,4.836-2.913.745-2.235-1.476-2.235a3.093,3.093,0,0,0-3.288,2.163,5.294,5.294,0,0,0-.193,1.789l-2.442-.505a9.39,9.39,0,0,1,.322-1.269q1.153-3.461,7.47-3.461,6,0,4.922,3.231l-2.941,8.826q-.452,1.355.428,1.355a2.533,2.533,0,0,0,.908-.3Zm-4.716-8.22a7.132,7.132,0,0,1-1.451.937,5.218,5.218,0,0,0-2.7,3.2q-.961,2.884.164,2.884,1.644,0,2.6-2.855Z" transform="translate(-282.816 -226.814)" fill="#fff"/>
      <path id="Path_2" data-name="Path 2" d="M365.485,246.47a12.43,12.43,0,0,1-4.014.75q-2.711,0-2.783-1.687a6.233,6.233,0,0,1-4.365,1.759q-4.6,0-3.178-4.268,1.082-3.245,5.73-4.557,4.268-1.211,4.836-2.913.745-2.235-1.476-2.235a3.093,3.093,0,0,0-3.288,2.163,5.3,5.3,0,0,0-.192,1.789l-2.442-.505a9.418,9.418,0,0,1,.322-1.269q1.153-3.461,7.47-3.461,6,0,4.923,3.231l-2.942,8.826q-.452,1.355.428,1.355a2.535,2.535,0,0,0,.909-.3Zm-4.716-8.22a7.127,7.127,0,0,1-1.451.937,5.218,5.218,0,0,0-2.7,3.2q-.961,2.884.164,2.884,1.644,0,2.6-2.855Z" transform="translate(-335.177 -226.814)" fill="#fff"/>
      <path id="Path_3" data-name="Path 3" d="M410.774,252.052l6.479-19.439a46.659,46.659,0,0,0,5.388-.375l-.731,2.192a6.339,6.339,0,0,1,4.341-2.206,2.789,2.789,0,0,1,2.93,2.07,9.2,9.2,0,0,1-.493,5.545q-2.562,7.687-7.681,7.686a3.016,3.016,0,0,1-2.933-1.586l-2.038,6.114Zm12.853-17.709q-1.745,0-3.552,5.422-1.879,5.639-.206,5.639,1.5,0,3.379-5.639Q425.055,234.343,423.627,234.343Z" transform="translate(-381.355 -226.959)" fill="#fff"/>
      <path id="Path_4" data-name="Path 4" d="M503.228,246.47a12.431,12.431,0,0,1-4.014.75q-2.712,0-2.783-1.687a6.234,6.234,0,0,1-4.365,1.759q-4.6,0-3.178-4.268,1.082-3.245,5.73-4.557,4.268-1.211,4.836-2.913.745-2.235-1.476-2.235a3.093,3.093,0,0,0-3.288,2.163,5.287,5.287,0,0,0-.192,1.789l-2.442-.505a9.483,9.483,0,0,1,.322-1.269q1.154-3.461,7.47-3.461,6,0,4.923,3.231l-2.942,8.826q-.452,1.355.428,1.355a2.533,2.533,0,0,0,.909-.3Zm-4.716-8.22a7.142,7.142,0,0,1-1.452.937,5.218,5.218,0,0,0-2.7,3.2q-.961,2.884.164,2.884,1.644,0,2.6-2.855Z" transform="translate(-441.252 -226.814)" fill="#fff"/>
      <path id="Path_5" data-name="Path 5" d="M571.994,236.382l-2.7.447q1.087-3.259-1.942-3.259a2.219,2.219,0,0,0-2.37,1.528q-.374,1.125,2.394,2.423,4.235,2,3.206,5.091-1.639,4.918-7.884,4.918-6.6,0-4.966-4.918l2.894-.548a9.264,9.264,0,0,0-.356.894,2.211,2.211,0,0,0,.325,2.206,2.633,2.633,0,0,0,2.19.937,2.3,2.3,0,0,0,2.442-1.615q.361-1.082-2.274-2.394-3.966-1.99-2.927-5.105a6.235,6.235,0,0,1,2.9-3.381,9.568,9.568,0,0,1,5-1.319Q572.868,232.286,571.994,236.382Z" transform="translate(-494.275 -227.008)" fill="#fff"/>
      <path id="Path_6" data-name="Path 6" d="M638.513,246.989h-5.264l3.639-10.917q.476-1.428-.361-1.427-1.932,0-3.3,4.11l-2.745,8.234h-5.264l3.562-10.686q.543-1.629-.207-1.63-1.961,0-3.327,4.1l-2.74,8.22h-5.264L622.1,232.41a40.844,40.844,0,0,0,5.384-.361l-.836,2.509a8.032,8.032,0,0,1,5.417-2.495,2.4,2.4,0,0,1,2.606,2.35,7.643,7.643,0,0,1,5.191-2.38q3.634,0,2.408,3.677Z" transform="translate(-540.355 -226.814)" fill="#fff"/>
      <path id="Path_7" data-name="Path 7" d="M738.24,241.717l1.913.62q-2.01,5.033-7.619,5.033-7.268,0-4.851-7.253a12.52,12.52,0,0,1,3.855-5.768,8.732,8.732,0,0,1,5.7-2.25q6.3,0,3.592,8.134h-7.672q-1.9,5.711,1,5.711,2.711,0,3.788-3.23Q738.081,242.279,738.24,241.717Zm-4.557-3.115h3.144q1.691-5.076.163-5.076-1.385,0-2.812,3.764Z" transform="translate(-624.94 -226.863)" fill="#fff"/>
      <path id="Path_8" data-name="Path 8" d="M787.036,229.5l4.84-14.522a41.1,41.1,0,0,0,5.393-.389L792.3,229.5Zm9.393-20.175q2.451,0,1.817,1.9t-3.086,1.9q-2.452,0-1.817-1.9T796.429,209.328Z" transform="translate(-671.111 -209.328)" fill="#fff"/>
      <path id="Path_9" data-name="Path 9" d="M836.692,247.086h-5.263l3.557-10.671q.543-1.629-.365-1.63a2.966,2.966,0,0,0-2.031,1.291,8.971,8.971,0,0,0-1.694,3.05l-2.653,7.96h-5.263l4.854-14.565a40.275,40.275,0,0,0,5.384-.36l-.908,2.725A8.406,8.406,0,0,1,838,232.175q3.663,0,2.423,3.721Z" transform="translate(-698.79 -226.911)" fill="#fff"/>
    </g>
    <g id="Group_2812" data-name="Group 2812" transform="translate(36 46.165)">
      <path id="Path_12" data-name="Path 12" d="M147.088,289.592a39.256,39.256,0,0,0,2.527-8.7,76.308,76.308,0,0,1,2.4-10.51c.4-1.2.723-2.7,2.347-2.739,1.731-.037,2.07,1.542,2.512,2.775,1.914,5.332,2.936,10.9,4.224,16.394.2.871.492,1.723.845,2.942a54.738,54.738,0,0,0,2.2-8.557c.746-3.346,1.313-6.734,2.344-10.014.185-.588.415-1.163.626-1.743a2.409,2.409,0,0,1,2.237-1.76c1.107-.049,1.722.741,2.185,1.609a34.783,34.783,0,0,1,2.573,7.127q1.931,6.907,3.361,13.94c.157.763.4,1.341-.755,1.583-1.127.237-1.479-.1-1.7-1.145a156.307,156.307,0,0,0-4.365-17.159c-.263-.8-.576-1.573-1.047-2.849a51.063,51.063,0,0,0-1.72,4.817c-1.093,4.477-1.771,9.048-3.069,13.478a13.529,13.529,0,0,1-1.031,2.666c-.972,1.783-2.64,1.756-3.622-.035a20.1,20.1,0,0,1-.806-2.03c-2.068-5-2.649-10.387-4-15.575-.24-.921-.515-1.833-.875-3.1a61.174,61.174,0,0,0-2.187,8.935c-.686,3.128-1.352,6.26-2.061,9.383a18.918,18.918,0,0,1-.7,2.074,2.416,2.416,0,0,1-2.242,1.753c-1.125.057-1.682-.769-2.092-1.682a22.214,22.214,0,0,1-1.352-4.338c-1.011-4.556-1.993-9.118-3.007-13.673a7.445,7.445,0,0,0-.963-2.685,40.267,40.267,0,0,0-3.518,10.143c-.653,3.31-1.406,6.6-2.053,9.91-.188.964-.512,1.315-1.567,1.107-1-.2-1.095-.557-.9-1.481,1.316-6.274,2.4-12.6,4.517-18.682a5.841,5.841,0,0,1,2.211-3.436c1.667-1.045,2.744-.794,3.569,1.11a39.427,39.427,0,0,1,2.015,7.307C145.084,280.938,145.773,285.184,147.088,289.592Z" transform="translate(-131.763 -257.176)" fill="#fff"/>
      <path id="Path_13" data-name="Path 13" d="M208.186,253.267c-2.805-.005-4.917-1.871-4.854-4.288.06-2.3,2.244-4.134,4.909-4.132A4.577,4.577,0,0,1,213,249.12C212.989,251.471,210.9,253.273,208.186,253.267Z" transform="translate(-170.519 -244.833)" fill="#fff"/>
      <path id="Path_14" data-name="Path 14" d="M144.52,253.915c-2.76-.039-4.761-1.8-4.778-4.2s2.182-4.266,4.956-4.211a4.217,4.217,0,1,1-.178,8.414Z" transform="translate(-136.084 -245.186)" fill="#fff"/>
      <path id="Path_15" data-name="Path 15" d="M171.885,248.164c2.019-3.7,4.557-4.314,7.982-1.933a3.5,3.5,0,0,1-.017,5.684c-3.367,2.309-6.022,1.7-7.9-1.8A2.008,2.008,0,0,1,171.885,248.164Z" transform="translate(-153.371 -244.817)" fill="#fff"/>
    </g>
  </g>
</svg>
