<svg xmlns="http://www.w3.org/2000/svg" width="669.614" height="723.17" viewBox="0 0 669.614 723.17">
  <g id="Group_3490" data-name="Group 3490" transform="translate(-0.683 1.275)" style="mix-blend-mode: soft-light;isolation: isolate">
    <g id="Path_3445" data-name="Path 3445" transform="matrix(0.978, -0.208, 0.208, 0.978, 59.474, 374.191)" fill="#fff">
      <path d="M 231.6443176269531 270.83154296875 L 151.3119354248047 270.6768798828125 L 73.157470703125 270.5264282226562 L 2.821906089782715 142.7453765869141 L 72.69406890869141 2.502979755401611 L 150.7720184326172 2.653326749801636 L 231.0470275878906 2.807897567749023 L 305.700927734375 143.3429870605469 L 231.6443176269531 270.83154296875 Z" stroke="none"/>
      <path d="M 230.2069549560547 268.3287963867188 L 302.84130859375 143.2887115478516 L 229.542724609375 5.304977893829346 L 74.24015808105469 5.005995750427246 L 5.643783092498779 142.6876068115234 L 74.63664245605469 268.0292358398438 L 230.2069549560547 268.3287963867188 M 233.0816650390625 273.3343505859375 L 71.67830657958984 273.0235595703125 L -1.422673994966317e-05 142.8031616210938 L 71.14803314208984 2.36705436691409e-05 L 232.5513916015625 0.3107509315013885 L 308.5606079101562 143.3972473144531 L 233.0816650390625 273.3343505859375 Z" stroke="none" fill="#fff"/>
    </g>
    <g id="Path_3446" data-name="Path 3446" transform="translate(335.309 458.196) rotate(-8)" fill="none">
      <path d="M69.809,266.085l77.64.1,79.733.1L300.855,139.61,226.832.205,147.1.1,69.459,0,0,139.217Z" stroke="none"/>
      <path d="M 224.3078765869141 261.2865905761719 L 295.1356506347656 139.4992218017578 L 223.8233489990234 5.201381683349609 L 72.54977416992188 5.00404691696167 L 5.644432067871094 139.1035919189453 L 72.76678466796875 261.0888977050781 L 224.3078765869141 261.2865905761719 M 227.1819152832031 266.2903442382812 L 69.8089599609375 266.0850524902344 L -3.66210912261522e-07 139.2172088623047 L 69.45866394042969 5.452473942568759e-06 L 226.8316192626953 0.2052971124649048 L 300.8554992675781 139.6096649169922 L 227.1819152832031 266.2903442382812 Z" stroke="none" fill="#fff"/>
    </g>
    <g id="Path_3447" data-name="Path 3447" transform="translate(203.112 -1.275) rotate(49)" fill="none">
      <path d="M68.68,268.221l77.236-.364,79.317-.374,74.055-127.789L226.492,0,147.174.374,69.938.738,0,141.1Z" stroke="none"/>
      <path d="M 71.65380859375 263.2070007324219 L 222.3438720703125 262.4971008300781 L 293.5837707519531 139.5663299560547 L 223.4664611816406 5.014328956604004 L 73.04049682617188 5.72300386428833 L 5.632726192474365 141.0109710693359 L 71.65380859375 263.2070007324219 M 68.67974853515625 268.2210998535156 L -4.55729150417028e-06 141.1042175292969 L 69.93824768066406 0.737549901008606 L 226.4915771484375 8.260090908152051e-06 L 299.28857421875 139.6942138671875 L 225.2330780029297 267.4835510253906 L 68.67974853515625 268.2210998535156 Z" stroke="none" fill="#fff"/>
    </g>
    <g id="Path_3448" data-name="Path 3448" transform="translate(630.03 211.344) rotate(110)" fill="#54acff" style="mix-blend-mode: overlay;isolation: isolate">
      <path d="M 222.2919464111328 264.1006164550781 L 145.3014526367188 263.864501953125 L 70.39560699462891 263.634765625 L 2.812233448028564 139.0626525878906 L 69.65232086181641 2.504813432693481 L 144.4757995605469 2.734320402145386 L 221.4151153564453 2.970311403274536 L 293.1555480957031 139.9776306152344 L 222.2919464111328 264.1006164550781 Z" stroke="none"/>
      <path d="M 220.843017578125 261.59619140625 L 290.306396484375 139.92578125 L 219.8997344970703 5.465635299682617 L 71.20973968505859 5.009568214416504 L 5.62450122833252 139.0037078857422 L 71.88606262207031 261.1393432617188 L 220.843017578125 261.59619140625 M 223.7408294677734 266.6051025390625 L 68.90529632568359 266.1302185058594 L 1.261393208551453e-06 139.1215515136719 L 68.09491729736328 9.602864338376094e-06 L 222.9304656982422 0.4749262630939484 L 296.0046691894531 140.0294647216797 L 223.7408294677734 266.6051025390625 Z" stroke="none" fill="#fff"/>
    </g>
  </g>
</svg>
