<svg xmlns="http://www.w3.org/2000/svg" xmlns:xlink="http://www.w3.org/1999/xlink" width="649.432" height="455.304" viewBox="0 0 649.432 455.304">
  <defs>
    <clipPath id="clip-path">
      <path id="Path_3440" data-name="Path 3440" d="M6994.09,0h371.166V144.922s-93.988,239.631-371.166,91.483c-85.925-45.926,3.6-8.406,0-119.779C6994.628,44.129,6994.09,0,6994.09,0Z" transform="translate(-6956.689)" fill="#2c88ff"/>
    </clipPath>
    <clipPath id="clip-path-2">
      <path id="Path_3092" data-name="Path 3092" d="M0,71.576V214.718l123.963,71.571L247.93,214.718V71.576L123.963,0Z" transform="translate(0)" fill="#54acff"/>
    </clipPath>
    <clipPath id="clip-path-3">
      <path id="Path_3088" data-name="Path 3088" d="M130.327,0,0,75.243v150.49l130.327,75.242,130.322-75.242V75.243Z" fill="#d1ebff"/>
    </clipPath>
    <clipPath id="clip-path-4">
      <path id="Path_3091" data-name="Path 3091" d="M0,73.171V219.5l126.726,73.171L253.461,219.5V73.171L126.726,0Z" fill="#abdaff"/>
    </clipPath>
  </defs>
  <g id="Group_3487" data-name="Group 3487" transform="matrix(0.951, 0.309, -0.309, 0.951, -7622.511, -809.822)" style="mix-blend-mode: soft-light;isolation: isolate">
    <g id="Mask_Group_41" data-name="Mask Group 41" transform="translate(7663.286 -1577.22)" clip-path="url(#clip-path)">
      <g id="Group_3278" data-name="Group 3278" transform="translate(110.356 374.744) rotate(-78)">
        <g id="Group_3277" data-name="Group 3277" transform="translate(0 0)" clip-path="url(#clip-path-2)">
          <rect id="Rectangle_506" data-name="Rectangle 506" width="377.75" height="377.75" transform="translate(-143.145 143.145) rotate(-45)" fill="#54acff"/>
        </g>
      </g>
    </g>
    <g id="Group_3270" data-name="Group 3270" transform="translate(7569.441 -1370.619) rotate(-78)">
      <g id="Group_3269" data-name="Group 3269" transform="translate(0 0)" clip-path="url(#clip-path-3)">
        <rect id="Rectangle_502" data-name="Rectangle 502" width="397.128" height="397.128" transform="translate(-150.487 150.487) rotate(-45)" fill="#d1ebff"/>
      </g>
    </g>
    <g id="Group_3276" data-name="Group 3276" transform="translate(7826.72 -1450.063) rotate(-78)">
      <g id="Group_3275" data-name="Group 3275" transform="translate(0 0)" clip-path="url(#clip-path-4)">
        <rect id="Rectangle_505" data-name="Rectangle 505" width="386.177" height="386.177" transform="translate(-146.338 146.338) rotate(-45)" fill="#abdaff"/>
      </g>
    </g>
  </g>
</svg>
